<svg width="501" height="501" viewBox="0 0 501 501" fill="none" xmlns="http://www.w3.org/2000/svg">
<path d="M487.927 292.307C478.052 294.307 458.852 293.282 453.152 292.532C452.977 290.532 453.277 271.357 453.027 267.032C453.027 266.807 452.652 266.682 452.652 266.682C438.508 265.687 424.324 265.404 410.152 265.832C410.152 249.032 410.152 232.032 409.777 215.057C409.779 214.995 409.766 214.933 409.74 214.877C409.714 214.82 409.676 214.771 409.627 214.732C409.579 214.693 409.522 214.666 409.461 214.653C409.4 214.64 409.337 214.642 409.277 214.657C383.252 213.757 364.277 214.132 364.127 214.407C363.852 216.207 363.402 233.057 363.552 236.907C355.914 228.51 346.686 221.712 336.402 216.907C333.964 216.123 331.692 214.894 329.702 213.282C329.135 212.775 328.706 212.134 328.452 211.418C328.199 210.701 328.13 209.932 328.252 209.182C330.427 200.882 343.402 196.682 347.202 193.807C349.547 192.241 351.558 190.227 353.12 187.88C354.682 185.533 355.763 182.899 356.302 180.132C356.45 177.461 355.693 174.819 354.152 172.632C352.527 170.132 355.102 169.657 356.877 168.107C355.234 168.133 353.614 168.508 352.127 169.207C352.698 168.301 353.023 167.263 353.071 166.193C353.119 165.124 352.889 164.061 352.402 163.107C352.527 163.907 352.456 164.726 352.194 165.492C351.933 166.258 351.49 166.95 350.902 167.507C351.039 165.476 350.425 163.465 349.177 161.857C342.752 153.482 329.177 151.682 319.352 151.132C319.602 131.132 319.352 78.9821 319.352 73.1821C341.852 74.1821 364.352 75.2821 387.052 76.1821C385.452 111.407 385.052 146.857 386.077 182.257C386.08 182.318 386.098 182.377 386.128 182.429C386.159 182.481 386.202 182.525 386.254 182.557C386.306 182.589 386.364 182.608 386.425 182.613C386.486 182.617 386.546 182.607 386.602 182.582C397.952 183.007 426.127 183.982 428.877 184.057C430.027 199.582 430.352 215.382 430.127 231.157C430.133 231.272 430.184 231.38 430.267 231.459C430.351 231.538 430.462 231.582 430.577 231.582C441.889 232.308 453.234 232.358 464.552 231.732C464.927 231.732 464.952 231.107 464.552 231.107C458.827 231.107 436.477 231.107 431.027 230.732C431.44 215.012 431.006 199.281 429.727 183.607C419.452 181.957 390.002 181.982 386.827 181.907C386.127 146.632 386.302 111.157 387.927 75.7571C387.927 75.642 387.883 75.5312 387.804 75.4474C387.725 75.3637 387.617 75.3135 387.502 75.3071C387.252 75.3071 319.027 72.4571 318.777 72.5821C318.687 72.6002 318.606 72.651 318.551 72.7248C318.495 72.7986 318.469 72.8902 318.477 72.9821V151.157C313.227 151.807 315.227 156.432 313.902 159.007C313.327 160.082 312.852 159.632 311.927 160.257C309.427 161.882 309.652 172.757 309.752 175.632C307.252 182.107 305.302 191.457 310.002 196.607C310.827 197.507 312.277 198.257 312.727 199.432C312.81 199.831 312.807 200.243 312.716 200.64C312.625 201.037 312.45 201.409 312.202 201.732C311.247 203.499 309.783 204.938 308 205.861C306.216 206.784 304.196 207.148 302.202 206.907C286.502 205.657 279.927 208.082 276.502 209.057C266.209 213.724 256.507 219.598 247.602 226.557C247.183 227.04 246.904 227.628 246.794 228.258C246.684 228.888 246.747 229.536 246.977 230.132C244.477 231.157 241.977 232.632 239.627 233.807C238.152 229.057 231.452 206.132 231.077 205.132C232.594 204.184 233.883 202.912 234.852 201.407C237.352 201.407 237.902 201.557 238.077 201.182C240.002 196.907 241.252 192.332 243.327 188.107C245.627 188.107 269.252 186.907 278.727 186.082C278.727 186.082 292.077 188.582 292.752 188.807C292.714 189.329 292.796 189.853 292.99 190.339C293.185 190.825 293.487 191.261 293.875 191.613C294.263 191.964 294.726 192.223 295.229 192.369C295.731 192.516 296.261 192.546 296.777 192.457C299.577 192.132 301.227 189.607 302.352 187.307C303.715 184.697 304.443 181.802 304.477 178.857C304.477 173.107 301.427 171.157 299.077 171.357C298.46 171.329 297.851 171.512 297.352 171.876C296.852 172.239 296.491 172.761 296.327 173.357C294.627 173.057 284.002 171.007 283.827 170.857C277.927 164.657 262.627 151.207 262.627 151.157C262.227 136.982 262.752 99.1071 262.902 94.7821C262.896 94.6647 262.847 94.5537 262.763 94.4706C262.68 94.3875 262.569 94.3382 262.452 94.3321C233.727 94.8821 226.652 93.4071 226.677 94.7071C227.002 101.932 226.952 123.632 226.827 123.557C208.302 111.282 178.652 83.2321 179.152 83.5571C178.852 82.5821 177.427 78.6821 177.002 77.7071C177.002 77.5571 162.927 73.2571 159.952 72.7071C158.591 72.6909 157.252 73.0452 156.077 73.7321C152.36 76.2397 149.195 79.4811 146.777 83.2571C124.627 112.957 116.302 147.132 120.902 177.632C121.38 181.917 122.422 186.12 124.002 190.132C124.634 191.403 125.573 192.497 126.734 193.313C127.895 194.13 129.242 194.643 130.652 194.807C133.152 195.357 145.277 196.682 148.152 195.982C149.877 194.955 151.546 193.837 153.152 192.632C160.652 192.782 181.527 191.682 184.527 191.532C183.802 205.532 183.902 241.382 184.052 245.257C172.277 245.007 142.327 245.007 139.052 244.907C139.052 238.157 139.602 230.782 139.302 223.932C138.902 223.307 138.152 223.282 137.502 223.232C131.877 222.907 108.152 222.157 102.777 222.632C101.702 222.632 103.002 222.307 102.777 251.432H61.402C61.2826 251.432 61.1681 251.48 61.0838 251.564C60.9994 251.648 60.952 251.763 60.952 251.882C60.952 270.707 60.602 289.707 60.952 308.682H24.952C24.8658 308.682 24.7831 308.716 24.7221 308.777C24.6612 308.838 24.627 308.921 24.627 309.007C24.627 309.093 24.6612 309.176 24.7221 309.237C24.7831 309.298 24.8658 309.332 24.952 309.332C49.352 309.632 73.877 309.882 98.377 309.782C98.852 309.782 99.002 311.507 98.877 278.107C113.877 278.107 128.877 278.482 144.052 278.107C144.052 289.357 143.727 300.607 143.877 311.857C139.447 309.79 134.413 309.416 129.727 310.807C118.827 313.682 120.952 321.857 120.652 323.082C120.102 324.782 118.502 324.332 116.677 324.807C114.602 325.376 112.717 326.489 111.218 328.032C109.719 329.575 108.66 331.492 108.152 333.582C103.152 333.357 100.002 333.582 97.577 337.907C96.2495 336.394 94.5971 335.202 92.7436 334.418C90.89 333.634 88.8831 333.279 86.8731 333.38C84.8631 333.481 82.9019 334.035 81.1363 335.001C79.3706 335.967 77.8462 337.319 76.677 338.957C72.277 337.507 68.377 341.457 66.477 345.432C63.277 352.257 68.602 356.032 68.977 357.032L54.977 356.857C54.627 356.857 54.627 357.382 54.977 357.407C59.752 357.407 104.777 359.132 212.477 357.582C200.577 383.632 199.027 427.582 198.327 456.082C199.726 456.697 201.173 457.198 202.652 457.582C202.652 459.507 202.802 461.507 202.802 464.032C200.577 465.307 193.602 469.457 193.227 469.932C192.852 470.407 192.552 472.182 193.677 472.432C199.139 472.578 204.606 472.428 210.052 471.982C209.729 467.394 210.324 462.788 211.802 458.432C214.909 458.483 218.016 458.324 221.102 457.957C236.977 422.457 239.102 404.207 244.527 392.007C249.902 387.982 263.177 373.707 269.402 368.007C270.374 358.554 270.508 349.034 269.802 339.557C269.802 339.132 270.327 338.757 270.727 339.557C271.527 341.232 272.452 347.307 271.577 363.757C271.227 370.557 268.852 384.307 274.777 402.532C280.063 416.848 288.319 429.884 299.002 440.782L319.677 461.632C321.075 461.379 322.453 461.028 323.802 460.582C323.927 460.732 327.727 465.582 327.927 465.582C327.9 466.975 327.468 468.33 326.681 469.48C325.895 470.631 324.79 471.526 323.502 472.057C322.752 472.357 323.127 474.557 323.702 474.557C326.367 474.707 329.037 474.707 331.702 474.557C333.8 472.189 335.737 469.683 337.502 467.057C337.502 466.657 332.502 460.082 331.602 456.657C332.596 455.985 333.54 455.241 334.427 454.432C325.173 433.146 317.012 411.401 309.977 389.282C314.552 381.307 322.727 365.857 323.877 357.207C378.577 359.707 424.852 362.882 478.227 357.532C478.627 357.532 478.627 356.882 478.227 356.907L471.902 357.457C470.468 353.628 468.208 350.163 465.283 347.307C462.358 344.45 458.839 342.274 454.977 340.932C448.802 338.907 447.677 341.257 445.827 338.732C443.414 335.039 439.848 332.247 435.684 330.791C431.519 329.335 426.99 329.297 422.802 330.682C423.702 320.857 416.627 311.657 405.602 312.907C406.821 309.041 406.645 304.869 405.106 301.119C403.567 297.369 400.761 294.277 397.177 292.382C398.089 289.492 398.197 286.407 397.488 283.461C396.778 280.514 395.28 277.816 393.152 275.657C392.019 274.154 390.456 273.03 388.67 272.436C386.884 271.843 384.959 271.806 383.152 272.332C380.554 267.595 377.361 263.21 373.652 259.282C374.478 258.213 375.238 257.094 375.927 255.932C372.835 249.176 368.831 242.875 364.027 237.207C364.027 237.207 364.777 216.507 364.827 214.707C376.327 214.457 405.752 215.382 408.952 215.332C408.952 228.532 409.077 262.432 409.202 266.182C409.207 266.259 409.231 266.334 409.271 266.4C409.311 266.466 409.367 266.521 409.434 266.56C409.5 266.6 409.575 266.622 409.653 266.626C409.73 266.63 409.807 266.615 409.877 266.582C430.627 265.932 447.552 267.182 452.252 267.257C452.252 271.607 451.477 291.082 452.252 292.982C452.252 293.207 461.252 295.057 479.227 294.157C481.177 293.957 489.602 293.732 487.927 292.307ZM209.427 463.807C207.452 463.581 205.461 463.531 203.477 463.657C203.477 463.407 203.252 458.657 203.177 457.707C205.753 458.101 208.349 458.36 210.952 458.482C210.652 459.282 209.477 463.707 209.427 463.807ZM330.877 457.207L333.552 462.207C332.752 462.657 330.152 464.332 328.552 465.282C328.552 465.032 324.577 460.282 324.477 460.282C326.676 459.4 328.814 458.373 330.877 457.207ZM302.752 208.207C303.593 208.183 304.429 208.082 305.252 207.907C306.68 207.8 308.069 207.388 309.324 206.698C310.579 206.008 311.672 205.056 312.527 203.907C318.477 195.332 306.152 199.907 308.902 183.607C310.277 176.96 312.753 170.589 316.227 164.757C318.155 167.214 320.568 169.248 323.317 170.732C326.065 172.216 329.09 173.118 332.202 173.382C334.252 173.382 332.377 178.182 333.227 182.307C333.852 185.232 337.077 183.082 338.952 184.807C339.528 185.364 339.933 186.074 340.119 186.853C340.305 187.632 340.264 188.449 340.002 189.206C339.739 189.963 339.265 190.628 338.636 191.125C338.007 191.621 337.249 191.927 336.452 192.007C335.167 195.013 334.065 198.093 333.152 201.232C330.091 203.312 327.965 206.506 327.227 210.132C327.431 211.319 327.91 212.442 328.626 213.41C329.343 214.379 330.276 215.165 331.352 215.707C327.735 219.666 322.805 222.179 317.477 222.782C314.578 223.28 311.598 222.986 308.852 221.932C303.702 219.657 301.827 213.707 302.752 208.207ZM230.002 204.957C230.202 206.232 237.327 229.807 238.827 234.757C239.902 235.632 244.627 231.732 247.152 231.007C248.408 240.698 252.417 249.825 258.702 257.307C246.202 267.657 237.077 268.982 235.552 269.032C234.042 269.1 232.537 268.807 231.163 268.176C229.789 267.546 228.585 266.596 227.652 265.407C223.968 260.954 221.688 255.507 221.102 249.757C218.852 235.432 219.552 220.432 219.777 205.807C220.132 205.936 220.517 205.955 220.883 205.861C221.249 205.768 221.578 205.566 221.827 205.282C223.127 207.482 224.777 207.082 225.677 205.607C227.577 208.357 230.227 204.407 230.852 201.232C230.852 201.232 232.952 201.407 233.977 201.432C233.002 203.357 229.927 204.482 230.002 204.957ZM222.902 197.032C222.902 196.682 223.652 196.257 223.952 196.232C224.264 196.242 224.561 196.364 224.791 196.575C225.02 196.786 225.166 197.072 225.202 197.382C225.202 197.782 225.802 197.982 225.977 197.607C226.119 197.331 226.324 197.091 226.575 196.909C226.827 196.726 227.118 196.606 227.425 196.557C227.732 196.509 228.046 196.533 228.342 196.628C228.638 196.724 228.907 196.888 229.127 197.107C232.052 199.607 228.152 206.732 226.627 205.582C226.327 205.357 225.827 205.207 226.027 203.457C226.027 203.032 225.377 203.107 225.227 203.457C225.227 205.432 224.452 205.957 223.852 205.957C223.252 205.957 222.852 205.432 222.577 205.032C222.428 204.416 222.428 203.773 222.577 203.157C222.577 202.657 221.877 202.432 221.777 202.957C221.652 203.594 221.433 204.209 221.127 204.782C221.035 204.898 220.913 204.986 220.774 205.038C220.636 205.09 220.486 205.105 220.34 205.079C220.195 205.053 220.059 204.989 219.946 204.893C219.834 204.797 219.75 204.672 219.702 204.532C219.183 202.115 219.268 199.608 219.952 197.232C220.034 196.976 220.188 196.75 220.397 196.581C220.606 196.412 220.86 196.308 221.127 196.282C221.502 196.282 222.027 196.907 222.027 196.982C222.102 197.632 222.927 197.632 222.902 197.032ZM237.277 200.407C235.477 200.407 233.302 200.407 230.952 200.582C231.477 196.007 227.527 194.707 225.752 196.482C225.593 196.184 225.362 195.93 225.079 195.746C224.796 195.561 224.47 195.451 224.133 195.426C223.796 195.401 223.459 195.462 223.151 195.603C222.844 195.744 222.578 195.96 222.377 196.232C222.226 196.054 222.041 195.908 221.833 195.802C221.624 195.697 221.397 195.634 221.164 195.618C220.931 195.601 220.697 195.632 220.476 195.707C220.255 195.783 220.051 195.902 219.877 196.057C218.902 196.857 218.827 198.557 218.677 200.157H210.427C209.927 198.707 207.277 192.082 206.802 190.407L242.152 188.232C241.427 190.132 238.302 198.332 237.277 200.407ZM303.152 182.357C302.227 185.882 300.352 191.732 295.652 191.582C295.07 191.476 294.544 191.166 294.168 190.708C293.793 190.25 293.592 189.674 293.602 189.082C294.058 189.152 294.521 189.152 294.977 189.082C297.002 187.599 298.553 185.56 299.441 183.212C300.329 180.864 300.515 178.309 299.977 175.857C299.977 175.382 299.502 173.882 299.177 173.832L296.677 173.432C299.502 169.857 305.177 173.557 303.152 182.357ZM227.552 95.1321C227.827 95.1321 250.727 95.4321 262.027 95.3821C261.227 113.682 261.052 132.232 261.827 150.707C250.852 141.607 239.052 132.832 227.477 124.107C227.502 123.882 227.752 100.132 227.552 95.1321ZM126.552 191.832C124.052 189.207 123.352 185.257 122.702 181.832C117.377 154.332 123.227 125.382 136.802 101.007C138.952 97.1071 148.902 80.4821 156.402 74.7571C159.452 72.4071 163.327 75.4821 165.052 78.6821C168.052 84.2571 168.502 108.857 167.952 116.882C163.499 115.227 158.64 115 154.052 116.232C130.527 122.982 132.527 158.882 159.052 159.032C157.252 164.032 149.752 182.307 136.552 192.107C135.13 193.269 133.337 193.881 131.501 193.831C129.665 193.78 127.908 193.071 126.552 191.832ZM147.602 195.382C147.127 195.232 137.152 194.957 133.352 194.582C136.783 193.379 139.835 191.292 142.202 188.532C157.852 173.232 164.927 148.207 167.927 126.557C169.895 111.775 169.616 96.7809 167.102 82.0821C166.555 79.1883 165.183 76.5143 163.152 74.3821C164.927 74.9571 175.852 78.3321 176.477 78.3821C184.352 98.5571 184.877 121.482 180.027 142.682C179.027 146.657 177.727 150.607 176.452 154.507C171.127 171.607 162.977 186.157 147.602 195.382ZM153.877 192.057C183.127 169.107 188.877 113.857 179.602 84.7821C210.802 117.432 252.102 139.182 283.152 171.657C283.352 171.857 296.402 174.307 299.027 174.732C299.704 177.177 299.648 179.767 298.866 182.18C298.083 184.594 296.609 186.724 294.627 188.307C293.527 187.857 278.927 185.257 278.727 185.232C270.477 185.307 157.652 191.857 153.877 192.057ZM98.352 277.182C98.2786 277.182 98.2064 277.201 98.1426 277.237C98.0787 277.273 98.0253 277.326 97.9875 277.388C97.9498 277.451 97.9289 277.523 97.9271 277.596C97.9252 277.67 97.9424 277.742 97.977 277.807C97.977 287.932 97.627 298.582 97.977 308.957C88.777 308.732 64.452 308.657 61.902 308.657C62.202 294.182 61.902 256.357 61.902 252.282H103.227C103.299 252.284 103.371 252.268 103.435 252.235C103.499 252.202 103.553 252.153 103.593 252.093C103.633 252.033 103.657 251.964 103.663 251.892C103.669 251.82 103.657 251.748 103.627 251.682C103.902 242.557 103.627 232.932 103.427 223.507C112.502 223.157 135.277 224.332 137.602 224.482C139.327 224.482 138.277 223.207 138.327 245.607C138.327 245.807 138.752 246.057 138.852 246.057C153.852 247.107 169.127 246.057 184.402 246.232C186.127 246.807 184.227 241.657 185.252 191.657L206.052 190.482C206.652 192.132 209.327 198.982 209.777 200.882C209.811 200.991 209.877 201.087 209.966 201.158C210.055 201.229 210.163 201.273 210.277 201.282H218.852C218.617 202.767 218.853 204.288 219.527 205.632C217.202 241.557 220.227 250.632 220.477 251.532C217.814 250.681 214.949 250.708 212.302 251.608C209.656 252.508 207.369 254.234 205.777 256.532C204.055 255.274 201.998 254.556 199.868 254.467C197.737 254.379 195.628 254.925 193.808 256.035C191.988 257.146 190.538 258.772 189.642 260.708C188.747 262.643 188.446 264.801 188.777 266.907C188.777 267.982 187.777 268.207 186.852 268.257C176.452 267.807 169.852 275.757 171.252 283.557C169.711 284.752 168.634 286.446 168.205 288.348C167.777 290.25 168.023 292.242 168.902 293.982C165.427 295.482 161.402 297.882 161.402 302.132C161.272 303.36 161.621 304.591 162.375 305.569C163.129 306.547 164.231 307.196 165.452 307.382C166.627 307.532 167.952 307.382 168.952 308.207C169.419 309.163 170.156 309.96 171.071 310.502C171.986 311.044 173.04 311.307 174.102 311.257C174.148 312.042 174.025 312.829 173.74 313.562C173.456 314.295 173.016 314.959 172.452 315.507C172.452 315.507 169.777 314.882 168.602 314.432C167.473 314.01 166.231 314.01 165.102 314.432C163.783 314.944 162.338 315.036 160.964 314.696C159.59 314.356 158.355 313.6 157.427 312.532C155.952 310.032 153.302 305.807 149.927 308.532C149.521 308.887 149.204 309.332 149.002 309.832C149.002 314.357 146.377 312.932 145.102 312.332C145.427 300.782 145.352 289.257 145.377 277.707C145.027 277.032 147.302 277.082 98.352 277.182ZM213.152 356.357C209.577 356.357 114.077 357.482 69.827 357.032C69.027 354.532 65.427 352.307 66.777 347.407C68.127 342.507 72.302 338.182 76.927 339.907C77.0303 339.943 77.1432 339.94 77.2444 339.898C77.3456 339.857 77.4283 339.78 77.477 339.682C78.5531 338.185 79.9471 336.944 81.5592 336.049C83.1712 335.154 84.9614 334.626 86.8013 334.505C88.6411 334.383 90.4852 334.669 92.2012 335.344C93.9172 336.019 95.4628 337.065 96.727 338.407C97.252 338.857 97.427 339.532 98.127 338.607C99.802 334.582 104.552 334.007 108.702 334.432C108.804 334.427 108.901 334.39 108.982 334.328C109.062 334.265 109.122 334.179 109.152 334.082C109.63 331.507 111.057 329.205 113.152 327.632C115.353 326.251 117.842 325.395 120.427 325.132C120.807 324.755 121.101 324.301 121.291 323.801C121.481 323.301 121.561 322.766 121.527 322.232C121.438 320.062 122.075 317.925 123.339 316.158C124.602 314.392 126.42 313.098 128.502 312.482C137.977 309.532 146.002 314.357 147.277 314.157C148.552 313.957 149.077 312.932 149.202 311.657C149.202 310.907 149.077 308.932 151.702 308.657C154.327 308.382 155.152 311.682 156.327 313.207C157.22 314.281 158.396 315.084 159.721 315.526C161.046 315.967 162.468 316.03 163.827 315.707C165.552 315.432 166.102 314.807 167.977 315.532C169.349 315.966 170.767 316.243 172.202 316.357C173.03 315.702 173.676 314.846 174.079 313.869C174.481 312.893 174.627 311.831 174.502 310.782C174.5 310.725 174.486 310.67 174.459 310.619C174.433 310.569 174.395 310.525 174.35 310.492C174.304 310.458 174.251 310.435 174.195 310.425C174.139 310.414 174.082 310.417 174.027 310.432C173.371 310.568 172.691 310.533 172.052 310.332C171.413 310.131 170.837 309.769 170.377 309.282C169.602 308.432 169.277 307.357 168.077 306.957C166.877 306.557 165.577 306.807 164.502 306.457C163.822 306.101 163.233 305.593 162.781 304.972C162.328 304.351 162.025 303.635 161.895 302.878C161.764 302.121 161.81 301.345 162.028 300.608C162.246 299.872 162.63 299.196 163.152 298.632C164.854 296.694 167.035 295.237 169.477 294.407C169.562 294.36 169.625 294.281 169.653 294.188C169.681 294.094 169.672 293.994 169.627 293.907C168.648 292.283 168.321 290.349 168.711 288.494C169.1 286.639 170.178 285 171.727 283.907C171.794 283.867 171.847 283.807 171.879 283.735C171.91 283.663 171.918 283.584 171.902 283.507C170.302 276.157 176.902 269.357 184.402 268.957C187.902 269.157 190.177 268.632 189.402 264.657C189.524 262.957 190.056 261.311 190.953 259.861C191.85 258.411 193.085 257.2 194.552 256.332C198.152 254.057 202.702 255.532 206.102 257.182C207.631 254.902 209.86 253.18 212.453 252.278C215.047 251.376 217.863 251.343 220.477 252.182C220.627 252.182 223.302 268.082 233.777 269.907C235.177 270.157 243.152 270.332 258.252 259.207C256.877 263.507 250.602 286.482 249.477 293.082C249.177 294.957 250.702 295.907 251.977 296.757C245.777 306.332 223.552 334.082 213.152 356.357ZM394.427 278.607C395.773 280.65 396.631 282.975 396.934 285.403C397.238 287.831 396.979 290.296 396.177 292.607C396.14 292.714 396.142 292.831 396.183 292.936C396.225 293.042 396.302 293.129 396.402 293.182C409.052 299.982 404.602 313.182 404.602 313.182C402.615 313.659 400.766 314.592 399.202 315.907C398.952 316.157 399.202 316.532 399.602 316.307C401.378 314.919 403.478 314.007 405.705 313.657C407.932 313.307 410.211 313.531 412.327 314.307C415.635 315.646 418.389 318.071 420.134 321.184C421.879 324.297 422.511 327.912 421.927 331.432C437.527 327.632 444.427 338.157 444.952 338.932C446.552 341.232 447.127 340.932 449.952 341.032C459.302 341.457 467.452 349.157 471.327 357.582C422.477 361.257 373.352 358.332 324.402 356.182C328.297 342.837 330.399 329.032 330.652 315.132C331.599 314.969 332.535 314.744 333.452 314.457C334.096 313.281 334.568 312.018 334.852 310.707C337.352 297.882 341.452 284.832 342.352 271.457C345.576 274.427 349.085 277.073 352.827 279.357C353.127 279.507 354.077 278.732 354.377 278.532C357.003 280.104 359.51 281.868 361.877 283.807C366.227 288.357 364.377 292.982 365.527 310.357C366.652 328.857 368.327 333.332 367.802 334.832C367.027 336.807 359.652 338.307 365.527 339.832C366.202 339.832 368.327 339.232 368.027 340.607C367.252 341.882 365.527 344.357 368.327 345.007C368.734 345.051 369.143 344.944 369.477 344.707C369.513 345.128 369.699 345.522 370.002 345.816C370.306 346.11 370.705 346.284 371.127 346.307C371.583 346.326 372.034 346.202 372.416 345.95C372.797 345.699 373.09 345.334 373.252 344.907C373.346 345.165 373.506 345.394 373.717 345.569C373.928 345.745 374.181 345.862 374.452 345.907C377.277 345.707 377.127 341.732 377.852 339.307C378.527 334.607 378.652 329.307 381.277 324.657C387.802 307.157 392.152 289.657 383.777 273.307C385.866 272.962 388.012 273.29 389.903 274.242C391.795 275.195 393.335 276.723 394.302 278.607H394.427ZM379.002 327.282C377.702 330.132 376.502 341.532 376.202 342.282C375.902 343.032 375.477 345.807 374.002 344.432C373.802 343.994 373.732 343.508 373.802 343.032C373.802 342.557 373.152 342.582 373.077 343.032C373.077 343.932 372.552 345.207 371.452 345.307C369.602 345.307 370.327 342.982 370.277 342.807C370.255 342.721 370.205 342.645 370.135 342.59C370.065 342.536 369.978 342.506 369.889 342.506C369.801 342.506 369.714 342.536 369.644 342.59C369.574 342.645 369.524 342.721 369.502 342.807C369.502 342.982 369.327 344.707 367.977 343.957C367.402 343.607 367.477 343.032 367.752 342.532C368.027 342.032 368.777 341.307 368.902 340.507C368.947 340.169 368.882 339.825 368.715 339.528C368.548 339.23 368.289 338.995 367.977 338.857C367.152 338.688 366.302 338.688 365.477 338.857C365.102 338.857 364.352 338.857 364.227 338.357C364.102 337.857 365.502 337.607 365.877 337.482C370.177 335.957 368.627 332.482 368.052 327.807C366.877 318.432 366.402 308.732 366.027 299.007V290.507C365.502 283.782 361.252 281.032 355.352 278.007C355.352 278.007 367.652 269.132 373.477 259.982C386.802 276.107 393.852 291.257 378.877 327.282H379.002ZM365.452 240.407C369.275 245.128 372.562 250.26 375.252 255.707C371.352 263.207 359.727 273.557 353.227 278.207C350.477 276.807 342.102 272.082 334.752 258.707C334.602 258.432 334.177 258.707 334.327 258.957C336.448 263.04 338.96 266.909 341.827 270.507C340.952 282.057 337.427 293.707 335.152 305.282C334.636 308.072 333.917 310.821 333.002 313.507C325.502 315.332 272.477 308.282 252.027 295.332C250.702 294.532 250.402 294.157 250.702 292.507C253.202 279.007 261.402 248.807 270.702 230.332C270.852 230.007 270.377 229.732 270.227 230.057C265.956 238.535 262.297 247.307 259.277 256.307C254.477 249.782 248.952 239.682 248.202 229.257C247.852 227.607 249.327 226.757 250.452 226.032C251.577 225.307 274.602 206.432 295.777 207.682C297.502 207.682 301.927 208.132 302.452 208.132C301.823 210.61 301.932 213.219 302.768 215.635C303.603 218.052 305.127 220.171 307.152 221.732C312.602 225.482 324.652 224.657 332.152 215.982C344.961 221.429 356.322 229.793 365.327 240.407H365.452Z" fill="url(#paint0_linear_1205_3838)"/>
<path d="M316.953 187.133C317.009 187.119 317.061 187.09 317.103 187.05C317.145 187.009 317.175 186.958 317.191 186.902C317.206 186.846 317.206 186.786 317.19 186.73C317.175 186.674 317.145 186.623 317.103 186.583C316.628 186.158 315.428 186.183 315.428 185.308C317.13 183.073 318.967 180.944 320.928 178.933C321.153 178.683 320.803 178.283 320.553 178.533C315.253 183.858 314.203 184.633 314.753 186.033C314.966 186.417 315.29 186.727 315.682 186.923C316.075 187.12 316.518 187.193 316.953 187.133ZM315.503 177.983C316.022 177.404 316.506 176.794 316.953 176.158C317.203 175.808 316.603 175.358 316.303 175.808C315.849 176.405 315.447 177.041 315.103 177.708C315.108 177.753 315.124 177.797 315.148 177.836C315.171 177.875 315.203 177.909 315.241 177.935C315.279 177.961 315.322 177.978 315.367 177.987C315.412 177.995 315.458 177.993 315.503 177.983ZM325.078 183.208C325.428 183.208 328.203 181.283 327.578 180.708C327.498 180.628 327.39 180.584 327.278 180.584C327.165 180.584 327.057 180.628 326.978 180.708C326.628 181.308 324.778 182.333 324.803 183.208C324.845 183.232 324.892 183.244 324.94 183.244C324.988 183.244 325.036 183.232 325.078 183.208ZM320.803 195.308C321.753 196.008 323.478 194.908 324.278 193.558C324.731 192.669 325.099 191.74 325.378 190.783C325.392 190.741 325.397 190.696 325.394 190.652C325.39 190.608 325.378 190.566 325.357 190.526C325.337 190.487 325.309 190.453 325.274 190.425C325.24 190.397 325.2 190.377 325.158 190.365C325.115 190.353 325.071 190.35 325.027 190.356C324.983 190.362 324.941 190.377 324.903 190.399C324.865 190.422 324.832 190.452 324.806 190.488C324.781 190.524 324.762 190.564 324.753 190.608C324.456 191.268 323.985 191.836 323.39 192.25C322.796 192.663 322.1 192.908 321.378 192.958C320.028 193.383 319.878 194.683 320.803 195.308ZM197.378 114.058C197.325 114.024 197.261 114.014 197.2 114.028C197.139 114.042 197.086 114.08 197.053 114.133C197.02 114.186 197.009 114.25 197.023 114.311C197.037 114.372 197.075 114.424 197.128 114.458C211.428 125.108 214.628 126.533 222.928 133.383C223.203 133.608 223.603 133.233 223.328 132.958C215.134 126.053 206.463 119.738 197.378 114.058ZM242.453 147.858C242.803 148.008 243.178 147.608 242.878 147.308C242.578 147.008 235.378 142.158 233.878 141.158C233.528 140.908 233.203 141.458 233.553 141.708C235.003 142.758 241.628 147.483 242.453 147.858ZM87.8277 62.2826L82.8277 63.6076C90.9027 75.2576 104.853 86.5576 114.903 98.1826C116.628 98.5076 100.653 72.0326 94.4777 59.4326L98.6527 59.1576C98.7577 59.1591 98.8606 59.1291 98.9484 59.0715C99.0361 59.014 99.1046 58.9314 99.145 58.8345C99.1853 58.7377 99.1957 58.6309 99.1748 58.5281C99.1539 58.4252 99.1027 58.331 99.0277 58.2576C89.8486 46.1279 79.1722 35.2079 67.2527 25.7576C66.9527 25.1326 66.0277 25.7576 66.3277 26.2826C72.5027 38.8076 81.7027 50.1326 87.8277 62.2826ZM97.6527 58.1576L93.6527 58.3826C93.5563 58.3828 93.4616 58.4084 93.3782 58.4567C93.2947 58.5051 93.2255 58.5746 93.1774 58.6581C93.1293 58.7417 93.104 58.8365 93.104 58.9329C93.1041 59.0293 93.1295 59.124 93.1777 59.2076C98.1777 69.6076 111.228 92.3076 112.053 93.6326C104.878 86.1326 86.7777 66.5076 84.5527 64.2076L88.6777 63.1326C88.7541 63.1086 88.8242 63.0682 88.8834 63.0143C88.9425 62.9605 88.9892 62.8943 89.0202 62.8205C89.0511 62.7467 89.0656 62.6671 89.0626 62.5871C89.0595 62.5071 89.0391 62.4288 89.0027 62.3576C84.0027 52.3576 69.1777 29.5076 68.0777 27.3576C79.7777 35.6826 95.6527 55.7076 97.6527 58.1576ZM92.2277 126.208C92.3496 126.232 92.4759 126.217 92.5892 126.166C92.7026 126.115 92.7973 126.031 92.8604 125.924C92.9235 125.817 92.9519 125.693 92.9415 125.569C92.9312 125.445 92.8827 125.328 92.8027 125.233C89.4426 120.852 85.5263 116.927 81.1527 113.558C89.3027 112.358 97.6027 112.408 105.753 111.058C106.303 111.058 106.203 110.183 105.753 110.033L55.0777 93.5826C54.9551 93.5295 54.8163 93.5274 54.6921 93.5766C54.5679 93.6258 54.4683 93.7224 54.4152 93.8451C54.3622 93.9677 54.36 94.1064 54.4093 94.2307C54.4585 94.3549 54.5551 94.4545 54.6777 94.5076C59.5857 97.4865 63.9693 101.254 67.6527 105.658C50.2027 104.008 14.1527 102.633 13.8527 102.633C13.1527 102.383 12.8527 103.483 13.5527 103.733C33.4527 110.983 86.5027 124.708 92.2277 126.208ZM16.2277 103.408C33.7277 103.958 49.4277 105.758 68.7277 106.708C69.2027 106.708 69.3027 106.183 69.0527 105.883C65.9628 101.987 62.325 98.5601 58.2527 95.7076L103.253 110.333C95.3527 111.408 87.3277 111.383 79.4527 112.683C78.9527 112.683 78.9277 113.483 79.3027 113.708C83.6455 116.719 87.4775 120.408 90.6527 124.633C65.8777 118.133 40.6527 112.133 16.2277 103.408ZM103.728 156.733C93.3027 161.908 65.8777 173.583 62.8027 174.758C62.6782 174.796 62.5715 174.878 62.5017 174.988C62.4318 175.098 62.4034 175.23 62.4214 175.359C62.4394 175.488 62.5027 175.606 62.6001 175.693C62.6974 175.78 62.8224 175.829 62.9527 175.833H75.0527C64.2027 185.833 56.4777 193.333 43.6527 200.833C43.3027 201.033 44.6777 201.708 45.0527 201.533C63.3831 192.683 81.1204 182.653 98.1527 171.508C98.9527 169.383 90.6527 171.008 89.2027 170.558L104.203 157.583C104.853 157.158 104.228 156.483 103.728 156.733ZM87.5027 170.708C87.4277 170.781 87.3765 170.875 87.3556 170.978C87.3347 171.081 87.3451 171.188 87.3855 171.285C87.4258 171.381 87.4943 171.464 87.582 171.522C87.6698 171.579 87.7728 171.609 87.8777 171.608H96.2027C81.09 181.434 65.3945 190.334 49.2027 198.258C59.2359 191.884 68.4684 184.33 76.7027 175.758C76.7684 175.685 76.8124 175.595 76.8296 175.498C76.8468 175.402 76.8367 175.302 76.8002 175.211C76.7638 175.12 76.7025 175.041 76.6234 174.983C76.5443 174.925 76.4506 174.89 76.3527 174.883H65.7527C75.7527 170.958 98.7527 160.458 100.503 159.608L87.5027 170.708Z" fill="url(#paint1_linear_1205_3838)"/>
<defs>
<linearGradient id="paint0_linear_1205_3838" x1="256.386" y1="72.5781" x2="256.386" y2="474.67" gradientUnits="userSpaceOnUse">
<stop stop-color="#144794"/>
<stop offset="1" stop-color="#06162E"/>
</linearGradient>
<linearGradient id="paint1_linear_1205_3838" x1="170.412" y1="25.4961" x2="170.412" y2="201.561" gradientUnits="userSpaceOnUse">
<stop stop-color="#144794"/>
<stop offset="1" stop-color="#06162E"/>
</linearGradient>
</defs>
</svg>
