<svg xmlns="http://www.w3.org/2000/svg" version="1.1" xmlns:xlink="http://www.w3.org/1999/xlink" xmlns:svgjs="http://svgjs.dev/svgjs" width="1920" height="500" preserveAspectRatio="none" viewBox="0 0 1920 500"><g mask="url(&quot;#SvgjsMask1036&quot;)" fill="none"><rect width="1920" height="500" x="0" y="0" fill="rgba(23, 32, 41, 1)"></rect><path d="M37 500L537 0L823.5 0L323.5 500z" fill="url(&quot;#SvgjsLinearGradient1037&quot;)"></path><path d="M350.8 500L850.8 0L1315.8 0L815.8 500z" fill="url(&quot;#SvgjsLinearGradient1037&quot;)"></path><path d="M679.6 500L1179.6 0L1253.1 0L753.1 500z" fill="url(&quot;#SvgjsLinearGradient1037&quot;)"></path><path d="M955.4000000000001 500L1455.4 0L1533.4 0L1033.4 500z" fill="url(&quot;#SvgjsLinearGradient1037&quot;)"></path><path d="M1902 500L1402 0L1061.5 0L1561.5 500z" fill="url(&quot;#SvgjsLinearGradient1038&quot;)"></path><path d="M1559.2 500L1059.2 0L865.7 0L1365.7 500z" fill="url(&quot;#SvgjsLinearGradient1038&quot;)"></path><path d="M1234.4 500L734.4000000000001 0L356.4000000000001 0L856.4000000000001 500z" fill="url(&quot;#SvgjsLinearGradient1038&quot;)"></path><path d="M961.5999999999999 500L461.5999999999999 0L44.59999999999991 0L544.5999999999999 500z" fill="url(&quot;#SvgjsLinearGradient1038&quot;)"></path><path d="M1443.115868365911 500L1920 23.11586836591107L1920 500z" fill="url(&quot;#SvgjsLinearGradient1037&quot;)"></path><path d="M0 500L476.88413163408893 500L 0 23.11586836591107z" fill="url(&quot;#SvgjsLinearGradient1038&quot;)"></path></g><defs><mask id="SvgjsMask1036"><rect width="1920" height="500" fill="#ffffff"></rect></mask><linearGradient x1="0%" y1="100%" x2="100%" y2="0%" id="SvgjsLinearGradient1037"><stop stop-color="rgba(15, 70, 185, 0.2)" offset="0"></stop><stop stop-opacity="0" stop-color="rgba(15, 70, 185, 0.2)" offset="0.66"></stop></linearGradient><linearGradient x1="100%" y1="100%" x2="0%" y2="0%" id="SvgjsLinearGradient1038"><stop stop-color="rgba(15, 70, 185, 0.2)" offset="0"></stop><stop stop-opacity="0" stop-color="rgba(15, 70, 185, 0.2)" offset="0.66"></stop></linearGradient></defs></svg>