<svg width="830" height="503" viewBox="0 0 830 503" fill="none" xmlns="http://www.w3.org/2000/svg">
<g clip-path="url(#clip0_95_154)">
<path d="M641.777 454.355L660.429 450.038C667.807 463.619 679.945 473.994 694.509 479.168C709.072 484.342 725.035 483.951 739.327 478.07C753.62 472.188 765.235 461.232 771.939 447.306C778.643 433.38 779.964 417.468 775.647 402.627C771.331 387.787 761.681 375.065 748.553 366.908C735.426 358.751 719.746 355.733 704.529 358.436C689.311 361.138 675.63 369.37 666.113 381.548C656.597 393.727 651.918 408.993 652.975 424.412L637.467 428.01M586.715 439.793L569.395 443.79C566.357 444.496 563.723 446.379 562.073 449.026C560.423 451.673 559.892 454.867 560.596 457.905L561.302 460.95C562.009 463.988 563.894 466.622 566.542 468.271C569.19 469.92 572.385 470.449 575.424 469.743L595.028 465.193M757.504 428.029C755.96 436.198 752.029 443.726 746.207 449.66C740.385 455.595 732.933 459.669 724.796 461.369C716.658 463.068 708.199 462.316 700.488 459.208C692.778 456.1 686.162 450.776 681.477 443.907C676.793 437.039 674.251 428.936 674.172 420.623C674.093 412.31 676.48 404.16 681.033 397.205C685.586 390.249 692.099 384.799 699.749 381.545C707.399 378.29 715.843 377.378 724.011 378.922C729.436 379.949 734.605 382.034 739.223 385.059C743.841 388.084 747.818 391.989 750.927 396.551C754.036 401.113 756.216 406.243 757.342 411.647C758.469 417.052 758.519 422.625 757.491 428.049L757.504 428.029Z" fill="url(#paint0_linear_95_154)"/>
<path d="M273.113 210.144C251.084 209.618 231.54 212.143 217.991 220.589C221.109 163.815 195.343 109.232 149.593 93.8645C83.1594 71.5491 57.0004 108.573 48.1008 141.56C39.0814 174.906 57.5866 212.869 76.578 168.738C95.6893 124.32 119.723 126.811 153.483 147.002C187.242 167.192 166.139 242.412 165.806 293.324C165.626 322.767 172.181 347.794 183.479 364.907C164.867 394.443 125.892 394.496 129.056 416.092C132.799 441.639 148.667 490.859 149.819 501.164L237.176 500.631C237.176 500.631 244.603 476.444 227.85 468.504C211.097 460.563 199.053 466.758 199.053 466.758L197.514 447.64C196.948 440.753 202.557 434.531 211.003 432.679C219.663 430.794 231.38 428.236 244.223 425.491C246 426.38 247.845 427.217 249.759 428.003C246.375 437.995 243.837 446.062 243.431 449.026C242.045 459.171 260.75 470.422 275.005 480.074C289.261 489.727 301.757 500.265 301.757 500.265H406.46C406.46 500.265 406.533 461.836 378.482 462.961L347.467 464.813L327.41 450.478C323.946 448.047 322.147 444.769 322.174 441.459C326.082 441.636 330.117 441.765 334.278 441.845C365 442.391 393.017 442.049 418.33 440.819C428.822 462.802 436.402 481.986 436.755 487.582C437.155 493.87 437.048 497.307 443.383 499.119C449.832 500.964 526.65 499.019 526.65 499.019C526.65 499.019 528.375 485.03 526.363 480.701C522.78 472.98 500.671 457.726 493.87 457.726C493.87 457.726 492.098 445.842 490.106 434.251C503.939 432.222 516.374 429.837 527.409 427.097C529.354 430.254 531.499 432.486 533.737 433.565C555.933 444.223 588.58 420.909 592.843 454.581C597.107 488.254 624.678 485.537 635.409 473.719C646.141 461.902 642.97 448.5 633.311 409.951C628.188 389.5 597.739 376.398 597.739 376.398C601.108 370.946 603.861 365.138 605.946 359.078" stroke="url(#paint1_linear_95_154)" stroke-width="6" stroke-linecap="round" stroke-linejoin="round"/>
<path d="M519.583 498.133C519.583 498.133 523.047 479.788 497.601 466.206" stroke="url(#paint2_linear_95_154)" stroke-width="6" stroke-linecap="round" stroke-linejoin="round"/>
<path d="M504.835 498.999C504.835 498.999 506.567 483.545 490.966 472.854" stroke="url(#paint3_linear_95_154)" stroke-width="6" stroke-linecap="round" stroke-linejoin="round"/>
<path d="M630.161 474.372C629.868 471.481 631.386 450.172 622.434 438.035" stroke="url(#paint4_linear_95_154)" stroke-width="6" stroke-linecap="round" stroke-linejoin="round"/>
<path d="M619.176 479.282C619.176 479.282 609.424 452.483 609.997 438.035" stroke="url(#paint5_linear_95_154)" stroke-width="6" stroke-linecap="round" stroke-linejoin="round"/>
<path d="M392.151 499.599C392.151 499.599 393.21 472.92 371.062 470.416" stroke="url(#paint6_linear_95_154)" stroke-width="6" stroke-linecap="round" stroke-linejoin="round"/>
<path d="M381.56 499.865C381.56 499.865 381.46 483.398 363.574 477.043" stroke="url(#paint7_linear_95_154)" stroke-width="6" stroke-linecap="round" stroke-linejoin="round"/>
<path d="M230.062 499.599C230.062 499.599 233.812 481.087 225.152 475.019C220.124 471.422 214.001 469.687 207.833 470.109" stroke="url(#paint8_linear_95_154)" stroke-width="6" stroke-linecap="round" stroke-linejoin="round"/>
<path d="M219.084 499.599C219.084 499.599 224.573 483.132 209.552 480.821" stroke="url(#paint9_linear_95_154)" stroke-width="6" stroke-linecap="round" stroke-linejoin="round"/>
<path d="M595.168 330.308L534.324 329.069C532.355 329.027 530.483 328.205 529.121 326.783C527.758 325.362 527.015 323.457 527.056 321.489L527.283 310.83C527.303 309.856 527.514 308.895 527.906 308.002C528.297 307.109 528.861 306.302 529.564 305.628C530.267 304.953 531.097 304.423 532.005 304.069C532.913 303.714 533.882 303.543 534.857 303.563L594.809 304.815" stroke="url(#paint10_linear_95_154)" stroke-width="6" stroke-linecap="round" stroke-linejoin="round"/>
<path d="M692.777 189.181C696.341 207.627 692.071 229.496 669.562 251.611C645.581 275.266 613.307 283.899 582.965 285.224C581.433 324.486 579.914 362.875 579.914 362.875C579.914 362.875 671.221 374.333 675.171 337.023C677.169 317.811 669.729 300.226 662.015 287.682L691.871 253.909C714.559 227.817 706.825 197.635 692.777 189.181ZM616.538 336.983C612.638 336.902 608.85 335.666 605.652 333.432C602.455 331.198 599.991 328.066 598.573 324.432C597.156 320.798 596.847 316.825 597.687 313.016C598.527 309.207 600.477 305.732 603.292 303.031C606.106 300.331 609.658 298.525 613.499 297.843C617.339 297.16 621.296 297.632 624.868 299.199C628.441 300.765 631.469 303.355 633.569 306.642C635.669 309.929 636.748 313.765 636.669 317.665C636.617 320.256 636.055 322.811 635.014 325.184C633.974 327.557 632.477 329.702 630.607 331.496C628.738 333.29 626.533 334.698 624.119 335.64C621.705 336.581 619.129 337.038 616.538 336.983Z" fill="url(#paint11_linear_95_154)"/>
<path d="M666.597 145.217L616.305 148.867C594.529 149.966 573.812 142.825 554.667 134.545C550.524 132.76 538.014 122.522 538.014 122.522L537.821 122.129C526.81 98.6608 513.321 73.894 507.798 71.829C494.103 66.7065 473.639 126.765 467.771 145.03C408.525 186.177 472.32 262.05 505.627 274.26C536.569 285.584 620.495 300.112 669.582 251.678C716.717 205.342 683.924 160.098 666.597 145.217Z" stroke="url(#paint12_linear_95_154)" stroke-width="6" stroke-linecap="round" stroke-linejoin="round"/>
<path d="M511.308 82.2339C511.308 82.2339 496.254 88.9951 491.891 142.226" stroke="url(#paint13_linear_95_154)" stroke-width="6" stroke-linecap="round" stroke-linejoin="round"/>
<path d="M576.724 185.051C580.646 184.894 583.625 179.748 583.377 173.556C583.129 167.365 579.749 162.472 575.828 162.629C571.906 162.786 568.927 167.933 569.175 174.124C569.423 180.316 572.803 185.208 576.724 185.051Z" fill="url(#paint14_linear_95_154)"/>
<path d="M631.03 185.593C634.948 185.421 637.904 180.267 637.633 174.082C637.362 167.896 633.966 163.021 630.048 163.192C626.13 163.364 623.174 168.518 623.445 174.704C623.716 180.889 627.112 185.765 631.03 185.593Z" fill="url(#paint15_linear_95_154)"/>
<path d="M593.31 210.185C599.811 225.252 604.56 210.391 605.573 202.091C606.652 209.898 612.308 222.421 617.424 211.996" stroke="url(#paint16_linear_95_154)" stroke-width="6" stroke-linecap="round" stroke-linejoin="round"/>
<path d="M617.537 194.777L608.058 203.017C607.326 203.582 606.42 203.875 605.496 203.847C604.572 203.819 603.685 203.472 602.989 202.864L594.069 194.87C591.931 192.952 593.296 189.888 596.314 189.848L614.719 189.614C617.903 189.561 619.715 192.878 617.537 194.777Z" fill="url(#paint17_linear_95_154)"/>
<path d="M611.995 84.2256C619.889 75.2328 627.516 69.4508 632.479 72.6216C638.76 76.6184 649.005 110.138 654.461 138.615" stroke="url(#paint18_linear_95_154)" stroke-width="6" stroke-linecap="round" stroke-linejoin="round"/>
<path d="M631.493 78.8499C631.493 78.8499 601.877 115.007 608.345 138.495" stroke="url(#paint19_linear_95_154)" stroke-width="6" stroke-linecap="round" stroke-linejoin="round"/>
<path d="M566.051 105.722V94.1643L558.058 105.722H566.051Z" fill="url(#paint20_linear_95_154)"/>
<path d="M583.124 91.2599C582.604 91.2522 582.087 91.3518 581.607 91.5523C581.127 91.7529 580.693 92.0502 580.333 92.4257C578.685 94.2775 577.864 97.3861 577.868 101.752C577.873 106.117 578.694 109.226 580.333 111.077C580.698 111.447 581.132 111.74 581.612 111.94C582.091 112.14 582.605 112.243 583.124 112.243C583.643 112.243 584.157 112.14 584.636 111.94C585.116 111.74 585.55 111.447 585.915 111.077C587.554 109.23 588.373 106.121 588.373 101.752C588.373 97.3817 587.554 94.2731 585.915 92.4257C585.554 92.0511 585.12 91.7545 584.64 91.554C584.16 91.3535 583.644 91.2534 583.124 91.2599Z" fill="url(#paint21_linear_95_154)"/>
<path d="M605.447 105.722V94.1643L597.453 105.722H605.447Z" fill="url(#paint22_linear_95_154)"/>
<path d="M700.523 127.937C693.316 124.873 647.646 120.71 629.687 119.164C629.194 108.06 614.279 61.7637 581.685 61.8769C580.533 61.8769 579.421 61.9169 578.355 61.9769L578.142 58.5796C578.142 58.5796 540.778 60.4514 522.486 92.2659L539.519 131.075L542.23 132.474C542.484 132.58 549.505 135.398 553.555 137.136C572.699 145.41 594.528 149.94 616.304 148.84L698.592 142.845C700.936 142.732 702.822 141.353 703.101 139.561L704.1 133.226C704.414 131.095 703.008 128.99 700.523 127.937ZM572.233 107.953C572.113 108.079 571.968 108.178 571.807 108.244C571.647 108.31 571.474 108.343 571.3 108.34H568.676V113.595C568.678 113.768 568.645 113.939 568.579 114.099C568.512 114.258 568.414 114.402 568.29 114.521C568.041 114.761 567.709 114.896 567.364 114.896C567.018 114.896 566.686 114.761 566.438 114.521C566.313 114.402 566.215 114.258 566.148 114.099C566.082 113.939 566.049 113.768 566.051 113.595V108.34H555.553C555.2 108.34 554.861 108.199 554.611 107.949C554.361 107.7 554.221 107.361 554.221 107.007C554.217 106.73 554.303 106.458 554.467 106.235L566.284 89.1617C566.399 88.986 566.558 88.8435 566.745 88.7488C566.932 88.6541 567.141 88.6104 567.35 88.6221C567.704 88.6221 568.043 88.7625 568.292 89.0123C568.542 89.2622 568.683 89.601 568.683 89.9544V105.715H571.307C571.66 105.715 571.999 105.855 572.249 106.105C572.499 106.355 572.639 106.694 572.639 107.047C572.633 107.221 572.591 107.391 572.516 107.548C572.442 107.705 572.336 107.845 572.206 107.96L572.233 107.953ZM587.767 112.983C587.157 113.593 586.433 114.077 585.636 114.408C584.838 114.738 583.984 114.908 583.121 114.908C582.258 114.908 581.403 114.738 580.606 114.408C579.809 114.077 579.085 113.593 578.475 112.983C576.321 110.762 575.244 107.025 575.244 101.772C575.244 96.518 576.321 92.781 578.475 90.5606C579.709 89.3325 581.38 88.6431 583.121 88.6431C584.862 88.6431 586.533 89.3325 587.767 90.5606C589.926 92.781 591.005 96.518 591.005 101.772C591.005 107.025 589.926 110.764 587.767 112.989V112.983ZM611.628 107.953C611.509 108.078 611.365 108.176 611.205 108.243C611.046 108.309 610.875 108.342 610.702 108.34H608.038V113.595C608.04 113.768 608.007 113.939 607.941 114.099C607.874 114.258 607.776 114.402 607.651 114.521C607.403 114.761 607.071 114.896 606.725 114.896C606.38 114.896 606.048 114.761 605.799 114.521C605.675 114.402 605.577 114.258 605.51 114.099C605.444 113.939 605.411 113.768 605.413 113.595V108.34H594.908C594.555 108.34 594.216 108.199 593.966 107.949C593.716 107.7 593.576 107.361 593.576 107.007C593.572 106.73 593.658 106.458 593.822 106.235L605.64 89.1617C605.755 88.9869 605.914 88.8452 606.101 88.7506C606.288 88.656 606.496 88.6117 606.705 88.6221C607.059 88.6221 607.398 88.7625 607.647 89.0123C607.897 89.2622 608.038 89.601 608.038 89.9544V105.715H610.702C610.875 105.713 611.046 105.746 611.205 105.812C611.365 105.878 611.509 105.977 611.628 106.101C611.868 106.35 612.002 106.682 612.002 107.027C612.002 107.373 611.868 107.705 611.628 107.953Z" fill="url(#paint23_linear_95_154)"/>
<path d="M569.822 63.3423C579.398 63.3423 587.161 59.5607 587.161 54.8958C587.161 50.2309 579.398 46.4492 569.822 46.4492C560.246 46.4492 552.482 50.2309 552.482 54.8958C552.482 59.5607 560.246 63.3423 569.822 63.3423Z" fill="url(#paint24_linear_95_154)"/>
<path d="M567.963 47.9614C564.632 40.1543 546.873 9.44566 528.927 12.6165C507.884 15.5008 567.963 47.9614 567.963 47.9614Z" stroke="url(#paint25_linear_95_154)" stroke-width="6" stroke-linecap="round" stroke-linejoin="round"/>
<path d="M568.042 47.6483C565.271 41.1802 557.111 12.843 569.668 3.5371C583.89 -7.84709 568.042 47.6483 568.042 47.6483Z" stroke="url(#paint26_linear_95_154)" stroke-width="6" stroke-linecap="round" stroke-linejoin="round"/>
<path d="M568.629 48.1681C576.303 48.1681 585.469 41.9464 584.19 27.3781C582.911 12.8098 602.035 1.65211 612.54 15.8607" stroke="url(#paint27_linear_95_154)" stroke-width="6" stroke-linecap="round" stroke-linejoin="round"/>
<path d="M568.729 46.4693C573.731 50.6193 583.064 51.5186 590.105 41.3401C597.146 31.1616 615.631 34.2258 614.792 49.1605" stroke="url(#paint28_linear_95_154)" stroke-width="6" stroke-linecap="round" stroke-linejoin="round"/>
<path d="M670.128 193.844C670.128 193.844 717.743 149.174 773.705 183.046" stroke="url(#paint29_linear_95_154)" stroke-width="6" stroke-linecap="round" stroke-linejoin="round"/>
<path d="M669.795 202.684C669.795 202.684 725.084 167.952 773.518 211.91" stroke="url(#paint30_linear_95_154)" stroke-width="6" stroke-linecap="round" stroke-linejoin="round"/>
<path d="M417.111 306.86C414.42 305.531 411.351 305.175 408.428 305.854C405.504 306.533 402.906 308.204 401.077 310.584C399.247 312.963 398.299 315.903 398.393 318.903C398.488 321.903 399.619 324.777 401.595 327.036C403.571 329.296 406.269 330.8 409.23 331.294C412.19 331.787 415.23 331.239 417.832 329.743C420.434 328.246 422.437 325.894 423.499 323.087C424.561 320.28 424.618 317.191 423.659 314.347C423.137 312.718 422.287 311.213 421.161 309.925C420.034 308.638 418.656 307.594 417.111 306.86Z" fill="url(#paint31_linear_95_154)"/>
<path d="M562.315 218.444L530.907 207.167C457.872 180.155 452.163 165.42 453.156 158.872C457.262 153.5 462.211 148.828 467.811 145.037C470.395 136.99 475.804 120.836 482.239 105.735C449.419 112.136 422.993 132.933 421.368 178.523C421.368 178.523 369.823 135.418 277.264 157.527C261.943 161.19 260.277 173.167 262.902 187.949C293.797 361.709 443.643 391.639 566.671 360.61C567.664 351.551 568.883 310.863 569.569 285.384H569.469L584.61 265.713C595.082 240.62 579.308 221.349 562.315 218.444ZM472.48 118.944C472.972 118.768 473.513 118.791 473.988 119.009C474.463 119.226 474.833 119.621 475.021 120.109C475.208 120.597 475.197 121.138 474.99 121.618C474.782 122.097 474.396 122.477 473.912 122.675C459.924 128.05 453.462 142.319 454.288 153.643C454.327 154.171 454.154 154.693 453.808 155.094C453.462 155.495 452.971 155.742 452.443 155.781H452.303C451.797 155.783 451.31 155.592 450.939 155.249C450.568 154.905 450.342 154.434 450.305 153.929C449.365 141.14 456.679 125.013 472.48 118.944ZM331.733 271.622C331.704 271.867 331.626 272.103 331.504 272.317C331.381 272.531 331.217 272.718 331.02 272.867C330.838 273.023 330.626 273.14 330.397 273.211C330.168 273.282 329.927 273.306 329.688 273.28C325.95 272.54 322.578 270.543 320.131 267.622C317.683 264.702 316.308 261.032 316.233 257.222C316.158 253.412 317.387 249.691 319.717 246.676C322.047 243.661 325.338 241.533 329.044 240.646C332.75 239.758 336.647 240.164 340.091 241.795C343.534 243.427 346.316 246.187 347.976 249.618C349.635 253.048 350.072 256.942 349.213 260.655C348.355 264.368 346.254 267.675 343.257 270.03C343.067 270.181 342.848 270.293 342.614 270.36C342.38 270.426 342.135 270.445 341.893 270.416C341.651 270.387 341.418 270.31 341.206 270.19C340.994 270.07 340.808 269.909 340.659 269.717L323.48 247.841C321.604 249.933 320.401 252.542 320.029 255.328C319.794 257.024 319.91 258.75 320.368 260.4C320.826 262.05 321.618 263.588 322.694 264.92C324.558 267.358 327.258 269.018 330.274 269.583C330.692 269.673 331.063 269.909 331.32 270.249C331.483 270.436 331.603 270.654 331.675 270.891C331.746 271.128 331.766 271.377 331.733 271.622ZM360.277 272.747C358.569 272.824 356.896 273.251 355.361 274.002C353.825 274.752 352.46 275.81 351.351 277.111L341.525 288.268C341.367 288.454 341.172 288.606 340.954 288.715C340.735 288.823 340.497 288.887 340.253 288.901C339.758 288.934 339.27 288.77 338.895 288.444C338.521 288.118 338.29 287.658 338.255 287.162C338.236 286.92 338.268 286.677 338.348 286.448C338.428 286.218 338.555 286.008 338.721 285.83L358.378 263.521C358.535 263.336 358.728 263.184 358.946 263.076C359.164 262.969 359.401 262.907 359.644 262.895C359.889 262.876 360.136 262.906 360.37 262.983C360.603 263.06 360.819 263.183 361.005 263.344C361.191 263.505 361.343 263.701 361.452 263.922C361.562 264.142 361.627 264.382 361.643 264.627C361.661 264.87 361.629 265.113 361.549 265.342C361.469 265.572 361.342 265.782 361.176 265.96L358.378 269.117C364.081 268.757 368.67 270.11 372.147 273.174C373.817 274.579 375.177 276.314 376.144 278.27C376.307 278.579 376.402 278.92 376.424 279.269C376.433 279.756 376.256 280.229 375.929 280.591C375.603 280.954 375.151 281.179 374.665 281.221C374.423 281.236 374.181 281.203 373.952 281.123C373.723 281.043 373.512 280.918 373.333 280.754C373.118 280.572 372.945 280.345 372.827 280.088C372.105 278.497 371.033 277.089 369.689 275.971C368.425 274.822 366.939 273.942 365.323 273.388C363.707 272.833 361.994 272.615 360.29 272.747H360.277ZM382.779 290.866C381.09 291.151 379.478 291.781 378.044 292.718C376.61 293.654 375.385 294.877 374.446 296.309L366.072 308.585C365.94 308.797 365.767 308.979 365.562 309.122C365.358 309.265 365.126 309.365 364.882 309.416C364.638 309.467 364.386 309.468 364.142 309.42C363.897 309.371 363.665 309.274 363.459 309.133C363.253 308.993 363.077 308.812 362.943 308.602C362.808 308.392 362.718 308.157 362.676 307.911C362.635 307.666 362.643 307.414 362.701 307.171C362.76 306.929 362.866 306.701 363.015 306.5L379.761 281.94C379.895 281.736 380.069 281.562 380.273 281.427C380.477 281.293 380.707 281.203 380.947 281.161C381.186 281.114 381.432 281.115 381.67 281.166C381.908 281.216 382.133 281.314 382.333 281.454C382.534 281.59 382.706 281.765 382.84 281.968C382.973 282.172 383.065 282.399 383.11 282.638C383.156 282.877 383.153 283.123 383.103 283.361C383.053 283.599 382.956 283.825 382.819 284.025L380.447 287.502C386.056 286.441 390.777 287.218 394.609 289.834C396.446 291.018 398.018 292.569 399.226 294.39C399.428 294.676 399.565 295.004 399.625 295.349C399.69 295.711 399.646 296.084 399.498 296.42C399.351 296.757 399.108 297.042 398.798 297.24C398.489 297.439 398.128 297.541 397.76 297.534C397.393 297.527 397.036 297.411 396.734 297.201C396.491 297.043 396.288 296.831 396.141 296.582C395.23 295.092 393.994 293.828 392.524 292.885C391.125 291.902 389.54 291.217 387.867 290.87C386.193 290.523 384.466 290.521 382.792 290.866H382.779ZM426.344 325.918C424.635 329.385 421.777 332.152 418.257 333.748C414.737 335.344 410.772 335.669 407.039 334.67C403.305 333.671 400.034 331.408 397.782 328.267C395.529 325.126 394.436 321.301 394.688 317.444C394.939 313.587 396.52 309.937 399.161 307.115C401.803 304.293 405.34 302.475 409.172 301.969C413.004 301.463 416.893 302.301 420.175 304.341C423.458 306.381 425.933 309.496 427.177 313.155C427.92 315.225 428.231 317.426 428.09 319.621C427.949 321.817 427.359 323.96 426.357 325.918H426.344ZM460.123 322.114C460.054 322.348 459.939 322.565 459.786 322.753C459.632 322.942 459.443 323.098 459.229 323.213C459.014 323.328 458.78 323.4 458.538 323.424C458.296 323.448 458.051 323.424 457.819 323.353C457.54 323.273 457.283 323.132 457.066 322.94C455.751 321.79 454.19 320.956 452.503 320.502C449.204 319.523 445.651 319.887 442.619 321.515C439.587 323.143 437.321 325.904 436.316 329.195L432.026 343.424C431.957 343.658 431.843 343.877 431.689 344.066C431.535 344.256 431.345 344.413 431.13 344.528C430.915 344.643 430.679 344.715 430.436 344.738C430.193 344.761 429.948 344.736 429.715 344.663C429.481 344.594 429.264 344.48 429.075 344.327C428.886 344.173 428.73 343.984 428.615 343.769C428.5 343.554 428.429 343.319 428.407 343.077C428.384 342.835 428.409 342.59 428.482 342.358L437.069 313.901C437.134 313.666 437.247 313.448 437.401 313.259C437.554 313.07 437.745 312.914 437.961 312.802C438.285 312.623 438.654 312.545 439.023 312.578C439.391 312.611 439.741 312.753 440.028 312.987C440.314 313.22 440.525 313.534 440.631 313.889C440.738 314.243 440.736 314.62 440.626 314.973L439.407 318.97C444.443 316.27 449.179 315.591 453.615 316.932C455.723 317.511 457.689 318.518 459.391 319.89C459.667 320.103 459.895 320.373 460.057 320.682C460.168 320.902 460.233 321.143 460.247 321.39C460.261 321.636 460.223 321.883 460.137 322.114H460.123ZM537.201 287.509H537.028C516.098 285.684 497.014 279.309 480.301 268.544C466.938 259.938 455.067 248.56 444.996 234.651C427.909 211.057 422.094 188.768 421.854 187.836C421.781 187.579 421.76 187.31 421.793 187.046C421.826 186.781 421.911 186.525 422.044 186.294C422.177 186.063 422.354 185.86 422.567 185.699C422.779 185.537 423.022 185.42 423.28 185.354C423.538 185.288 423.807 185.274 424.071 185.313C424.335 185.352 424.588 185.444 424.816 185.583C425.044 185.722 425.242 185.905 425.398 186.121C425.554 186.338 425.665 186.583 425.724 186.843C425.784 187.07 431.64 209.432 448.32 232.426C463.641 253.536 491.512 279.535 537.355 283.525C537.885 283.548 538.384 283.781 538.742 284.172C539.101 284.563 539.289 285.08 539.267 285.61C539.244 286.14 539.011 286.64 538.62 286.998C538.229 287.357 537.712 287.545 537.182 287.522L537.201 287.509Z" fill="url(#paint32_linear_95_154)"/>
<path d="M345.889 258.459C346.098 256.765 345.97 255.047 345.513 253.403C345.057 251.759 344.28 250.221 343.228 248.878C342.176 247.535 340.87 246.412 339.383 245.574C337.896 244.737 336.259 244.201 334.565 243.997C331.768 243.697 328.945 244.247 326.465 245.576L342.452 265.926C344.335 263.847 345.534 261.241 345.889 258.459Z" fill="url(#paint33_linear_95_154)"/>
<path d="M552.423 193.844C552.423 193.844 504.807 149.213 448.846 183.073" stroke="url(#paint34_linear_95_154)" stroke-width="6" stroke-linecap="round" stroke-linejoin="round"/>
<path d="M552.742 202.684C552.742 202.684 497.453 167.952 449.019 211.91" stroke="url(#paint35_linear_95_154)" stroke-width="6" stroke-linecap="round" stroke-linejoin="round"/>
<path d="M-171.196 500.325H1009.86" stroke="url(#paint36_linear_95_154)" stroke-width="6" stroke-linecap="round" stroke-linejoin="round"/>
</g>
<defs>
<linearGradient id="paint0_linear_95_154" x1="669.216" y1="357.47" x2="669.216" y2="482.783" gradientUnits="userSpaceOnUse">
<stop stop-color="#144794"/>
<stop offset="1" stop-color="#D3D3D3"/>
</linearGradient>
<linearGradient id="paint1_linear_95_154" x1="343.94" y1="87.0688" x2="343.94" y2="501.164" gradientUnits="userSpaceOnUse">
<stop stop-color="#144794"/>
<stop offset="1" stop-color="#06162E"/>
</linearGradient>
<linearGradient id="paint2_linear_95_154" x1="508.671" y1="466.206" x2="508.671" y2="498.133" gradientUnits="userSpaceOnUse">
<stop stop-color="#144794"/>
<stop offset="1" stop-color="#06162E"/>
</linearGradient>
<linearGradient id="paint3_linear_95_154" x1="497.929" y1="472.854" x2="497.929" y2="498.999" gradientUnits="userSpaceOnUse">
<stop stop-color="#144794"/>
<stop offset="1" stop-color="#06162E"/>
</linearGradient>
<linearGradient id="paint4_linear_95_154" x1="626.297" y1="438.035" x2="626.297" y2="474.372" gradientUnits="userSpaceOnUse">
<stop stop-color="#144794"/>
<stop offset="1" stop-color="#06162E"/>
</linearGradient>
<linearGradient id="paint5_linear_95_154" x1="614.574" y1="438.035" x2="614.574" y2="479.282" gradientUnits="userSpaceOnUse">
<stop stop-color="#144794"/>
<stop offset="1" stop-color="#06162E"/>
</linearGradient>
<linearGradient id="paint6_linear_95_154" x1="381.61" y1="470.416" x2="381.61" y2="499.599" gradientUnits="userSpaceOnUse">
<stop stop-color="#144794"/>
<stop offset="1" stop-color="#06162E"/>
</linearGradient>
<linearGradient id="paint7_linear_95_154" x1="372.567" y1="477.043" x2="372.567" y2="499.865" gradientUnits="userSpaceOnUse">
<stop stop-color="#144794"/>
<stop offset="1" stop-color="#06162E"/>
</linearGradient>
<linearGradient id="paint8_linear_95_154" x1="219.351" y1="470.047" x2="219.351" y2="499.599" gradientUnits="userSpaceOnUse">
<stop stop-color="#144794"/>
<stop offset="1" stop-color="#06162E"/>
</linearGradient>
<linearGradient id="paint9_linear_95_154" x1="214.807" y1="480.821" x2="214.807" y2="499.599" gradientUnits="userSpaceOnUse">
<stop stop-color="#144794"/>
<stop offset="1" stop-color="#06162E"/>
</linearGradient>
<linearGradient id="paint10_linear_95_154" x1="561.111" y1="303.561" x2="561.111" y2="330.308" gradientUnits="userSpaceOnUse">
<stop stop-color="#144794"/>
<stop offset="1" stop-color="#06162E"/>
</linearGradient>
<linearGradient id="paint11_linear_95_154" x1="643.065" y1="189.181" x2="643.065" y2="364.534" gradientUnits="userSpaceOnUse">
<stop stop-color="#144794"/>
<stop offset="1" stop-color="#06162E"/>
</linearGradient>
<linearGradient id="paint12_linear_95_154" x1="568.723" y1="71.5203" x2="568.723" y2="285.483" gradientUnits="userSpaceOnUse">
<stop stop-color="#144794"/>
<stop offset="1" stop-color="#06162E"/>
</linearGradient>
<linearGradient id="paint13_linear_95_154" x1="501.599" y1="82.2339" x2="501.599" y2="142.226" gradientUnits="userSpaceOnUse">
<stop stop-color="#144794"/>
<stop offset="1" stop-color="#06162E"/>
</linearGradient>
<linearGradient id="paint14_linear_95_154" x1="575.828" y1="162.629" x2="576.724" y2="185.051" gradientUnits="userSpaceOnUse">
<stop stop-color="#144794"/>
<stop offset="1" stop-color="#06162E"/>
</linearGradient>
<linearGradient id="paint15_linear_95_154" x1="630.048" y1="163.192" x2="631.03" y2="185.593" gradientUnits="userSpaceOnUse">
<stop stop-color="#144794"/>
<stop offset="1" stop-color="#06162E"/>
</linearGradient>
<linearGradient id="paint16_linear_95_154" x1="605.367" y1="202.091" x2="605.367" y2="216.656" gradientUnits="userSpaceOnUse">
<stop stop-color="#144794"/>
<stop offset="1" stop-color="#06162E"/>
</linearGradient>
<linearGradient id="paint17_linear_95_154" x1="605.761" y1="189.614" x2="605.761" y2="203.849" gradientUnits="userSpaceOnUse">
<stop stop-color="#144794"/>
<stop offset="1" stop-color="#06162E"/>
</linearGradient>
<linearGradient id="paint18_linear_95_154" x1="633.228" y1="71.7444" x2="633.228" y2="138.615" gradientUnits="userSpaceOnUse">
<stop stop-color="#144794"/>
<stop offset="1" stop-color="#06162E"/>
</linearGradient>
<linearGradient id="paint19_linear_95_154" x1="619.457" y1="78.8499" x2="619.457" y2="138.495" gradientUnits="userSpaceOnUse">
<stop stop-color="#144794"/>
<stop offset="1" stop-color="#06162E"/>
</linearGradient>
<linearGradient id="paint20_linear_95_154" x1="562.054" y1="94.1643" x2="562.054" y2="105.722" gradientUnits="userSpaceOnUse">
<stop stop-color="#144794"/>
<stop offset="1" stop-color="#06162E"/>
</linearGradient>
<linearGradient id="paint21_linear_95_154" x1="583.121" y1="91.2595" x2="583.121" y2="112.243" gradientUnits="userSpaceOnUse">
<stop stop-color="#144794"/>
<stop offset="1" stop-color="#06162E"/>
</linearGradient>
<linearGradient id="paint22_linear_95_154" x1="601.45" y1="94.1643" x2="601.45" y2="105.722" gradientUnits="userSpaceOnUse">
<stop stop-color="#144794"/>
<stop offset="1" stop-color="#06162E"/>
</linearGradient>
<linearGradient id="paint23_linear_95_154" x1="613.315" y1="58.5796" x2="613.315" y2="149.003" gradientUnits="userSpaceOnUse">
<stop stop-color="#144794"/>
<stop offset="1" stop-color="#06162E"/>
</linearGradient>
<linearGradient id="paint24_linear_95_154" x1="569.822" y1="46.4492" x2="569.822" y2="63.3423" gradientUnits="userSpaceOnUse">
<stop stop-color="#144794"/>
<stop offset="1" stop-color="#D3D3D3"/>
</linearGradient>
<linearGradient id="paint25_linear_95_154" x1="546.21" y1="12.3877" x2="546.21" y2="47.9614" gradientUnits="userSpaceOnUse">
<stop stop-color="#144794"/>
<stop offset="1" stop-color="#06162E"/>
</linearGradient>
<linearGradient id="paint26_linear_95_154" x1="569.232" y1="1.9978" x2="569.232" y2="47.6483" gradientUnits="userSpaceOnUse">
<stop stop-color="#144794"/>
<stop offset="1" stop-color="#06162E"/>
</linearGradient>
<linearGradient id="paint27_linear_95_154" x1="590.585" y1="9.2915" x2="590.585" y2="48.1681" gradientUnits="userSpaceOnUse">
<stop stop-color="#144794"/>
<stop offset="1" stop-color="#06162E"/>
</linearGradient>
<linearGradient id="paint28_linear_95_154" x1="591.774" y1="35.3923" x2="591.774" y2="49.3983" gradientUnits="userSpaceOnUse">
<stop stop-color="#144794"/>
<stop offset="1" stop-color="#06162E"/>
</linearGradient>
<linearGradient id="paint29_linear_95_154" x1="721.916" y1="170.358" x2="721.916" y2="193.844" gradientUnits="userSpaceOnUse">
<stop stop-color="#144794"/>
<stop offset="1" stop-color="#06162E"/>
</linearGradient>
<linearGradient id="paint30_linear_95_154" x1="721.657" y1="189.656" x2="721.657" y2="211.91" gradientUnits="userSpaceOnUse">
<stop stop-color="#144794"/>
<stop offset="1" stop-color="#06162E"/>
</linearGradient>
<linearGradient id="paint31_linear_95_154" x1="411.363" y1="305.518" x2="411.363" y2="331.47" gradientUnits="userSpaceOnUse">
<stop stop-color="#144794"/>
<stop offset="1" stop-color="#06162E"/>
</linearGradient>
<linearGradient id="paint32_linear_95_154" x1="424.93" y1="105.735" x2="424.93" y2="371.356" gradientUnits="userSpaceOnUse">
<stop stop-color="#144794"/>
<stop offset="1" stop-color="#06162E"/>
</linearGradient>
<linearGradient id="paint33_linear_95_154" x1="336.226" y1="243.917" x2="336.226" y2="265.926" gradientUnits="userSpaceOnUse">
<stop stop-color="#144794"/>
<stop offset="1" stop-color="#06162E"/>
</linearGradient>
<linearGradient id="paint34_linear_95_154" x1="500.634" y1="170.386" x2="500.634" y2="193.844" gradientUnits="userSpaceOnUse">
<stop stop-color="#144794"/>
<stop offset="1" stop-color="#06162E"/>
</linearGradient>
<linearGradient id="paint35_linear_95_154" x1="500.88" y1="189.656" x2="500.88" y2="211.91" gradientUnits="userSpaceOnUse">
<stop stop-color="#144794"/>
<stop offset="1" stop-color="#06162E"/>
</linearGradient>
<linearGradient id="paint36_linear_95_154" x1="419.329" y1="500.325" x2="419.329" y2="501.325" gradientUnits="userSpaceOnUse">
<stop stop-color="#144794"/>
<stop offset="1" stop-color="#06162E"/>
</linearGradient>
<clipPath id="clip0_95_154">
<rect width="830" height="502.929" fill="white"/>
</clipPath>
</defs>
</svg>
