<svg xmlns="http://www.w3.org/2000/svg" version="1.1" xmlns:xlink="http://www.w3.org/1999/xlink" xmlns:svgjs="http://svgjs.dev/svgjs" width="350" height="200" preserveAspectRatio="none" viewBox="0 0 350 200"><g mask="url(&quot;#SvgjsMask1627&quot;)" fill="none"><rect width="350" height="200" x="0" y="0" fill="url(&quot;#SvgjsRadialGradient1628&quot;)"></rect><path d="M350 0L201.7 0L350 38.85z" fill="rgba(255, 255, 255, .1)"></path><path d="M201.7 0L350 38.85L350 44.86L123.53999999999999 0z" fill="rgba(255, 255, 255, .075)"></path><path d="M123.53999999999999 0L350 44.86L350 103.17L78.22999999999999 0z" fill="rgba(255, 255, 255, .05)"></path><path d="M78.23000000000002 0L350 103.17L350 109.64L70.43000000000002 0z" fill="rgba(255, 255, 255, .025)"></path><path d="M0 200L93.31 200L0 174.8z" fill="rgba(0, 0, 0, .1)"></path><path d="M0 174.8L93.31 200L167.41 200L0 101.79z" fill="rgba(0, 0, 0, .075)"></path><path d="M0 101.78999999999999L167.41 200L260.74 200L0 96.39999999999999z" fill="rgba(0, 0, 0, .05)"></path><path d="M0 96.39999999999999L260.74 200L300.44 200L0 82.41999999999999z" fill="rgba(0, 0, 0, .025)"></path></g><defs><mask id="SvgjsMask1627"><rect width="350" height="200" fill="#ffffff"></rect></mask><radialGradient cx="100%" cy="50%" r="364.01" gradientUnits="userSpaceOnUse" id="SvgjsRadialGradient1628"><stop stop-color="#0e2a47" offset="0"></stop><stop stop-color="rgba(0, 0, 0, 1)" offset="1"></stop></radialGradient></defs></svg>