<svg width="250" height="251" viewBox="0 0 250 251" fill="none" xmlns="http://www.w3.org/2000/svg">
<path d="M164.587 112.857C164.385 103.033 164.712 93.208 164.567 83.3843C164.258 61.9918 163.954 40.5976 163.654 19.2018C163.599 15.1943 163.192 10.518 159.829 8.34176C157.79 7.02176 155.195 7.02801 152.767 7.09176C137.229 7.49926 121.732 6.82426 106.212 7.69551C100.212 8.03176 95.4737 9.91801 95.2537 16.5593C94.8087 29.978 95.5162 116.864 95.8787 124.146C96.0037 126.761 95.1587 137.521 97.5275 140.058C98.9812 141.614 114.811 140.628 115.787 140.288C117.472 139.702 122.317 129.049 127.155 124.238C122.746 124.472 105.831 125.738 104.905 123.578C103.979 121.418 103.77 28.6268 103.28 21.9318C120.684 22.2368 138.089 22.0893 155.495 21.4893C156.274 55.3143 154.92 82.9655 155.547 104.791C155.672 109.262 157.014 117.462 154.416 121.372C152.996 123.509 150.166 123.372 147.626 123.351C145.611 123.338 136.716 124.031 136.287 123.931C137.537 124.222 137.936 125.788 137.912 127.064C137.85 131.286 135.855 135.198 134.132 139.052C133.15 141.251 134.66 141.097 136.375 141.087C138.09 141.077 150.777 140.866 155.384 140.387C159.19 139.992 162.162 140.542 163.494 136.602C165.85 129.636 164.737 120.156 164.587 112.857Z" fill="url(#paint0_linear_1205_3870)"/>
<path d="M129.507 72.4255C128.898 72.0597 128.173 71.9376 127.477 72.0836C126.782 72.2296 126.167 72.633 125.757 73.213C123.096 76.4417 124.022 81.6892 124.606 85.4155C124.682 85.9005 125.463 85.778 125.453 85.3005C125.284 82.6679 125.426 80.0245 125.878 77.4255C126.107 76.4005 126.378 74.748 127.271 74.068C130.739 71.4317 130.456 85.693 129.042 84.7767C128.869 84.6642 128.928 77.9017 128.939 76.4292C128.934 76.2413 128.861 76.0615 128.735 75.9218C128.609 75.7822 128.438 75.6916 128.252 75.6663C128.066 75.641 127.876 75.6825 127.718 75.7835C127.559 75.8845 127.441 76.0384 127.386 76.218C126.888 78.6629 126.811 81.1747 127.158 83.6455C127.291 84.908 127.462 86.7955 129.114 86.8542C130.989 86.9205 131.343 84.793 131.544 83.378C131.845 81.2494 131.829 79.0882 131.498 76.9642C131.264 75.4267 130.938 73.378 129.507 72.4255Z" fill="url(#paint1_linear_1205_3870)"/>
<path d="M134.958 90.0993C137.308 86.4581 137.139 78.7606 136.494 74.5168C135.832 70.1531 132.733 64.3131 127.425 65.1418C118.564 66.5168 116.815 83.6606 122.675 90.2943C122.746 90.3643 122.837 90.4092 122.935 90.422C123.033 90.4348 123.133 90.4147 123.218 90.3649C123.304 90.3151 123.371 90.2384 123.408 90.1467C123.446 90.055 123.452 89.9536 123.425 89.8581C122.855 87.8156 121.882 85.9831 121.447 83.8768C120.177 77.7406 121.467 68.4268 127.272 66.9256C132.492 65.5756 134.693 72.7256 135.014 76.4993C135.58 80.8867 135.057 85.3459 133.49 89.4831C133.125 90.3618 134.483 90.8356 134.958 90.0993Z" fill="url(#paint2_linear_1205_3870)"/>
<path d="M118.75 91.0544C118.971 91.5182 119.625 91.1794 119.531 90.7257C117.626 81.2532 119.005 80.8507 118.674 76.9107C118.63 76.3832 117.825 76.0132 117.556 76.6069C116.737 78.9608 116.503 81.4787 116.875 83.9432C117.061 86.4081 117.697 88.8182 118.75 91.0544Z" fill="url(#paint3_linear_1205_3870)"/>
<path d="M120.685 65.2904C119.153 67.3224 118.187 69.7245 117.885 72.2517C117.817 72.7804 118.545 73.0267 118.709 72.4792C119.678 69.2012 121.591 66.281 124.209 64.0829C125.13 63.4773 125.995 62.7895 126.792 62.0279C127.068 61.7004 126.917 61.0454 126.409 61.1054C124.125 61.3717 122.022 63.5517 120.685 65.2904Z" fill="url(#paint4_linear_1205_3870)"/>
<path d="M130.723 61.6055C130.659 61.6145 130.599 61.6422 130.551 61.6851C130.502 61.728 130.468 61.7841 130.451 61.8466C130.434 61.909 130.436 61.975 130.456 62.0364C130.477 62.0978 130.515 62.1518 130.566 62.1917C137.762 65.5667 136.441 71.9105 137.816 76.1055C137.954 76.5242 138.651 76.6055 138.749 76.1055C139.773 70.943 137.204 61.7467 130.723 61.6055Z" fill="url(#paint5_linear_1205_3870)"/>
<path d="M137.695 90.7391C139.877 87.9466 139.796 83.8328 139.014 80.5516C138.864 79.9266 137.99 80.2216 138.074 80.8128C138.551 84.1878 137.437 86.9616 136.725 90.1753C136.612 90.6866 137.315 91.2241 137.695 90.7391Z" fill="url(#paint6_linear_1205_3870)"/>
<path d="M122.418 58.9715C122.533 58.9364 122.634 58.8651 122.706 58.7682C122.778 58.6713 122.817 58.554 122.817 58.4334C122.817 58.3128 122.778 58.1954 122.706 58.0985C122.634 58.0016 122.533 57.9304 122.418 57.8952C120.312 57.3152 111.143 57.4652 108.793 57.4702C108.566 57.4722 108.349 57.5632 108.189 57.7236C108.028 57.884 107.937 58.1009 107.936 58.3277C107.902 62.3677 108.081 66.4065 108.471 70.4277C108.48 70.5154 108.521 70.5967 108.586 70.6557C108.652 70.7148 108.737 70.7475 108.825 70.7475C108.913 70.7475 108.998 70.7148 109.064 70.6557C109.129 70.5967 109.17 70.5154 109.179 70.4277C109.547 66.6777 109.644 62.9515 109.651 59.1952C111.713 59.194 120.294 59.479 122.418 58.9715Z" fill="url(#paint7_linear_1205_3870)"/>
<path d="M149.398 68.8514C149.572 65.3777 149.543 61.8967 149.31 58.4264C149.306 58.1993 149.214 57.9826 149.053 57.8221C148.892 57.6616 148.675 57.5699 148.448 57.5664C144.384 57.6023 140.325 57.8631 136.29 58.3477C136.181 58.3477 136.077 58.3907 136.001 58.4674C135.924 58.544 135.881 58.648 135.881 58.7564C135.881 58.8648 135.924 58.9688 136.001 59.0454C136.077 59.1221 136.181 59.1652 136.29 59.1652C140.072 59.4152 143.832 59.3902 147.617 59.3039C147.616 62.5481 147.837 65.7885 148.277 69.0027C148.391 69.6789 149.343 69.4439 149.398 68.8514Z" fill="url(#paint8_linear_1205_3870)"/>
<path d="M136.375 100.542C140.102 100.872 143.848 100.751 147.588 100.707C147.815 100.706 148.033 100.615 148.193 100.455C148.354 100.294 148.444 100.077 148.446 99.85C148.553 96.5527 148.324 93.2532 147.762 90.0025C147.663 89.5475 146.878 89.5137 146.803 90.0025C146.48 92.9922 146.445 96.0061 146.701 99.0025C143.255 99.0387 139.805 99.055 136.378 99.4337C136.236 99.44 136.101 99.5009 136.002 99.6038C135.904 99.7067 135.848 99.8436 135.848 99.9863C135.847 100.129 135.902 100.266 136 100.37C136.098 100.473 136.232 100.535 136.375 100.542Z" fill="url(#paint9_linear_1205_3870)"/>
<path d="M110.099 97.9817C109.724 94.8217 109.544 91.6455 109.291 88.4742C109.282 88.3539 109.228 88.2413 109.14 88.1591C109.051 88.0769 108.935 88.0312 108.814 88.0312C108.694 88.0312 108.578 88.0769 108.489 88.1591C108.401 88.2413 108.347 88.3539 108.338 88.4742C108.082 91.9276 108.144 95.3972 108.523 98.8392C108.532 99.0588 108.624 99.2669 108.78 99.422C108.935 99.5772 109.144 99.6681 109.363 99.6767C110.63 99.9036 111.936 99.746 113.113 99.2242C113.213 99.1619 113.293 99.0722 113.343 98.9657C113.394 98.8593 113.412 98.7406 113.397 98.6238C113.382 98.5071 113.333 98.3972 113.257 98.3073C113.181 98.2174 113.081 98.1512 112.968 98.1167C112.026 97.9111 111.057 97.8654 110.099 97.9817Z" fill="url(#paint10_linear_1205_3870)"/>
<path d="M130.493 189.384C122.941 188.002 113.967 188.675 107.062 192.458C112.483 183.958 117.386 175.083 122.187 166.23C127.129 157.123 132.202 147.918 135.893 138.23C137.416 134.23 139.884 128.897 138.018 124.647C136.449 121.064 132.297 120.494 129.091 122.195C125.984 123.845 123.729 127.08 121.716 129.89C117.426 136.164 113.49 142.672 109.923 149.383C108.524 144.932 102.789 142.54 99.3693 145.775C97.6743 141.387 92.6055 138.607 88.463 141.188C88.1169 138.972 87.0303 136.939 85.3805 135.42C83.198 133.664 80.1793 133.829 77.673 134.724C73.0305 136.384 66.243 142.167 62.7868 145.608C54.0527 154.281 47.7232 165.075 44.4193 176.932C42.8218 182.785 41.9555 189.348 43.7068 195.248C42.1267 197.229 40.6937 199.324 39.4193 201.514C37.7701 200.756 36.1035 200.045 34.4193 199.38C27.3255 209.087 20.3805 218.905 13.8343 228.989C10.803 233.657 7.39304 238.925 13.9855 242.398C20.1855 245.663 76.8793 245.068 79.333 241.699C79.7912 241.065 80.0928 240.331 80.2132 239.557C80.3335 238.784 80.2692 237.993 80.0255 237.249C79.3543 235.155 73.5355 227.715 71.9855 225.938C73.2914 224.327 74.3986 222.564 75.283 220.688C75.4555 220.255 74.878 219.87 74.5143 220.098C72.7855 221.179 70.818 224.714 70.818 224.714C70.818 224.714 52.1255 207.569 40.4718 202.012C41.8571 200.456 43.1485 198.82 44.3393 197.112C44.5643 197.663 44.8105 198.207 45.0893 198.737C45.1624 198.856 45.276 198.946 45.4094 198.989C45.5428 199.032 45.6872 199.026 45.8165 198.971C45.9457 198.917 46.0513 198.818 46.1139 198.693C46.1766 198.568 46.1922 198.424 46.158 198.288C42.333 187.073 45.783 174.97 50.9668 164.749C55.8572 155.073 62.9399 146.672 71.6505 140.217C74.243 138.3 77.1905 136.099 80.5018 135.778C84.4593 135.394 86.8243 139.122 86.913 142.778C86.9184 142.946 86.9721 143.109 87.0679 143.248C87.1637 143.386 87.2974 143.494 87.453 143.559C87.6085 143.623 87.7794 143.641 87.9451 143.611C88.1107 143.581 88.2641 143.503 88.3868 143.388C91.643 140.298 97.1468 142.044 98.1618 147.834C98.2117 147.994 98.3064 148.136 98.4345 148.243C98.5626 148.351 98.7188 148.419 98.8847 148.441C99.0505 148.462 99.2191 148.435 99.3703 148.364C99.5215 148.293 99.6492 148.18 99.738 148.038C100.263 147.15 101.091 146.481 102.069 146.154C103.048 145.828 104.111 145.865 105.064 146.26C108.138 147.51 108.476 150.868 108.939 151.273C107.393 154.266 106.011 157.341 104.801 160.484C104.606 160.995 105.438 161.342 105.684 160.859C109.291 153.775 122.856 127.65 129.729 123.805C131.876 122.604 134.836 122.485 136.229 124.857C137.521 127.057 136.854 129.724 136.187 132.013C131.312 148.748 114.223 176.71 104.554 193.32C104.376 193.627 104.179 195.307 106.328 194.214C113.059 190.783 128.839 188.557 135.748 193.077C137.397 194.155 139.012 196.877 136.487 197.363C132.461 198.14 118.237 201.883 111.628 204.223C105.172 206.51 99.5118 209.922 93.5955 213.295C87.1018 216.999 78.7968 220.227 71.7505 215.993C71.5533 215.877 71.318 215.844 71.0965 215.901C70.875 215.959 70.6853 216.102 70.5693 216.299C70.4533 216.496 70.4203 216.732 70.4778 216.953C70.5352 217.175 70.6783 217.364 70.8755 217.48C77.1968 221.269 84.8493 219.655 91.1018 216.583C94.7105 214.81 97.953 212.375 101.562 210.61C119.079 202.052 129.972 201.619 136.161 199.372C138.677 198.458 140.596 196.197 138.842 193.59C137.088 190.984 133.394 189.917 130.493 189.384Z" fill="url(#paint11_linear_1205_3870)"/>
<path d="M168.736 64.9292C170.788 72.9292 169.486 80.6867 173.403 88.2455C175.919 93.1055 179.844 97.1492 181.176 102.594C182.343 107.993 181.551 113.631 178.943 118.499C178.862 118.637 178.839 118.802 178.88 118.957C178.92 119.112 179.021 119.245 179.159 119.325C179.297 119.406 179.462 119.429 179.617 119.388C179.772 119.348 179.904 119.247 179.985 119.109C180.498 118.398 180.954 117.649 181.35 116.867C182.225 117.955 187.179 122.634 188.606 124.02C189.018 124.419 189.599 123.819 189.231 123.395C187.924 121.875 183.295 116.295 182.049 115.317C183.389 111.785 183.798 107.967 183.235 104.232C182.36 98.3567 178.816 94.0105 175.851 89.078C169.619 78.703 173.895 64.5255 166.523 56.7267C165.898 56.0692 164.729 56.9355 165.253 57.7155C166.829 59.8966 168.008 62.3386 168.736 64.9292Z" fill="url(#paint12_linear_1205_3870)"/>
<path d="M165.462 151.501C166.229 152.001 167.185 150.806 166.452 150.216C164.587 148.728 162.628 147.362 160.588 146.126C162.172 145.678 163.615 144.831 164.779 143.666C165.197 143.151 164.823 142.256 164.083 142.476C162.208 143.032 160.574 144.333 158.668 144.942C155.642 145.857 152.463 146.16 149.319 145.833C146.174 145.507 143.126 144.558 140.352 143.042C140.023 142.867 139.577 143.342 139.917 143.609C143.457 146.306 147.8 147.737 152.25 147.672C154.572 147.493 156.876 147.135 159.143 146.601C159.143 146.601 163.224 150.057 165.462 151.501Z" fill="url(#paint13_linear_1205_3870)"/>
<path d="M236.18 156.443C230.785 146.708 222.82 137.874 214.805 130.238C213.592 129.082 202.275 117.404 201.697 117.904C186.271 131.249 172.805 146.704 161.697 163.811C159.028 167.922 159.284 169.673 162.079 173.177C170.116 183.25 178.927 192.681 188.432 201.383C195.15 207.537 205.195 217.832 215.035 216.851C221.39 216.217 227.013 212.039 230.612 206.766C234.179 201.538 236.184 195.242 237.627 189.056C240.014 178.827 241.474 165.996 236.18 156.443ZM183.249 174.768C181.544 175.119 175.749 174.791 174.942 169.666C174.807 168.357 175.093 167.039 175.759 165.904C176.424 164.769 177.434 163.875 178.642 163.353C181.11 162.197 183.587 162.907 185.767 164.637C187.708 166.193 190.453 173.278 183.249 174.768Z" fill="url(#paint14_linear_1205_3870)"/>
<defs>
<linearGradient id="paint0_linear_1205_3870" x1="130.046" y1="7.07031" x2="130.046" y2="141.093" gradientUnits="userSpaceOnUse">
<stop stop-color="#144794"/>
<stop offset="1" stop-color="#06162E"/>
</linearGradient>
<linearGradient id="paint1_linear_1205_3870" x1="127.861" y1="72.0234" x2="127.861" y2="86.8557" gradientUnits="userSpaceOnUse">
<stop stop-color="#144794"/>
<stop offset="1" stop-color="#06162E"/>
</linearGradient>
<linearGradient id="paint2_linear_1205_3870" x1="128.086" y1="65.0625" x2="128.086" y2="90.4623" gradientUnits="userSpaceOnUse">
<stop stop-color="#144794"/>
<stop offset="1" stop-color="#06162E"/>
</linearGradient>
<linearGradient id="paint3_linear_1205_3870" x1="118.122" y1="76.3027" x2="118.122" y2="91.2762" gradientUnits="userSpaceOnUse">
<stop stop-color="#144794"/>
<stop offset="1" stop-color="#06162E"/>
</linearGradient>
<linearGradient id="paint4_linear_1205_3870" x1="122.404" y1="61.1016" x2="122.404" y2="72.7879" gradientUnits="userSpaceOnUse">
<stop stop-color="#144794"/>
<stop offset="1" stop-color="#06162E"/>
</linearGradient>
<linearGradient id="paint5_linear_1205_3870" x1="134.703" y1="61.6055" x2="134.703" y2="76.4507" gradientUnits="userSpaceOnUse">
<stop stop-color="#144794"/>
<stop offset="1" stop-color="#06162E"/>
</linearGradient>
<linearGradient id="paint6_linear_1205_3870" x1="138.115" y1="80.2031" x2="138.115" y2="90.929" gradientUnits="userSpaceOnUse">
<stop stop-color="#144794"/>
<stop offset="1" stop-color="#06162E"/>
</linearGradient>
<linearGradient id="paint7_linear_1205_3870" x1="115.374" y1="57.4492" x2="115.374" y2="70.7475" gradientUnits="userSpaceOnUse">
<stop stop-color="#144794"/>
<stop offset="1" stop-color="#06162E"/>
</linearGradient>
<linearGradient id="paint8_linear_1205_3870" x1="142.695" y1="57.5664" x2="142.695" y2="69.4136" gradientUnits="userSpaceOnUse">
<stop stop-color="#144794"/>
<stop offset="1" stop-color="#06162E"/>
</linearGradient>
<linearGradient id="paint9_linear_1205_3870" x1="142.16" y1="89.6484" x2="142.16" y2="100.766" gradientUnits="userSpaceOnUse">
<stop stop-color="#144794"/>
<stop offset="1" stop-color="#06162E"/>
</linearGradient>
<linearGradient id="paint10_linear_1205_3870" x1="110.793" y1="88.0312" x2="110.793" y2="99.7777" gradientUnits="userSpaceOnUse">
<stop stop-color="#144794"/>
<stop offset="1" stop-color="#06162E"/>
</linearGradient>
<linearGradient id="paint11_linear_1205_3870" x1="74.8614" y1="121.275" x2="74.8614" y2="244.56" gradientUnits="userSpaceOnUse">
<stop stop-color="#144794"/>
<stop offset="1" stop-color="#06162E"/>
</linearGradient>
<linearGradient id="paint12_linear_1205_3870" x1="177.235" y1="56.4941" x2="177.235" y2="124.151" gradientUnits="userSpaceOnUse">
<stop stop-color="#144794"/>
<stop offset="1" stop-color="#06162E"/>
</linearGradient>
<linearGradient id="paint13_linear_1205_3870" x1="153.255" y1="142.441" x2="153.255" y2="151.62" gradientUnits="userSpaceOnUse">
<stop stop-color="#144794"/>
<stop offset="1" stop-color="#06162E"/>
</linearGradient>
<linearGradient id="paint14_linear_1205_3870" x1="199.808" y1="117.889" x2="199.808" y2="216.916" gradientUnits="userSpaceOnUse">
<stop stop-color="#144794"/>
<stop offset="1" stop-color="#06162E"/>
</linearGradient>
</defs>
</svg>
