<svg width="1000" height="1000" viewBox="0 0 1000 1000" fill="none" xmlns="http://www.w3.org/2000/svg">
<path d="M707.9 367C695.71 369.59 691.58 383.58 688.79 394C687.092 400.412 685.866 406.939 685.12 413.53C684.38 419.96 684.28 426.41 683.94 432.86C683.57 439.91 682.76 446.99 680 453.55C679.937 453.787 679.952 454.038 680.044 454.265C680.136 454.492 680.3 454.684 680.51 454.81C681.056 455.196 681.717 455.384 682.384 455.344C683.051 455.304 683.684 455.038 684.18 454.59C685.25 453.59 685.18 451.98 683.55 451.59C681.92 451.2 680.27 452.74 679.04 453.59C677.28 454.817 675.543 456.083 673.83 457.39C667.67 462.08 661.83 467.22 655.83 472.1C652.03 475.17 648.13 478.1 644.09 480.84C642.88 481.66 644.03 483.64 645.24 482.84C651.823 478.246 658.165 473.316 664.24 468.07C667.16 465.61 670.09 463.15 673.09 460.8C674.77 459.467 676.48 458.173 678.22 456.92C679.12 456.27 680.02 455.63 680.94 455C681.34 454.72 681.73 454.42 682.15 454.17C682.57 453.92 683.02 453.9 682.85 453.66V452.53C682.819 452.658 682.754 452.775 682.663 452.869C682.571 452.963 682.455 453.03 682.328 453.064C682.201 453.098 682.067 453.096 681.941 453.061C681.815 453.025 681.7 452.955 681.61 452.86L682.12 454.12C686.87 442.79 685.85 430.25 686.8 418.27C687.301 411.846 688.26 405.467 689.67 399.18C690.884 393.052 692.693 387.057 695.07 381.28C697.64 375.48 701.85 370 708.21 368.2C708.375 368.155 708.514 368.046 708.599 367.898C708.683 367.75 708.705 367.574 708.66 367.41C708.615 367.245 708.506 367.106 708.358 367.021C708.21 366.937 708.034 366.915 707.87 366.96L707.9 367Z" fill="url(#paint0_linear_82_2)"/>
<path d="M763.879 569.49C771.797 590.752 782.092 611.05 794.569 630C804.989 645.83 819.569 662.06 838.509 662.25C851.899 662.39 863.879 654.33 874.349 645.99C903.111 623.061 928.004 595.662 948.079 564.84C953.339 556.74 959.529 547.57 969.079 546.35C970.433 546.314 971.767 546.019 973.009 545.48C977.009 543.18 974.219 537.06 971.009 533.8C966.654 529.396 962.014 525.284 957.119 521.49C954.949 519.81 952.609 518.14 949.889 517.78C943.399 516.9 938.619 523.34 934.579 528.49C913.509 555.38 876.099 563.05 849.759 584.8C845.759 555.8 831.609 529.37 817.759 503.61L790.999 530.12C787.739 533.36 779.769 537.9 782.329 541.72C786.529 547.99 783.389 553.06 781.779 558.54C780.169 564.02 777.569 571.01 771.709 570.84" fill="url(#paint1_linear_82_2)"/>
<path d="M763.219 569.68C769.301 586.373 776.892 602.476 785.899 617.79C793.729 631.15 802.389 644.99 814.899 654.49C820.474 658.934 827.101 661.866 834.139 663C841.949 664.08 849.669 662.26 856.719 658.9C864.219 655.32 870.859 650.2 877.289 645C883.719 639.8 890.169 634.16 896.289 628.4C908.611 616.794 920.059 604.293 930.539 591C935.733 584.44 940.676 577.7 945.369 570.78C949.539 564.62 953.249 557.84 958.749 552.72C961.219 550.293 964.275 548.546 967.619 547.65C970.709 546.91 974.699 547.29 975.819 543.53C976.669 540.66 975.119 537.42 973.489 535.14C971.149 531.87 967.819 529.14 964.829 526.5C961.716 523.545 958.35 520.868 954.769 518.5C953.322 517.53 951.662 516.922 949.93 516.729C948.198 516.536 946.445 516.762 944.819 517.39C941.579 518.72 939.049 521.31 936.819 523.94C934.589 526.57 932.429 529.54 929.999 532.16C920.309 542.65 907.899 550.01 895.399 556.62C882.579 563.41 869.339 569.52 857.329 577.71C854.449 579.71 851.659 581.71 848.969 583.98L850.809 584.47C847.599 561.74 838.259 540.47 827.809 520.26C824.809 514.48 821.749 508.74 818.669 503.01C818.582 502.866 818.463 502.743 818.322 502.652C818.18 502.56 818.02 502.501 817.852 502.48C817.685 502.459 817.515 502.476 817.355 502.529C817.196 502.583 817.05 502.672 816.929 502.79L801.069 518.48C796.489 523.02 792.069 527.88 787.069 531.94C784.439 534.05 779.069 537.79 781.069 541.83C781.788 543.004 782.394 544.242 782.879 545.53C783.287 547.015 783.362 548.572 783.099 550.09C782.669 552.76 781.539 555.27 780.749 557.85C779.399 562.28 777.479 569.76 771.639 569.7C771.367 569.726 771.114 569.853 770.93 570.055C770.746 570.258 770.644 570.521 770.644 570.795C770.644 571.069 770.746 571.332 770.93 571.535C771.114 571.737 771.367 571.864 771.639 571.89C776.769 571.89 779.639 567.44 781.289 563.18C782.289 560.71 782.949 558.12 783.819 555.61C784.689 553.1 785.619 550.28 785.439 547.49C785.362 546.113 785.047 544.76 784.509 543.49C784.127 542.665 783.696 541.864 783.219 541.09C782.993 540.761 782.875 540.369 782.879 539.97C782.949 538.03 785.289 536.27 786.619 535.13C788.429 533.57 790.369 532.13 792.069 530.49C794.779 527.82 797.469 525.14 800.169 522.49L818.489 504.36L816.749 504.13C827.519 524.13 838.399 544.39 844.649 566.36C846.412 572.49 847.748 578.735 848.649 585.05C848.779 585.96 849.939 586 850.499 585.54C861.339 576.62 873.909 570.15 886.339 563.78C898.769 557.41 911.049 551.18 921.899 542.55C927.218 538.302 932.018 533.441 936.199 528.07C938.339 525.33 940.579 522.42 943.499 520.47C944.916 519.444 946.606 518.862 948.355 518.798C950.103 518.734 951.831 519.19 953.319 520.11C956.939 522.2 960.189 525.2 963.319 527.96C964.953 529.387 966.543 530.857 968.089 532.37C969.478 533.599 970.737 534.966 971.849 536.45C973.179 538.39 975.379 542.55 972.739 544.38C971.259 545.38 969.099 545.17 967.389 545.54C965.821 545.888 964.305 546.439 962.879 547.18C956.879 550.24 952.639 556.03 948.969 561.51C944.519 568.16 940.119 574.82 935.359 581.25C925.597 594.413 914.903 606.858 903.359 618.49C897.639 624.257 891.719 629.817 885.599 635.17C879.538 640.596 873.196 645.7 866.599 650.46C860.089 655.04 852.929 659.07 845.029 660.59C837.893 661.898 830.525 660.892 823.999 657.72C810.749 651.36 801.419 638.88 793.639 626.84C784.252 612.334 776.135 597.043 769.379 581.14C767.719 577.22 766.089 573.29 764.569 569.31C764.259 568.5 762.949 568.84 763.249 569.68H763.219Z" fill="url(#paint2_linear_82_2)"/>
<path d="M742.76 490.25C736.11 490.96 729.28 491.31 722.76 489.85C717.06 500.14 708.19 508.56 699.38 516.5C667.68 545.07 632.94 573.05 616.1 612.26C609.86 626.77 606.36 642.26 602.89 657.68C595.52 690.42 593.67 735.04 586.3 767.78C583.23 781.38 575.45 786.98 565.23 794.78C564.575 795.274 564.081 795.95 563.809 796.724C563.537 797.497 563.498 798.334 563.699 799.129C563.9 799.924 564.33 800.642 564.937 801.194C565.544 801.745 566.299 802.106 567.11 802.23C568.504 802.392 569.907 802.456 571.31 802.42L592.79 802.14C599.54 802.06 611.94 802.24 618.51 802.35C620.013 802.385 621.477 801.873 622.63 800.909C623.784 799.945 624.548 798.595 624.78 797.11C625.92 789.31 623.37 777.45 624.1 771.42C626.1 754.71 635.42 739.92 643.64 725.23C660.467 695.184 673.678 663.252 683 630.1C683.74 627.45 684.49 624.73 686.14 622.54C687.96 620.12 690.68 618.54 693.32 617.12L743.68 589.12C746.48 587.56 749.36 585.94 751.26 583.37C753.16 580.8 753.88 577.59 754.56 574.47C756.77 564.21 758.77 552.6 752.16 544.13C750.886 542.56 749.932 540.756 749.35 538.82C748.61 536.09 748.69 535.51 749.98 532.91C750.85 531.16 760.98 523.83 761.88 522.1C763.17 519.63 756.26 521.55 759.34 514.67C763.34 505.79 772.47 504.32 781.44 485.96C781.987 484.676 782.237 483.285 782.17 481.89C769.351 486.006 756.146 488.807 742.76 490.25Z" fill="url(#paint3_linear_82_2)"/>
<path d="M575.539 371.58C575.542 360.417 574.168 349.297 571.449 338.47L605.629 310.59L575.629 258.59L534.339 274.26C518.262 258.649 498.559 247.275 476.999 241.16L469.999 197.6H409.999L402.929 241.16C381.39 247.287 361.706 258.66 345.639 274.26L304.359 258.59L274.359 310.59L308.529 338.47C303.075 360.203 303.075 382.947 308.529 404.68L274.359 432.57L304.359 484.57L345.639 468.89C361.685 484.484 381.344 495.86 402.859 502L409.929 545.57H469.929L476.999 502C498.541 495.878 518.226 484.504 534.289 468.9L575.579 484.58L605.579 432.58L571.399 404.69C574.136 393.866 575.526 382.745 575.539 371.58Z" fill="url(#paint4_linear_82_2)"/>
<path d="M577.409 371.58C577.383 360.26 575.99 348.985 573.259 338L572.779 339.82L602.719 315.39L606.949 311.94C607.241 311.647 607.428 311.266 607.482 310.856C607.536 310.446 607.455 310.029 607.249 309.67L597.109 292.12L580.949 264.12L577.229 257.67C577.017 257.316 576.696 257.04 576.313 256.885C575.931 256.73 575.508 256.704 575.109 256.81L538.939 270.55L533.819 272.49L535.649 272.97C519.316 257.189 499.359 245.659 477.529 239.39L478.839 240.69L472.649 202.52L471.779 197.13C471.669 196.735 471.432 196.386 471.105 196.137C470.779 195.888 470.38 195.752 469.969 195.75H409.969C409.559 195.754 409.161 195.89 408.835 196.139C408.509 196.388 408.272 196.735 408.159 197.13L401.969 235.3L401.099 240.69L402.409 239.39C380.578 245.654 360.62 257.186 344.289 272.97L346.109 272.49L309.899 258.72L304.789 256.78C304.391 256.67 303.967 256.695 303.583 256.85C303.2 257.006 302.879 257.283 302.669 257.64L292.539 275.2L276.369 303.2L272.649 309.64C272.444 309.999 272.362 310.414 272.414 310.824C272.467 311.233 272.651 311.615 272.939 311.91L302.889 336.34L307.119 339.79L306.639 337.97C301.159 360.038 301.159 383.112 306.639 405.18L307.119 403.36L277.169 427.79L272.939 431.24C272.649 431.535 272.464 431.916 272.412 432.326C272.359 432.736 272.443 433.152 272.649 433.51L282.789 451.07L298.949 479.07L302.669 485.51C302.88 485.865 303.202 486.142 303.584 486.297C303.967 486.453 304.391 486.478 304.789 486.37L340.999 472.64L346.109 470.7L344.289 470.22C360.623 486.001 380.58 497.531 402.409 503.8L401.099 502.49L407.289 540.66L408.159 546.06C408.272 546.454 408.509 546.8 408.836 547.047C409.162 547.294 409.56 547.428 409.969 547.43H469.969C470.378 547.427 470.775 547.292 471.101 547.045C471.428 546.798 471.665 546.453 471.779 546.06L477.999 507.88L478.879 502.49L477.569 503.8C499.399 497.531 519.356 486.001 535.689 470.22L533.859 470.7L569.999 484.43L575.109 486.37C575.508 486.478 575.931 486.453 576.314 486.297C576.697 486.142 577.019 485.865 577.229 485.51L587.359 468L603.529 440L607.249 433.55C607.455 433.191 607.536 432.774 607.482 432.364C607.428 431.954 607.241 431.573 606.949 431.28L576.999 406.81L572.769 403.36L573.249 405.18C575.982 394.188 577.376 382.906 577.399 371.58C577.399 371.084 577.202 370.608 576.852 370.258C576.501 369.907 576.025 369.71 575.529 369.71C575.033 369.71 574.558 369.907 574.207 370.258C573.856 370.608 573.659 371.084 573.659 371.58C573.64 382.571 572.297 393.52 569.659 404.19C569.569 404.509 569.566 404.845 569.651 405.166C569.735 405.486 569.904 405.777 570.139 406.01L600.139 430.44L604.369 433.89L604.079 431.62L593.939 449.18L577.779 477.18L573.999 483.62L576.119 482.76L539.929 469L534.819 467.06C534.501 466.969 534.164 466.965 533.843 467.05C533.523 467.134 533.231 467.304 532.999 467.54C517.132 482.87 497.745 494.071 476.539 500.16C476.224 500.242 475.937 500.407 475.706 500.637C475.476 500.867 475.311 501.155 475.229 501.47L468.999 539.67L468.129 545.06L469.929 543.69H409.929L411.729 545.06L405.539 506.89L404.669 501.5C404.587 501.185 404.423 500.897 404.192 500.667C403.962 500.437 403.674 500.272 403.359 500.19C382.153 494.101 362.766 482.9 346.899 467.57C346.667 467.334 346.376 467.164 346.055 467.08C345.735 466.995 345.398 466.999 345.079 467.09L308.899 480.82L303.789 482.76L305.899 483.62L295.769 466.07L279.599 438.07L275.879 431.62L275.589 433.89L305.589 409.46L309.819 406.01C310.055 405.777 310.224 405.486 310.308 405.166C310.393 404.845 310.389 404.509 310.299 404.19C304.979 382.775 304.979 360.385 310.299 338.97C310.389 338.651 310.393 338.315 310.308 337.994C310.224 337.674 310.055 337.383 309.819 337.15L279.869 312.72L275.639 309.26L275.929 311.53L285.999 294L302.159 266L305.879 259.55L303.769 260.41L339.999 274.13L345.109 276.07C345.428 276.158 345.764 276.16 346.084 276.076C346.404 275.991 346.695 275.824 346.929 275.59C362.789 260.273 382.166 249.082 403.359 243C403.674 242.92 403.961 242.757 404.191 242.528C404.422 242.3 404.587 242.014 404.669 241.7L410.859 203.53L411.729 198.13L409.929 199.51H469.929L468.129 198.13L474.309 236.3L475.189 241.7C475.272 242.014 475.437 242.3 475.667 242.528C475.898 242.757 476.185 242.92 476.499 243C497.718 249.071 517.12 260.263 532.999 275.59C533.233 275.825 533.524 275.993 533.844 276.077C534.164 276.162 534.501 276.159 534.819 276.07L570.999 262.33L576.109 260.39L573.989 259.53L584.129 277.09L600.289 305.09L604.019 311.54L604.309 309.27L574.359 333.7L570.129 337.15C569.894 337.383 569.725 337.674 569.641 337.994C569.556 338.315 569.559 338.651 569.649 338.97C572.288 349.64 573.631 360.589 573.649 371.58C573.679 374 577.419 374 577.409 371.58Z" fill="url(#paint5_linear_82_2)"/>
<path d="M439.95 421.19C467.349 421.19 489.56 398.979 489.56 371.58C489.56 344.181 467.349 321.97 439.95 321.97C412.551 321.97 390.34 344.181 390.34 371.58C390.34 398.979 412.551 421.19 439.95 421.19Z" fill="white"/>
<path d="M487.681 371.58C487.636 383.865 482.838 395.655 474.291 404.48C465.745 413.305 454.115 418.479 441.838 418.917C429.561 419.356 417.591 415.025 408.437 406.832C399.283 398.639 393.655 387.221 392.735 374.971C391.814 362.721 395.671 350.59 403.497 341.121C411.324 331.651 422.512 325.58 434.716 324.178C446.921 322.776 459.194 326.153 468.964 333.601C478.733 341.049 485.24 351.99 487.121 364.13C487.497 366.595 487.684 369.086 487.681 371.58C487.715 372.054 487.928 372.497 488.276 372.82C488.623 373.143 489.081 373.323 489.556 373.323C490.03 373.323 490.488 373.143 490.836 372.82C491.183 372.497 491.396 372.054 491.431 371.58C491.446 358.257 486.305 345.446 477.084 335.83C467.862 326.215 455.277 320.542 441.965 320.001C428.654 319.46 415.649 324.092 405.678 332.927C395.706 341.763 389.542 354.114 388.476 367.394C387.41 380.674 391.526 393.851 399.961 404.163C408.396 414.475 420.495 421.122 433.723 422.711C446.951 424.299 460.279 420.706 470.916 412.684C481.553 404.662 488.672 392.835 490.781 379.68C491.197 377 491.414 374.292 491.431 371.58C491.396 371.106 491.183 370.663 490.836 370.34C490.488 370.017 490.03 369.837 489.556 369.837C489.081 369.837 488.623 370.017 488.276 370.34C487.928 370.663 487.715 371.106 487.681 371.58Z" fill="url(#paint6_linear_82_2)"/>
<path d="M210.67 338C205.266 332.614 199.221 327.912 192.67 324L195.67 294L156.1 283.32L143.73 310.85C128.427 311.074 113.419 315.091 100.05 322.54L75.59 304.9L46.59 333.9L64.23 358.36C56.7822 371.729 52.7656 386.737 52.54 402.04L25 414.43L35.62 454.06L65.62 451.06C73.4891 464.199 84.4812 475.191 97.62 483.06L94.62 513.06L134.25 523.68L146.63 496.16C161.933 495.935 176.941 491.919 190.31 484.47L214.77 502.11L243.77 473.11L226.14 448.65C233.587 435.28 237.601 420.272 237.82 404.97L265.35 392.6L254.73 352.97L224.73 355.97C220.8 349.425 216.077 343.389 210.67 338Z" fill="url(#paint7_linear_82_2)"/>
<path d="M212.001 336.63C206.482 331.138 200.321 326.334 193.651 322.32L194.581 323.93L197.241 297.69L197.621 293.94C197.618 293.531 197.482 293.133 197.233 292.808C196.984 292.483 196.635 292.249 196.241 292.14L161.471 282.82L156.611 281.52C156.213 281.411 155.791 281.436 155.409 281.591C155.028 281.747 154.708 282.024 154.501 282.38L143.641 306.5L142.111 309.9L143.731 308.98C128.104 309.249 112.783 313.349 99.1106 320.92H101.001L79.5906 305.49L76.5306 303.28C76.1726 303.073 75.7567 302.99 75.3467 303.042C74.9367 303.095 74.5552 303.28 74.2606 303.57L48.8006 329L45.2506 332.56C44.9607 332.855 44.7753 333.236 44.723 333.646C44.6706 334.056 44.7541 334.472 44.9606 334.83L60.3906 356.23L62.6006 359.29V357.4C55.0105 371.068 50.89 386.389 50.6006 402.02L51.5306 400.41L27.4606 411.28L24.0606 412.81C23.7052 413.021 23.4287 413.342 23.2734 413.725C23.1181 414.108 23.0925 414.531 23.2006 414.93L32.5106 449.7L33.8106 454.56C33.9232 454.953 34.1606 455.3 34.487 455.547C34.8134 455.794 35.2112 455.928 35.6206 455.93L61.8606 453.27L65.6106 452.89L64.0006 452C72.0686 465.387 83.2834 476.602 96.6706 484.67L95.7306 483L93.0706 509.25L92.6906 513C92.6921 513.409 92.8265 513.807 93.0736 514.134C93.3206 514.46 93.667 514.697 94.0606 514.81L128.841 524.13L133.701 525.43C134.098 525.532 134.518 525.504 134.898 525.349C135.278 525.194 135.598 524.921 135.811 524.57L146.661 500.45L148.191 497.04L146.571 497.97C162.199 497.687 177.519 493.577 191.191 486H189.301L210.711 501.43L213.771 503.63C214.126 503.839 214.541 503.924 214.95 503.872C215.359 503.819 215.739 503.632 216.031 503.34L241.491 477.88L245.051 474.33C245.34 474.035 245.526 473.654 245.578 473.244C245.631 472.834 245.547 472.418 245.341 472.06L229.911 450.65L227.701 447.6V449.49C235.275 435.815 239.375 420.49 239.641 404.86L238.721 406.48L262.841 395.64L266.241 394.1C266.596 393.892 266.874 393.573 267.029 393.191C267.185 392.809 267.21 392.387 267.101 391.99L257.781 357.21L256.481 352.36C256.372 351.965 256.137 351.617 255.812 351.368C255.487 351.119 255.09 350.983 254.681 350.98L228.441 353.65L224.691 354.03L226.311 354.95C222.291 348.292 217.487 342.142 212.001 336.63C210.301 334.92 207.651 337.57 209.351 339.28C214.624 344.564 219.235 350.471 223.081 356.87C223.246 357.153 223.483 357.387 223.767 357.55C224.051 357.713 224.373 357.8 224.701 357.8L250.941 355.14L254.691 354.76L252.881 353.38L262.201 388.16L263.501 393.02L264.361 390.9L240.241 401.75L236.841 403.28C236.557 403.442 236.321 403.676 236.157 403.959C235.994 404.242 235.909 404.563 235.911 404.89C235.654 419.857 231.73 434.533 224.481 447.63C224.312 447.916 224.223 448.243 224.223 448.575C224.223 448.907 224.312 449.234 224.481 449.52L239.911 470.92L242.121 473.98L242.411 471.71L216.951 497.17L213.401 500.72L215.661 500.43L194.251 485L191.191 482.79C190.904 482.623 190.578 482.535 190.246 482.535C189.914 482.535 189.588 482.623 189.301 482.79C176.207 490.041 161.535 493.969 146.571 494.23C146.243 494.226 145.921 494.309 145.636 494.471C145.352 494.633 145.115 494.867 144.951 495.15L134.111 519.27L132.581 522.68L134.691 521.82L99.9106 512.5L95.0606 511.2L96.4306 513L99.0906 486.76L99.4706 483.01C99.4756 482.684 99.3929 482.362 99.231 482.079C99.0692 481.796 98.8342 481.561 98.5506 481.4C85.7109 473.665 74.9557 462.91 67.2206 450.07C67.0593 449.786 66.8248 449.551 66.5415 449.39C66.2583 449.228 65.9368 449.145 65.6106 449.15L39.3706 451.81L35.6206 452.19L37.4206 453.56L28.1106 418.78L26.8006 413.93L25.9406 416L50.0606 405.2L53.4706 403.67C53.7547 403.506 53.9904 403.27 54.1537 402.985C54.317 402.701 54.4022 402.378 54.4006 402.05C54.6534 387.085 58.5785 372.412 65.8306 359.32C65.9995 359.034 66.0885 358.707 66.0885 358.375C66.0885 358.043 65.9995 357.716 65.8306 357.43L50.3906 336L48.1906 333L47.9006 335.27L73.3606 309.81L76.9106 306.25L74.6406 306.54L96.0506 322L99.1106 324.2C99.3965 324.37 99.723 324.459 100.056 324.459C100.388 324.459 100.715 324.37 101.001 324.2C114.095 316.952 128.767 313.028 143.731 312.77C144.058 312.773 144.379 312.688 144.662 312.525C144.946 312.361 145.18 312.125 145.341 311.84L156.191 287.72L157.721 284.32L155.611 285.18L190.381 294.5L195.241 295.8L193.871 293.99L191.201 320.24L190.821 323.98C190.82 324.308 190.906 324.63 191.069 324.914C191.232 325.199 191.467 325.435 191.751 325.6C198.147 329.449 204.053 334.06 209.341 339.33C211.051 341 213.701 338.33 212.001 336.63Z" fill="url(#paint8_linear_82_2)"/>
<path d="M145.15 437.37C163.872 437.37 179.05 422.192 179.05 403.47C179.05 384.747 163.872 369.57 145.15 369.57C126.428 369.57 111.25 384.747 111.25 403.47C111.25 422.192 126.428 437.37 145.15 437.37Z" fill="white"/>
<path d="M167.789 380.83C173.596 386.681 176.912 394.552 177.041 402.794C177.171 411.035 174.104 419.007 168.484 425.037C162.865 431.067 155.128 434.687 146.898 435.138C138.667 435.588 130.582 432.834 124.338 427.453C118.094 422.073 114.175 414.483 113.405 406.276C112.634 398.07 115.071 389.884 120.205 383.435C125.338 376.985 132.769 372.775 140.94 371.685C149.11 370.595 157.385 372.712 164.029 377.59C165.366 378.569 166.623 379.653 167.789 380.83C169.509 382.52 172.159 379.88 170.439 378.18C163.901 371.647 155.087 367.899 145.846 367.722C136.604 367.546 127.654 370.954 120.871 377.233C114.088 383.512 109.999 392.173 109.463 401.4C108.926 410.628 111.983 419.704 117.993 426.727C124.003 433.749 132.498 438.172 141.698 439.068C150.897 439.963 160.086 437.262 167.338 431.53C174.589 425.798 179.339 417.482 180.592 408.324C181.845 399.166 179.504 389.879 174.059 382.41C172.954 380.917 171.744 379.503 170.439 378.18C168.739 376.47 166.099 379.11 167.789 380.83Z" fill="white"/>
<path d="M299.2 523C293.86 522.997 288.54 523.652 283.36 524.95L270 508.57L245.14 522.93L252.63 542.67C245.173 550.353 239.734 559.763 236.8 570.06L216 573.44V602.15L236.83 605.53C239.764 615.827 245.203 625.237 252.66 632.92L245.17 652.67L270 667L283.33 650.66C293.727 653.26 304.603 653.26 315 650.66L328.36 667L353.23 652.65L345.73 632.9C353.187 625.217 358.626 615.807 361.56 605.51L382.39 602.13V573.44L361.56 570.06C358.626 559.763 353.187 550.353 345.73 542.67L353.23 522.93L328.36 508.57L315 524.91C309.831 523.629 304.525 522.987 299.2 523Z" fill="white"/>
<path d="M299.2 521.09C293.696 521.104 288.214 521.775 282.87 523.09L284.69 523.57L271.35 507.23C271.059 506.938 270.679 506.75 270.271 506.696C269.862 506.642 269.447 506.724 269.09 506.93L247.29 519.52L244.22 521.29C243.865 521.499 243.589 521.819 243.434 522.2C243.278 522.581 243.252 523.003 243.36 523.4L250.86 543.15L251.34 541.32C243.667 549.26 238.056 558.96 235 569.57L236.31 568.26L215.47 571.64C215.076 571.749 214.729 571.985 214.482 572.31C214.234 572.635 214.1 573.032 214.1 573.44V602.15C214.096 602.57 214.231 602.979 214.485 603.314C214.738 603.648 215.095 603.89 215.5 604L236.34 607.37L235 606C238.053 616.596 243.653 626.285 251.31 634.22L250.83 632.4L243.33 652.14C243.221 652.538 243.246 652.96 243.401 653.341C243.557 653.723 243.834 654.042 244.19 654.25L266 666.86L269.08 668.64C269.437 668.844 269.85 668.926 270.258 668.874C270.666 668.822 271.046 668.638 271.34 668.35L284.69 652L282.87 652.48C293.592 655.132 304.798 655.132 315.52 652.48L313.7 652L327 668.35C327.294 668.638 327.673 668.822 328.081 668.874C328.489 668.926 328.903 668.844 329.26 668.64L351.06 656.06L354.13 654.28C354.484 654.071 354.76 653.751 354.916 653.37C355.071 652.989 355.097 652.568 354.99 652.17L347.49 632.43L347.01 634.25C354.685 626.31 360.299 616.611 363.36 606L362.06 607.3L382.89 604C383.284 603.889 383.631 603.652 383.879 603.325C384.126 602.999 384.26 602.6 384.26 602.19V573.44C384.259 573.032 384.125 572.635 383.878 572.31C383.63 571.985 383.283 571.749 382.89 571.64L362.06 568.26L363.36 569.57C360.309 558.97 354.709 549.278 347.05 541.34L347.53 543.17L355.03 523.42C355.137 523.023 355.111 522.601 354.956 522.22C354.8 521.839 354.524 521.519 354.17 521.31L332.38 508.73L329.3 507C328.942 506.796 328.527 506.714 328.119 506.769C327.711 506.823 327.332 507.009 327.04 507.3L313.7 523.59L315.52 523.11C310.179 521.796 304.7 521.125 299.2 521.11C298.704 521.11 298.228 521.307 297.877 521.658C297.527 522.009 297.33 522.484 297.33 522.98C297.33 523.476 297.527 523.952 297.877 524.302C298.228 524.653 298.704 524.85 299.2 524.85C304.367 524.863 309.514 525.498 314.53 526.74C314.848 526.83 315.185 526.833 315.505 526.749C315.825 526.665 316.117 526.496 316.35 526.26L329.68 509.91L327.42 510.21L349.21 522.79L352.28 524.56L351.42 522.45L343.92 542.19C343.83 542.51 343.828 542.847 343.914 543.168C344 543.488 344.171 543.779 344.41 544.01C351.612 551.485 356.878 560.606 359.75 570.58C359.834 570.894 359.999 571.181 360.229 571.411C360.459 571.641 360.745 571.806 361.06 571.89L381.89 575.26L380.52 573.46V602.17L381.89 600.37L361.06 603.74C360.747 603.827 360.462 603.993 360.232 604.223C360.003 604.452 359.836 604.737 359.75 605.05C356.878 615.025 351.612 624.146 344.41 631.62C344.171 631.851 344 632.142 343.914 632.463C343.828 632.783 343.83 633.121 343.92 633.44L351.42 653.18L352.28 651.07L330.49 663.65L327.42 665.43L329.68 665.72L316.35 649.38C316.117 649.144 315.826 648.974 315.506 648.888C315.186 648.801 314.849 648.802 314.53 648.89C304.458 651.38 293.931 651.38 283.86 648.89C283.54 648.802 283.203 648.801 282.883 648.888C282.563 648.974 282.272 649.144 282.04 649.38L268.71 665.7L270.98 665.41L249.18 652.82L246.11 651.05L246.97 653.16L254.47 633.42C254.559 633.102 254.561 632.765 254.477 632.445C254.393 632.125 254.224 631.833 253.99 631.6C246.777 624.121 241.507 614.988 238.64 605C238.553 604.687 238.387 604.402 238.157 604.173C237.928 603.943 237.643 603.777 237.33 603.69L216.5 600.32L217.87 602.12V573.44L216.5 575.24L237.33 571.87C237.644 571.786 237.93 571.621 238.16 571.391C238.39 571.161 238.556 570.874 238.64 570.56C241.515 560.586 246.789 551.467 254 544C254.234 543.767 254.403 543.475 254.487 543.155C254.571 542.835 254.569 542.499 254.48 542.18L247 522.43L246.14 524.54L267.9 512L270.98 510.23L268.71 509.93L282 526.24C282.232 526.476 282.524 526.645 282.844 526.729C283.164 526.813 283.501 526.81 283.82 526.72C288.839 525.477 293.989 524.842 299.16 524.83C301.6 524.82 301.61 521.08 299.2 521.09Z" fill="url(#paint9_linear_82_2)"/>
<path d="M299.2 611.52C312.301 611.52 322.92 600.9 322.92 587.8C322.92 574.7 312.301 564.08 299.2 564.08C286.1 564.08 275.48 574.7 275.48 587.8C275.48 600.9 286.1 611.52 299.2 611.52Z" fill="url(#paint10_linear_82_2)"/>
<path d="M299.201 566C303.706 566.003 308.1 567.398 311.781 569.995C315.462 572.592 318.25 576.263 319.764 580.506C321.279 584.749 321.444 589.356 320.239 593.697C319.033 598.037 316.516 601.899 313.03 604.754C309.545 607.608 305.263 609.316 300.77 609.642C296.277 609.969 291.793 608.899 287.931 606.578C284.07 604.258 281.02 600.801 279.199 596.68C277.379 592.56 276.876 587.977 277.761 583.56C278.788 578.622 281.476 574.186 285.377 570.991C289.279 567.795 294.158 566.034 299.201 566C301.601 566 301.611 562.24 299.201 562.25C293.925 562.246 288.776 563.873 284.46 566.908C280.144 569.942 276.871 574.237 275.089 579.203C273.306 584.169 273.102 589.564 274.504 594.651C275.906 599.738 278.845 604.267 282.92 607.619C286.994 610.971 292.005 612.983 297.266 613.378C302.528 613.773 307.783 612.533 312.312 609.827C316.842 607.121 320.425 603.082 322.571 598.262C324.717 593.442 325.321 588.076 324.301 582.9C323.101 577.111 319.957 571.906 315.391 568.15C310.826 564.393 305.113 562.312 299.201 562.25C296.791 562.19 296.781 565.93 299.201 566Z" fill="url(#paint11_linear_82_2)"/>
<path d="M684.59 304.59C684.14 308.522 683.343 312.407 682.21 316.2C681.677 318.08 680.974 319.907 680.11 321.66C679.25 323.32 677.92 324.85 678.33 326.85C678.595 327.758 679.067 328.592 679.709 329.286C680.351 329.98 681.146 330.516 682.03 330.85C683.03 331.26 683.87 331.23 683.87 332.45C683.87 333.67 683.77 335.13 683.87 336.45C684.009 338.839 684.422 341.205 685.1 343.5C685.74 345.62 686.53 347.94 688.1 349.5C692.1 353.41 698.1 351.34 703.01 351.91C704.39 352.08 704.38 349.91 703.01 349.75C698.89 349.26 693.23 351.2 689.78 348.08C688.13 346.59 687.46 344.08 686.92 342C686.305 339.716 685.969 337.365 685.92 335C685.92 333.28 686.53 330.85 684.92 329.63C683.31 328.41 681.08 328.63 680.42 326.47C680.12 325.47 680.74 324.61 681.22 323.79C681.646 323.081 682.026 322.346 682.36 321.59C683.076 319.967 683.677 318.296 684.16 316.59C685.369 312.641 686.042 308.548 686.16 304.42C686.16 303.34 684.64 303.42 684.52 304.42L684.59 304.59Z" fill="url(#paint12_linear_82_2)"/>
<path d="M692.049 317.49C692.049 317.49 692.049 317.49 692.099 317.54L691.919 316.85C691.883 316.976 691.882 317.109 691.915 317.236C691.949 317.363 692.016 317.478 692.109 317.57L692.169 317.64L692.049 317.49C692.083 317.537 692.114 317.588 692.139 317.64L692.059 317.45C692.084 317.529 692.104 317.609 692.119 317.69V317.47V317.63V317.41C692.123 317.46 692.123 317.51 692.119 317.56L692.209 317.36C692.187 317.414 692.156 317.465 692.119 317.51L692.259 317.33L692.129 317.46L692.309 317.32C692.267 317.361 692.215 317.392 692.159 317.41L692.379 317.32H692.229H692.469L693.259 317.77C693.225 317.69 693.185 317.614 693.139 317.54C693.051 317.41 692.954 317.287 692.849 317.17L692.669 317.03C692.567 316.965 692.45 316.928 692.329 316.92C692.25 316.9 692.168 316.9 692.089 316.92C691.971 316.926 691.857 316.964 691.759 317.03C691.629 317.111 691.52 317.22 691.439 317.35C691.373 317.448 691.335 317.562 691.329 317.68C691.299 317.798 691.299 317.922 691.329 318.04L691.379 318.16C691.416 318.269 691.46 318.376 691.509 318.48C691.509 318.55 691.609 318.62 691.659 318.69L691.809 318.87C691.885 318.96 691.986 319.026 692.099 319.06C692.169 319.103 692.248 319.127 692.329 319.13C692.447 319.16 692.571 319.16 692.689 319.13C692.796 319.096 692.9 319.052 692.999 319C693.117 318.928 693.224 318.84 693.319 318.74C693.411 318.636 693.492 318.522 693.559 318.4C693.604 318.307 693.641 318.21 693.669 318.11C693.678 318.007 693.678 317.903 693.669 317.8C693.689 317.661 693.689 317.519 693.669 317.38C693.645 317.248 693.594 317.122 693.519 317.01C693.384 316.78 693.186 316.592 692.949 316.47L692.779 316.4C692.681 316.375 692.578 316.375 692.479 316.4C692.413 316.401 692.347 316.418 692.289 316.45C692.198 316.478 692.117 316.534 692.059 316.61L692.749 316.43H692.499H692.309L692.149 316.5C692.021 316.575 691.922 316.691 691.869 316.83C691.834 316.944 691.834 317.066 691.869 317.18C691.887 317.326 691.95 317.462 692.049 317.57V317.49Z" fill="url(#paint13_linear_82_2)"/>
<path d="M690 311.14C690.003 311.316 690.062 311.486 690.168 311.626C690.274 311.766 690.422 311.869 690.59 311.92C690.961 312.035 691.359 312.035 691.73 311.92L692.3 311.82C692.408 311.79 692.518 311.77 692.63 311.76C692.38 311.76 692.63 311.76 692.73 311.76C693.113 311.73 693.497 311.73 693.88 311.76C693.973 311.755 694.067 311.755 694.16 311.76H694.24C694.51 311.81 694.78 311.87 695.06 311.9C695.336 311.901 695.603 311.8 695.808 311.615C696.014 311.43 696.143 311.175 696.17 310.9C696.204 310.632 696.142 310.361 695.993 310.135C695.844 309.909 695.62 309.744 695.36 309.67C694.89 309.552 694.404 309.508 693.92 309.54C693.456 309.553 692.994 309.607 692.54 309.7C692.098 309.79 691.669 309.931 691.26 310.12L690.97 310.26C690.97 310.32 690.61 310.26 690.91 310.26C691.21 310.26 691.06 310.26 690.81 310.26C690.697 310.261 690.586 310.282 690.48 310.32L691.22 310.62C691.141 310.482 691.015 310.377 690.864 310.326C690.714 310.275 690.55 310.28 690.403 310.342C690.257 310.404 690.138 310.517 690.069 310.66C690 310.804 689.986 310.967 690.03 311.12L690 311.14Z" fill="url(#paint14_linear_82_2)"/>
<path d="M690.91 333.64C691.13 333.56 691.361 333.51 691.591 333.44C691.823 333.371 692.061 333.318 692.3 333.28H692.07C692.184 333.27 692.297 333.27 692.41 333.28C692.594 333.264 692.775 333.227 692.95 333.17C693.128 333.12 693.284 333.014 693.396 332.868C693.507 332.722 693.569 332.544 693.57 332.36C693.561 332.21 693.521 332.063 693.45 331.93C693.397 331.835 693.326 331.752 693.24 331.685C693.154 331.618 693.056 331.569 692.95 331.54C692.795 331.51 692.638 331.49 692.48 331.48C692.321 331.491 692.163 331.521 692.01 331.57C691.825 331.613 691.645 331.674 691.47 331.75C691.239 331.827 691.017 331.931 690.81 332.06C690.62 332.21 690.43 332.36 690.26 332.52C690.158 332.626 690.093 332.762 690.075 332.908C690.057 333.054 690.087 333.202 690.16 333.33C690.223 333.423 690.305 333.502 690.401 333.56C690.476 333.606 690.561 333.636 690.648 333.648C690.736 333.66 690.825 333.654 690.91 333.63V333.64Z" fill="url(#paint15_linear_82_2)"/>
<path d="M709.73 317.33C710.117 316.395 710.769 315.593 711.606 315.025C712.443 314.456 713.429 314.145 714.44 314.13C715.426 314.143 716.384 314.459 717.183 315.035C717.983 315.611 718.586 316.419 718.91 317.35C719.245 318.362 719.319 319.442 719.127 320.49C718.935 321.539 718.482 322.522 717.81 323.35C717.211 324.131 716.423 324.746 715.521 325.14C714.612 325.47 713.631 325.549 712.68 325.37C712.446 325.348 712.212 325.409 712.018 325.543C711.825 325.677 711.685 325.875 711.623 326.101C711.561 326.328 711.581 326.57 711.679 326.784C711.777 326.997 711.948 327.169 712.16 327.27C714.1 328.33 716.621 327.35 718.211 326.1C720.028 324.599 721.184 322.444 721.43 320.1C721.567 318.988 721.449 317.86 721.087 316.8C720.725 315.74 720.128 314.776 719.341 313.98C718.548 313.221 717.585 312.664 716.531 312.358C715.478 312.052 714.366 312.004 713.29 312.22C712.157 312.468 711.113 313.02 710.269 313.816C709.426 314.613 708.814 315.623 708.5 316.74C708.3 317.45 709.41 317.97 709.73 317.26V317.33Z" fill="url(#paint16_linear_82_2)"/>
<path d="M714.91 318.19C714.662 318.251 714.428 318.36 714.22 318.51C714.008 318.65 713.811 318.811 713.63 318.99C713.448 319.17 713.284 319.368 713.14 319.58C712.988 319.797 712.863 320.032 712.77 320.28C712.711 320.499 712.74 320.732 712.85 320.93C712.961 321.117 713.14 321.254 713.35 321.31C713.569 321.37 713.803 321.341 714 321.23L714.17 321.1C714.268 320.995 714.34 320.868 714.38 320.73L714.3 320.93C714.42 320.642 714.575 320.37 714.76 320.12L714.63 320.29C714.804 320.071 715.002 319.873 715.22 319.7L715.06 319.82L715.27 319.67C715.384 319.592 715.491 319.505 715.59 319.41L715.7 319.27C715.752 319.189 715.78 319.096 715.78 319C715.814 318.845 715.785 318.683 715.7 318.55C715.62 318.417 715.498 318.313 715.354 318.254C715.211 318.194 715.051 318.182 714.9 318.22L714.91 318.19Z" fill="url(#paint17_linear_82_2)"/>
<path d="M709.619 316.26C707.189 312.96 707.619 308.07 704.889 305.04C704.119 304.19 703.149 303.55 702.439 302.65C700.899 300.65 700.949 297.96 701.059 295.46C697.918 297.94 694.465 299.997 690.789 301.58C689.674 302.131 688.452 302.432 687.209 302.46C686.589 302.458 685.982 302.276 685.462 301.937C684.942 301.598 684.532 301.117 684.279 300.55C684.175 300.262 684.139 299.955 684.173 299.651C684.206 299.347 684.309 299.055 684.473 298.797C684.638 298.54 684.859 298.323 685.12 298.164C685.381 298.005 685.675 297.908 685.979 297.88C685.622 298.362 685.173 298.769 684.658 299.078C684.143 299.387 683.573 299.592 682.979 299.68C680.619 300.3 677.759 300.68 676.069 298.93C675.501 298.272 675.146 297.457 675.051 296.592C674.956 295.728 675.126 294.855 675.539 294.09C675.963 293.341 676.537 292.688 677.225 292.172C677.914 291.655 678.701 291.287 679.539 291.09C678.769 291.3 677.599 291.27 677.539 290.46C677.548 290.263 677.602 290.071 677.695 289.898C677.788 289.725 677.92 289.575 678.079 289.46C681.209 286.57 685.759 285.84 690.019 285.78C692.914 285.738 695.808 285.942 698.669 286.39C699.457 286.557 700.264 286.621 701.069 286.58C709.639 285.86 718.21 287.968 725.469 292.58C730.119 295.58 733.879 300.58 733.919 306.13C733.846 308.161 733.527 310.176 732.969 312.13C731.549 317.883 730.009 323.6 728.349 329.28C728.019 330.4 727.579 331.65 726.519 332.13C725.732 332.4 724.877 332.4 724.089 332.13C720.929 331.39 718.369 328.61 715.819 326.6C718.819 325.16 720.819 323.73 721.449 320.44C721.755 318.788 721.533 317.082 720.815 315.564C720.097 314.046 718.92 312.792 717.449 311.98C714.449 310.51 711.639 311.29 710.379 314.38" fill="url(#paint18_linear_82_2)"/>
<path d="M710.19 315.93C708.26 312.85 708.39 309.01 706.62 305.87C705.62 304.15 703.82 303.19 702.84 301.52C701.86 299.85 701.93 297.46 702.02 295.46C702.02 294.54 701.02 294.32 700.39 294.79C697.826 296.788 695.065 298.521 692.15 299.96C690.68 300.68 688.91 301.67 687.21 301.55C686.539 301.521 685.905 301.234 685.44 300.75C684.98 300.16 684.99 298.89 685.98 298.81L685.17 297.41C684.44 298.55 682.69 298.77 681.46 299C680.087 299.393 678.619 299.283 677.32 298.69C676.739 298.296 676.311 297.715 676.105 297.044C675.9 296.373 675.93 295.652 676.19 295C676.517 294.257 677.016 293.603 677.645 293.09C678.275 292.577 679.016 292.221 679.81 292.05C680.068 291.98 680.288 291.81 680.422 291.577C680.555 291.344 680.59 291.069 680.52 290.81C680.45 290.551 680.279 290.331 680.047 290.198C679.814 290.065 679.538 290.03 679.28 290.1C679.08 290.1 678.59 290.28 678.41 290.1C678.79 290.4 679.24 289.76 679.48 289.58C680.103 289.118 680.774 288.722 681.48 288.4C682.928 287.742 684.464 287.297 686.04 287.08C689.452 286.63 692.908 286.63 696.32 287.08C698.032 287.394 699.769 287.554 701.51 287.56C706.369 287.174 711.256 287.738 715.9 289.22C721.82 291.06 727.98 294.28 731.11 299.87C732.667 302.658 733.174 305.911 732.54 309.04C731.86 312.7 730.79 316.32 729.83 319.92C729.283 321.98 728.713 324.04 728.12 326.1C727.82 327.16 727.54 328.23 727.2 329.28C726.97 329.98 726.69 330.93 725.88 331.14C724.21 331.59 722.05 330.14 720.79 329.23C719.33 328.23 718.02 326.94 716.61 325.83L716.39 327.5C718.66 326.38 720.86 324.99 721.91 322.59C722.431 321.356 722.681 320.025 722.643 318.686C722.605 317.347 722.28 316.032 721.69 314.83C719.34 309.96 712.06 308.12 709.54 313.83C709 315.08 710.83 316.16 711.38 314.91C713.38 310.28 718.85 312.75 720.17 316.6C720.497 317.52 720.631 318.497 720.564 319.471C720.497 320.444 720.23 321.394 719.78 322.26C718.78 323.96 717.01 324.87 715.32 325.68C715.181 325.762 715.063 325.875 714.974 326.01C714.886 326.145 714.829 326.298 714.809 326.459C714.789 326.619 714.805 326.781 714.857 326.934C714.91 327.087 714.996 327.226 715.11 327.34C717.85 329.56 720.45 332.46 724.04 333.24C725.78 333.62 727.49 333.36 728.53 331.78C729.57 330.2 729.91 328.03 730.42 326.23C731.753 321.643 732.976 317.033 734.09 312.4C735.09 308.51 735.56 304.71 734.01 300.89C731.19 293.89 724.27 289.84 717.45 287.53C713.743 286.281 709.878 285.567 705.97 285.41C704.04 285.33 702.07 285.67 700.15 285.55C697.83 285.39 695.54 284.9 693.15 284.8C688.93 284.6 684.46 284.8 680.58 286.58C679.21 287.22 676.58 288.58 676.58 290.29C676.58 292 678.51 292.29 679.84 292.02L679.31 290.07C678.243 290.32 677.247 290.811 676.398 291.504C675.549 292.197 674.869 293.075 674.41 294.07C674.009 295.034 673.908 296.096 674.12 297.119C674.332 298.141 674.848 299.075 675.6 299.8C677.16 301.19 679.35 301.27 681.31 300.97C683.27 300.67 685.66 300.1 686.81 298.28C686.892 298.139 686.936 297.978 686.937 297.815C686.938 297.651 686.896 297.491 686.815 297.349C686.734 297.207 686.617 297.088 686.475 297.006C686.334 296.924 686.173 296.88 686.01 296.88C685.594 296.92 685.191 297.046 684.827 297.25C684.463 297.455 684.146 297.733 683.896 298.067C683.645 298.401 683.467 298.784 683.373 299.191C683.279 299.598 683.271 300.02 683.35 300.43C683.79 302.43 686.02 303.43 687.93 303.27C690.41 303.06 692.93 301.61 695.08 300.46C697.433 299.193 699.671 297.724 701.77 296.07L700.14 295.39C699.906 297.452 700.121 299.539 700.77 301.51C701.61 303.6 703.54 304.51 704.77 306.27C707 309.4 706.77 313.58 709.18 316.65C709.64 317.24 710.6 316.48 710.18 315.86L710.19 315.93Z" fill="url(#paint19_linear_82_2)"/>
<path d="M703.379 351.64C703.229 351.93 702.909 351.55 703.119 351.96C703.21 352.105 703.314 352.243 703.429 352.37C703.629 352.63 703.829 352.89 704.019 353.16C704.419 353.687 704.809 354.217 705.189 354.75C705.989 355.85 706.749 356.98 707.469 358.13C708.189 359.28 708.849 360.39 709.469 361.54C710.089 362.69 710.679 363.99 711.359 365.16C711.899 366.1 713.599 365.47 713.169 364.39C712.488 362.793 711.682 361.251 710.759 359.78C709.899 358.33 708.989 356.9 708.019 355.52C707.049 354.14 706.019 352.79 704.949 351.52C704.499 350.99 703.949 350.24 703.219 350.21C703.059 350.203 702.9 350.234 702.755 350.302C702.61 350.369 702.483 350.47 702.385 350.596C702.288 350.723 702.221 350.871 702.192 351.028C702.163 351.185 702.172 351.347 702.219 351.5C702.256 351.621 702.327 351.729 702.423 351.811C702.519 351.893 702.637 351.945 702.763 351.962C702.888 351.979 703.016 351.96 703.13 351.906C703.245 351.852 703.342 351.767 703.409 351.66L703.379 351.64Z" fill="url(#paint20_linear_82_2)"/>
<path d="M723.8 330.39C725.14 332.54 726.53 334.65 727.96 336.74L730.12 339.87C730.8 340.928 731.563 341.931 732.4 342.87C732.533 343.036 732.726 343.142 732.937 343.165C733.148 343.189 733.36 343.127 733.525 342.995C733.691 342.862 733.798 342.669 733.821 342.458C733.844 342.247 733.783 342.036 733.65 341.87C733.013 340.772 732.29 339.726 731.49 338.74C730.77 337.74 730.06 336.74 729.34 335.74L725 329.68C724.48 328.96 723.3 329.61 723.79 330.39H723.8Z" fill="url(#paint21_linear_82_2)"/>
<path d="M735.099 339.8C728.699 349.45 721.099 359.02 711.349 365.2C710.779 364.2 710.519 363.27 709.939 362.2C708.939 362.88 708.549 363.78 707.579 364.45C706.419 365.25 705.179 366.17 704.849 367.54C704.694 368.529 704.798 369.542 705.149 370.48L706.529 375.36C706.709 376 706.959 376.72 707.529 376.97C708.639 377.43 709.529 375.97 709.929 374.86L711.929 368.58L715.859 375.81C716.739 377.45 717.909 379.28 719.759 379.47C721.459 379.65 722.919 378.34 724.129 377.13C730.909 370.32 737.739 363.44 743.029 355.42C745.199 352.13 747.139 348.56 747.609 344.65C747.731 344.07 747.661 343.466 747.409 342.93C747.134 342.528 746.763 342.202 746.329 341.98L740.409 338.26C739.176 337.376 737.784 336.738 736.309 336.38C735.37 336.322 734.431 336.481 733.563 336.845C732.696 337.209 731.925 337.769 731.309 338.48C731.309 338.23 731.169 338.69 731.309 338.48C731.309 338.73 731.709 339.03 731.799 339.21C732.119 339.84 733.479 341.66 733.799 342.29" fill="url(#paint22_linear_82_2)"/>
<path d="M750 350.82C766.18 349.82 781.52 357.57 793.6 367.82C806.6 378.82 816.68 392.69 827.85 405.44C833.21 411.57 839.34 417.26 843.5 424.34C847.667 431.736 849.121 440.356 847.61 448.71C846.25 457.15 842.61 465 838.17 472.24C833.598 479.572 828.487 486.555 822.88 493.13C811.47 506.76 798.72 519.23 786.28 531.9L781.49 536.77C780.49 537.77 782.05 539.36 783.06 538.34C795.98 525.34 809.25 512.49 821.33 498.64C827.218 491.97 832.666 484.925 837.64 477.55C842.41 470.39 846.64 462.69 848.89 454.33C851.14 445.97 851.38 437.02 848.38 428.93C845.49 421.13 839.8 414.93 834.25 408.93C822.39 396.08 812.17 381.61 799.25 369.79C787.38 358.94 772.44 350.03 756 349.31C754 349.224 751.996 349.264 750 349.43C749.08 349.51 749.06 350.95 750 350.9V350.82Z" fill="url(#paint23_linear_82_2)"/>
<path d="M748.671 376.42C748.561 387.65 758.441 395.65 765.921 402.62C775.854 411.88 785.818 421.097 795.811 430.27L803.131 436.98C804.281 438.04 805.451 438.98 804.731 440.64C804.011 442.3 803.151 443.64 802.371 445.09C799.271 450.897 796.148 456.69 793.001 462.47C789.854 468.25 786.597 474.064 783.231 479.91C780.111 485.33 777.021 490.82 773.431 495.91C771.526 498.691 769.356 501.279 766.951 503.64C764.711 505.8 762.161 507.64 760.251 510.11C757.381 513.83 756.361 520.47 761.251 523.11C761.524 523.241 761.837 523.264 762.127 523.176C762.417 523.087 762.663 522.892 762.817 522.631C762.97 522.369 763.02 522.06 762.956 521.763C762.892 521.467 762.719 521.205 762.471 521.03C761.65 520.45 761.015 519.645 760.642 518.711C760.269 517.778 760.175 516.756 760.371 515.77C760.691 513.25 762.371 511.25 764.151 509.56C766.151 507.63 768.351 505.91 770.261 503.88C772.255 501.726 774.09 499.43 775.751 497.01C779.241 492.01 782.251 486.64 785.301 481.35C788.541 475.724 791.714 470.057 794.821 464.35C797.928 458.644 801.011 452.92 804.071 447.18L806.251 443.09C806.951 441.77 807.731 440.34 807.441 438.79C807.178 437.737 806.611 436.784 805.811 436.05C804.591 434.82 803.241 433.69 801.961 432.52C792.181 423.58 782.368 414.68 772.521 405.82C767.521 401.31 762.241 397 757.641 392.07C753.641 387.72 750.101 382.53 750.021 376.39C750.021 376.213 749.95 376.042 749.825 375.916C749.699 375.791 749.529 375.72 749.351 375.72C749.173 375.72 749.003 375.791 748.877 375.916C748.751 376.042 748.681 376.213 748.681 376.39L748.671 376.42Z" fill="url(#paint24_linear_82_2)"/>
<path d="M761.66 521.54C755.83 525.11 749.35 529.37 747.35 536.33C747.35 536.549 747.422 536.762 747.555 536.936C747.688 537.11 747.874 537.236 748.085 537.294C748.296 537.352 748.521 537.339 748.724 537.257C748.927 537.175 749.098 537.028 749.21 536.84C751.4 530.51 757.09 526.39 762.3 522.63C762.95 522.17 762.37 521.11 761.66 521.54Z" fill="url(#paint25_linear_82_2)"/>
<path d="M756.22 540.81C756.607 544.348 756.644 547.915 756.33 551.46C755.9 555.045 755.171 558.587 754.15 562.05C754.157 562.263 754.232 562.469 754.364 562.636C754.495 562.804 754.677 562.925 754.883 562.982C755.088 563.039 755.307 563.029 755.506 562.953C755.705 562.877 755.875 562.739 755.99 562.56C757.192 559.041 757.902 555.373 758.1 551.66C758.379 547.988 758.225 544.296 757.64 540.66C757.51 539.86 756.14 540.04 756.22 540.85V540.81Z" fill="url(#paint26_linear_82_2)"/>
<path d="M764.63 563.29C766.429 560.538 767.353 557.307 767.28 554.02C767.28 553.02 765.6 553.02 765.64 554.02C765.741 557.03 764.981 560.006 763.45 562.6C763 563.36 764.15 564.02 764.63 563.29Z" fill="url(#paint27_linear_82_2)"/>
<path d="M774.22 560.69C774.771 557.646 775.009 554.553 774.93 551.46C774.93 550.37 773.18 550.37 773.23 551.46C773.381 554.418 773.26 557.384 772.87 560.32C772.829 560.499 772.856 560.686 772.947 560.846C773.038 561.005 773.186 561.124 773.36 561.18C773.539 561.229 773.731 561.205 773.892 561.113C774.053 561.021 774.171 560.869 774.22 560.69Z" fill="url(#paint28_linear_82_2)"/>
<path d="M781.11 558.63C782.771 554.509 783.455 550.06 783.11 545.63C782.93 543.35 782.38 541.12 782.24 538.85C782.143 537.595 782.248 536.332 782.55 535.11C782.903 534.138 783.158 533.133 783.31 532.11C783.43 530.11 782.07 528.65 780.83 527.28C779.531 525.866 778.087 524.592 776.521 523.48C773.32 521.13 769.615 519.562 765.7 518.9C764.35 518.72 763.7 520.7 765.12 521.01C768.639 521.696 771.993 523.05 775 525C776.557 526.044 777.989 527.262 779.271 528.63C779.968 529.296 780.574 530.053 781.07 530.88C781.6 531.88 781.151 533.01 780.841 534.04C779.611 538.04 780.84 541.94 781.29 545.95C781.752 550.128 781.249 554.357 779.82 558.31C779.51 559.16 780.821 559.49 781.151 558.68L781.11 558.63Z" fill="url(#paint29_linear_82_2)"/>
<path d="M682.951 507.166L666.253 534.394C665.24 536.046 665.758 538.207 667.41 539.221L671.05 541.453C672.703 542.467 674.864 541.948 675.877 540.296L692.575 513.068C693.589 511.416 693.071 509.255 691.418 508.241L687.778 506.009C686.126 504.996 683.965 505.514 682.951 507.166Z" fill="url(#paint30_linear_82_2)"/>
<path d="M673.934 536.267L688.101 513.165L705.432 523.793L691.264 546.895L673.934 536.267Z" fill="url(#paint31_linear_82_2)"/>
<path d="M444.27 375L440.2 381.63C439.841 382.216 439.688 382.906 439.766 383.589C439.844 384.272 440.148 384.91 440.63 385.4L456.54 401.51C457.099 402.076 457.856 402.402 458.65 402.42L468.22 402.68C468.76 402.695 469.294 402.567 469.768 402.309C470.243 402.05 470.64 401.671 470.92 401.21L475.65 393.51C475.933 393.051 476.089 392.525 476.103 391.986C476.118 391.447 475.989 390.913 475.73 390.44L471.16 382C470.792 381.296 470.159 380.768 469.4 380.53L447.82 373.66C447.164 373.453 446.457 373.473 445.814 373.716C445.17 373.959 444.626 374.411 444.27 375Z" fill="url(#paint32_linear_82_2)"/>
<path d="M808 573.59L781 557C780.184 559.146 778.934 561.1 777.328 562.741C775.723 564.382 773.797 565.676 771.67 566.54C769.192 567.496 766.493 567.727 763.888 567.206C761.284 566.686 758.881 565.435 756.96 563.6C756.495 563.167 756.123 562.643 755.87 562.06C755.624 561.223 755.576 560.339 755.73 559.48C756.257 554.067 756.79 548.657 757.33 543.25L757.17 542.38L716.42 517.38C714.372 516.12 712.096 515.276 709.722 514.895C707.348 514.515 704.922 514.606 702.583 515.163C700.244 515.72 698.037 516.732 696.089 518.142C694.142 519.552 692.49 521.332 691.23 523.38L684.54 534.29C681.995 538.428 681.197 543.407 682.322 548.132C683.448 552.858 686.404 556.943 690.54 559.49L782.19 615.69C786.327 618.232 791.304 619.028 796.027 617.903C800.75 616.778 804.834 613.824 807.38 609.69L814.08 598.77C816.612 594.624 817.394 589.643 816.254 584.921C815.114 580.199 812.145 576.123 808 573.59Z" fill="url(#paint33_linear_82_2)"/>
<path d="M697.72 549.79L706.82 555.37L728.68 568.78L755.14 585L778.14 599.09L785.68 603.71C786.86 604.43 788.02 605.27 789.25 605.9L789.41 605.99C790.41 606.63 791.41 604.99 790.35 604.38L781.25 598.8L759.39 585.39L732.9 569.17L709.9 555.08L702.36 550.46C701.19 549.74 700.02 548.9 698.79 548.27L698.63 548.17C697.63 547.54 696.63 549.17 697.69 549.79H697.72Z" fill="url(#paint34_linear_82_2)"/>
<path d="M703.66 539.679L712.76 545.26L734.61 558.659L761.07 574.89L784 589L791.54 593.619C792.71 594.349 793.88 595.19 795.11 595.82L795.27 595.909C796.27 596.539 797.27 594.909 796.21 594.299L787.11 588.719L765.25 575.31L738.79 559.09L715.79 545L708.25 540.38C707.07 539.66 705.91 538.82 704.68 538.19L704.52 538.09C703.52 537.46 702.52 539.09 703.58 539.71L703.66 539.679Z" fill="url(#paint35_linear_82_2)"/>
<path d="M773.65 568.85L797.809 583.66L801.239 585.77C802.239 586.4 803.239 584.77 802.239 584.15L777.999 569.34L774.559 567.23C773.559 566.6 772.559 568.23 773.619 568.85H773.65Z" fill="url(#paint36_linear_82_2)"/>
<path d="M709.589 529.56L724.859 538.93L748.999 553.72L754.619 557.16C754.833 557.284 755.087 557.319 755.326 557.256C755.565 557.193 755.77 557.038 755.894 556.825C756.019 556.611 756.054 556.357 755.991 556.118C755.928 555.879 755.773 555.674 755.559 555.55L740.289 546.18L716.169 531.39L710.539 528C709.539 527.37 708.539 529 709.589 529.61V529.56Z" fill="url(#paint37_linear_82_2)"/>
<path d="M698.37 385.26C696.459 397.012 697.49 409.054 701.37 420.31C705.29 431.53 712.68 442.03 712.8 454.31C712.838 457.148 712.381 459.97 711.45 462.65C710.55 465.23 709.28 467.79 709.25 470.58C709.236 471.733 709.482 472.875 709.97 473.92C710.52 475.11 711.66 476.17 711.8 477.52C711.94 478.87 711.27 480.18 711.26 481.52C711.269 482.608 711.529 483.679 712.02 484.65C714.22 489.05 719.79 490.7 724.24 491.46C730.206 492.326 736.263 492.367 742.24 491.58C756.15 490.144 769.868 487.227 783.16 482.88C784.65 482.39 784.02 480.03 782.51 480.51C771.079 484.178 759.347 486.831 747.45 488.44C741.554 489.361 735.584 489.729 729.62 489.54C724.87 489.28 718.81 488.59 715.31 484.97C714.609 484.287 714.108 483.426 713.86 482.48C713.56 481.18 714.05 479.94 714.22 478.66C714.392 477.538 714.217 476.39 713.72 475.37C713.13 474.15 712.16 473.15 711.84 471.81C711.25 469.22 712.6 466.46 713.45 464.08C714.359 461.576 714.891 458.951 715.03 456.29C715.59 444.75 709.44 434.52 704.97 424.29C699.609 412.153 697.762 398.755 699.64 385.62C699.77 384.76 698.47 384.38 698.32 385.25L698.37 385.26Z" fill="url(#paint38_linear_82_2)"/>
<path d="M800.999 434.62C801.269 436.47 801.449 438.33 801.579 440.2C801.639 441.13 801.699 442.06 801.729 442.99C801.729 443.929 801.78 444.867 801.879 445.8C801.933 446 802.059 446.172 802.233 446.285C802.406 446.397 802.615 446.442 802.819 446.41C803.024 446.382 803.211 446.282 803.349 446.128C803.486 445.974 803.564 445.776 803.569 445.57C803.623 444.64 803.596 443.706 803.489 442.78C803.419 441.78 803.329 440.84 803.199 439.88C802.953 438 802.619 436.133 802.199 434.28C802.029 433.47 800.859 433.83 800.979 434.62H800.999Z" fill="url(#paint39_linear_82_2)"/>
<path d="M682.392 626.47L686.552 623.33C686.636 623.278 686.709 623.209 686.766 623.127C686.822 623.045 686.861 622.952 686.879 622.854C686.897 622.756 686.895 622.655 686.871 622.558C686.848 622.462 686.805 622.371 686.744 622.292C686.683 622.213 686.607 622.147 686.519 622.1C686.432 622.053 686.335 622.024 686.236 622.016C686.137 622.009 686.037 622.022 685.943 622.055C685.849 622.088 685.764 622.141 685.692 622.21L681.602 625.45C681.504 625.564 681.45 625.709 681.447 625.859C681.445 626.009 681.494 626.155 681.587 626.273C681.68 626.391 681.811 626.473 681.958 626.505C682.104 626.537 682.258 626.518 682.392 626.45V626.47Z" fill="white"/>
<path d="M588.391 770.66L594.531 770.89C596.324 770.851 598.118 770.968 599.891 771.24C600.647 771.341 601.359 771.656 601.942 772.149C602.525 772.642 602.955 773.291 603.181 774.02C603.485 775.406 603.876 776.772 604.351 778.11C605.661 780.91 608.651 781.23 611.411 781.2C613.251 781.2 615.081 781.2 616.921 781.36C617.921 781.44 618.921 781.56 619.921 781.71C620.906 781.938 621.91 782.078 622.921 782.13C623.681 782.13 624.111 780.97 623.341 780.61C621.571 779.971 619.712 779.613 617.831 779.55C615.968 779.341 614.095 779.238 612.221 779.24C610.651 779.24 608.741 779.49 607.321 778.67C605.901 777.85 605.681 776.15 605.321 774.67C604.571 771.74 602.951 769.91 599.871 769.46C598.177 769.287 596.472 769.233 594.771 769.3H588.381C588.206 769.3 588.038 769.369 587.914 769.493C587.79 769.617 587.721 769.785 587.721 769.96C587.721 770.135 587.79 770.303 587.914 770.426C588.038 770.55 588.206 770.62 588.381 770.62L588.391 770.66Z" fill="white"/>
<path d="M934.681 529.47C941.331 531.55 946.111 536.9 950.341 542.15C950.938 542.76 951.471 543.43 951.931 544.15C952.401 545.1 951.781 545.77 951.541 546.7C951.398 547.491 951.413 548.304 951.584 549.09C951.756 549.875 952.081 550.62 952.541 551.28C953.111 552.28 954.171 554.28 955.541 554.08C955.803 554.041 956.046 553.923 956.239 553.742C956.432 553.561 956.565 553.325 956.62 553.066C956.676 552.808 956.651 552.538 956.549 552.294C956.447 552.05 956.274 551.843 956.051 551.7C955.151 551.02 954.051 552.49 954.861 553.25L954.981 553.36L954.691 552.66L954.901 552.23L955.671 552.13C955.121 552 954.431 550.58 954.151 550.13C953.681 549.433 953.415 548.619 953.381 547.78C953.381 546.43 954.381 545.39 953.921 543.99C953.302 542.784 952.484 541.692 951.501 540.76C950.581 539.67 949.651 538.6 948.691 537.55C944.911 533.45 940.531 529.76 935.081 528.18C934.912 528.139 934.734 528.165 934.584 528.252C934.433 528.34 934.323 528.483 934.277 528.651C934.23 528.818 934.25 528.997 934.333 529.15C934.416 529.303 934.555 529.418 934.721 529.47H934.681Z" fill="white"/>
<path d="M851.001 583.19C851.511 588.55 852.481 593.91 853.251 599.19C853.391 600.19 854.931 599.77 854.771 598.77C853.961 593.51 853.331 588.18 852.261 582.97C852.121 582.26 850.931 582.41 851.001 583.14V583.19Z" fill="white"/>
<path d="M856.591 585.63C857.389 587.688 857.884 589.85 858.061 592.05C858.066 592.247 858.147 592.435 858.287 592.574C858.426 592.714 858.614 592.795 858.811 592.8C859.01 592.8 859.201 592.721 859.342 592.58C859.482 592.439 859.561 592.249 859.561 592.05C859.329 589.721 858.763 587.438 857.881 585.27C857.86 585.183 857.821 585.1 857.768 585.028C857.714 584.956 857.646 584.896 857.569 584.851C857.491 584.805 857.406 584.776 857.317 584.764C857.227 584.753 857.137 584.759 857.05 584.783C856.964 584.808 856.883 584.849 856.813 584.905C856.743 584.961 856.684 585.03 856.642 585.109C856.599 585.188 856.572 585.275 856.564 585.364C856.555 585.454 856.564 585.544 856.591 585.63Z" fill="white"/>
<path d="M678.581 536.89C682.431 530.83 686.011 524.6 689.381 518.27C689.801 517.48 688.591 516.78 688.191 517.57C684.891 523.95 681.281 530.16 677.431 536.22C676.971 536.94 678.121 537.61 678.581 536.89Z" fill="url(#paint40_linear_82_2)"/>
<path d="M654.661 506.69C656.176 507.727 657.933 508.355 659.762 508.513C661.591 508.671 663.43 508.353 665.101 507.59C665.876 507.244 666.603 506.797 667.261 506.26C668.261 505.45 669.001 504.52 670.381 504.39C672.654 504.275 674.91 503.923 677.111 503.34C681.491 501.98 685.451 499.6 689.341 497.22C693.231 494.84 697.341 492.31 701.201 489.59C705.487 486.63 709.413 483.18 712.901 479.31C713.901 478.23 712.271 476.64 711.321 477.73C705.431 484.42 697.971 489.32 690.451 493.97C686.794 496.407 682.949 498.547 678.951 500.37C676.891 501.242 674.726 501.837 672.511 502.14C670.511 502.39 668.791 502.28 667.171 503.68C665.551 505.08 663.951 506.35 661.631 506.68C659.462 507.027 657.24 506.614 655.341 505.51C654.581 505.06 653.971 506.18 654.661 506.67V506.69Z" fill="url(#paint41_linear_82_2)"/>
<path d="M651.189 508.91C646.619 509.91 642.129 511.07 637.489 511.77C633.229 512.41 628.489 513.23 624.169 512.33C619.849 511.43 617.639 508.24 615.569 504.73C614.376 502.73 613.226 500.68 612.119 498.58C611.119 496.58 610.009 494.58 610.779 492.35C612.359 487.66 616.009 483.92 619.169 480.28C619.346 480.104 619.445 479.865 619.445 479.615C619.445 479.366 619.346 479.127 619.169 478.95C618.993 478.774 618.754 478.675 618.504 478.675C618.255 478.675 618.016 478.774 617.839 478.95C616.049 480.532 614.445 482.314 613.059 484.26C611.611 486.143 610.333 488.151 609.239 490.26C608.694 491.235 608.365 492.315 608.275 493.428C608.185 494.542 608.337 495.661 608.719 496.71C609.691 499.041 610.852 501.288 612.189 503.43C614.299 507.18 616.519 511.53 620.569 513.51C624.779 515.58 629.759 514.9 634.239 514.31C640.155 513.653 645.965 512.252 651.529 510.14C651.694 510.095 651.834 509.987 651.918 509.838C652.002 509.69 652.025 509.515 651.979 509.35C651.934 509.186 651.826 509.046 651.678 508.962C651.53 508.877 651.354 508.855 651.189 508.9V508.91Z" fill="url(#paint42_linear_82_2)"/>
<path d="M624.69 483.49C622.518 484.927 620.787 486.938 619.69 489.3C619.622 489.396 619.575 489.505 619.552 489.62C619.529 489.735 619.53 489.854 619.554 489.968C619.579 490.083 619.627 490.192 619.696 490.287C619.765 490.382 619.853 490.462 619.954 490.521C620.055 490.581 620.167 490.619 620.284 490.633C620.4 490.647 620.519 490.637 620.631 490.603C620.743 490.569 620.848 490.512 620.937 490.436C621.026 490.359 621.099 490.266 621.15 490.16C621.397 489.605 621.681 489.067 622 488.55C622.308 488.063 622.642 487.592 623 487.14C623.758 486.194 624.605 485.323 625.53 484.54C626.1 484.04 625.36 483.08 624.71 483.49H624.69Z" fill="url(#paint43_linear_82_2)"/>
<path d="M625.08 495.15C625.425 493.953 626.032 492.847 626.857 491.913C627.682 490.98 628.704 490.241 629.85 489.75C630.62 489.41 630.07 488.07 629.27 488.38C627.914 488.943 626.709 489.814 625.751 490.926C624.792 492.037 624.107 493.357 623.75 494.78C623.701 494.957 623.724 495.145 623.814 495.305C623.904 495.464 624.053 495.581 624.23 495.63C624.406 495.679 624.595 495.656 624.754 495.566C624.914 495.476 625.031 495.327 625.08 495.15Z" fill="url(#paint44_linear_82_2)"/>
<path d="M630.139 500.35C630.799 497.871 632.275 495.687 634.329 494.15C634.526 494.026 634.667 493.832 634.725 493.607C634.782 493.382 634.752 493.143 634.639 492.94C634.52 492.738 634.327 492.591 634.1 492.532C633.874 492.472 633.632 492.503 633.429 492.62C632.229 493.519 631.21 494.639 630.429 495.92C629.658 497.169 629.123 498.548 628.849 499.99C628.803 500.166 628.827 500.354 628.917 500.513C629.006 500.671 629.154 500.789 629.329 500.84C629.417 500.864 629.509 500.871 629.6 500.859C629.69 500.848 629.777 500.818 629.857 500.773C629.936 500.727 630.005 500.666 630.06 500.594C630.116 500.521 630.156 500.438 630.179 500.35H630.139Z" fill="url(#paint45_linear_82_2)"/>
<path d="M616.69 481.78L471.27 392.6L468.18 397.6L612.67 486.2C613.856 484.594 615.203 483.113 616.69 481.78Z" fill="url(#paint46_linear_82_2)"/>
<path d="M644.999 499.16C642.389 499.71 640.339 500.71 639.999 502.44C639.96 502.631 639.94 502.825 639.939 503.02L679.389 527.21L682.479 522.21L644.999 499.16Z" fill="url(#paint47_linear_82_2)"/>
<path d="M630.871 484.84C630.041 484.73 629.981 483.58 630.341 483.04C630.971 482.318 631.828 481.831 632.771 481.66C634.927 481.011 637.186 480.77 639.431 480.95C640.376 481.002 641.292 481.295 642.092 481.801C642.892 482.307 643.549 483.009 644.001 483.84C644.386 484.689 644.648 485.588 644.781 486.51C645.035 487.417 645.116 488.363 645.021 489.3C644.97 489.544 645.005 489.798 645.121 490.018C645.237 490.239 645.426 490.412 645.656 490.508C645.886 490.604 646.142 490.617 646.38 490.544C646.618 490.471 646.824 490.318 646.961 490.11C647.811 488.93 647.321 487.2 647.081 485.88C646.874 484.501 646.391 483.178 645.661 481.99C643.961 479.45 640.971 478.59 638.051 478.76C636.403 478.871 634.769 479.139 633.171 479.56C631.857 479.825 630.627 480.409 629.591 481.26C629.142 481.642 628.809 482.143 628.632 482.706C628.456 483.268 628.441 483.87 628.591 484.44C628.715 484.94 629.007 485.382 629.419 485.692C629.83 486.001 630.336 486.16 630.851 486.14C631.023 486.14 631.189 486.071 631.311 485.95C631.432 485.828 631.501 485.662 631.501 485.49C631.501 485.318 631.432 485.152 631.311 485.03C631.189 484.908 631.023 484.84 630.851 484.84H630.871Z" fill="url(#paint48_linear_82_2)"/>
<path d="M713.73 387.69C713.73 387.69 713.73 387.69 713.73 387.64L713.81 387.83C713.806 387.79 713.806 387.75 713.81 387.71V387.92V387.78V387.99C713.805 387.937 713.805 387.883 713.81 387.83L713.73 388.02C713.753 387.968 713.78 387.918 713.81 387.87L713.69 388.04C713.736 387.98 713.79 387.926 713.85 387.88L713.68 388.01C713.751 387.954 713.828 387.907 713.91 387.87L713.711 387.96C713.784 387.93 713.861 387.909 713.94 387.9H713.711H713.92H713.68H713.831L713.62 387.81L713.841 387.94L713.66 387.8C713.724 387.853 713.782 387.913 713.831 387.98L713.69 387.79C713.772 387.897 713.84 388.015 713.89 388.14L713.8 387.91C713.856 388.049 713.896 388.193 713.92 388.34V388.09C713.941 388.26 713.941 388.431 713.92 388.6V388.34C713.903 388.48 713.869 388.618 713.82 388.75L713.92 388.52L713.8 388.73L713.95 388.53C713.912 388.578 713.869 388.622 713.82 388.66L714.021 388.51C713.967 388.549 713.91 388.583 713.85 388.61L714.091 388.51C714.023 388.539 713.953 388.56 713.88 388.57H714.14H713.86H714.12L713.87 388.5L714.11 388.6C714.032 388.566 713.958 388.523 713.89 388.47L714.091 388.63C714.032 388.582 713.979 388.528 713.93 388.47L714.091 388.68C714.031 388.599 713.981 388.512 713.94 388.42L714.04 388.66C714 388.56 713.97 388.456 713.95 388.35V388.62C713.93 388.488 713.93 388.353 713.95 388.22V388.49C713.973 388.347 714.01 388.206 714.06 388.07L713.961 388.32V388.23C714.092 387.982 714.131 387.695 714.07 387.42C713.994 387.154 713.815 386.929 713.574 386.792C713.333 386.656 713.048 386.619 712.781 386.69C712.65 386.724 712.528 386.784 712.422 386.867C712.315 386.949 712.226 387.053 712.16 387.17C712.054 387.382 711.977 387.608 711.93 387.84C711.896 388.076 711.896 388.315 711.93 388.55C711.943 388.702 711.967 388.852 712 389C712.047 389.147 712.104 389.291 712.17 389.43C712.201 389.497 712.238 389.56 712.281 389.62C712.366 389.746 712.463 389.863 712.57 389.97C712.936 390.31 713.412 390.505 713.91 390.52C714.157 390.532 714.403 390.493 714.634 390.405C714.864 390.317 715.074 390.183 715.25 390.01C715.609 389.608 715.808 389.089 715.81 388.55C715.827 388.21 715.776 387.87 715.66 387.55C715.595 387.353 715.504 387.164 715.39 386.99C715.233 386.77 715.037 386.58 714.81 386.43C714.618 386.304 714.401 386.219 714.174 386.181C713.946 386.143 713.714 386.153 713.49 386.21C713.264 386.266 713.051 386.367 712.864 386.506C712.677 386.645 712.519 386.82 712.401 387.02C712.266 387.238 712.195 387.489 712.195 387.745C712.195 388.001 712.266 388.252 712.401 388.47C712.511 388.641 712.677 388.768 712.87 388.83C712.971 388.857 713.076 388.865 713.179 388.851C713.282 388.837 713.381 388.803 713.47 388.75C713.648 388.644 713.777 388.472 713.829 388.272C713.881 388.072 713.853 387.86 713.75 387.68L713.73 387.69Z" fill="url(#paint49_linear_82_2)"/>
<path d="M717.54 405.13L717.61 405.31V405.19V405.4C717.6 405.354 717.6 405.306 717.61 405.26V405.47C717.618 405.414 717.635 405.36 717.66 405.31L717.57 405.51C717.596 405.458 717.626 405.407 717.66 405.36L717.53 405.52C717.582 405.462 717.639 405.408 717.7 405.36L717.53 405.49C717.601 405.437 717.678 405.393 717.76 405.36L717.56 405.44C717.634 405.41 717.711 405.389 717.79 405.38H717.55H717.76H717.53H717.68L717.47 405.29L717.69 405.42L717.5 405.28C717.565 405.335 717.625 405.395 717.68 405.46L717.54 405.27C717.62 405.379 717.687 405.496 717.74 405.62L717.65 405.39C717.701 405.53 717.738 405.674 717.76 405.82V405.57C717.78 405.74 717.78 405.911 717.76 406.08V405.82C717.742 405.96 717.709 406.098 717.66 406.23L717.75 406C717.718 406.074 717.678 406.145 717.63 406.21L717.79 406.01C717.752 406.058 717.708 406.102 717.66 406.14L717.86 405.99C717.807 406.029 717.75 406.062 717.69 406.09L717.93 405.99C717.86 406.021 717.786 406.041 717.71 406.05H717.98C717.888 406.07 717.793 406.07 717.7 406.05H717.96C717.874 406.038 717.79 406.014 717.71 405.98L717.95 406.08C717.872 406.05 717.798 406.01 717.73 405.96L717.93 406.11C717.867 406.067 717.813 406.013 717.77 405.95L717.92 406.16C717.861 406.079 717.81 405.992 717.77 405.9L717.88 406.15C717.837 406.048 717.806 405.94 717.79 405.83V406.1C717.78 405.967 717.78 405.833 717.79 405.7V405.97C717.813 405.827 717.85 405.686 717.9 405.55L717.8 405.8C717.797 405.77 717.797 405.74 717.8 405.71C717.932 405.465 717.967 405.18 717.9 404.91C717.87 404.775 717.811 404.648 717.728 404.537C717.646 404.425 717.541 404.332 717.421 404.264C717.3 404.195 717.167 404.152 717.029 404.138C716.891 404.123 716.752 404.138 716.62 404.18C716.488 404.211 716.365 404.27 716.258 404.352C716.151 404.435 716.063 404.54 716 404.66C715.896 404.869 715.818 405.091 715.77 405.32C715.735 405.559 715.735 405.801 715.77 406.04C715.784 406.192 715.807 406.342 715.84 406.49C715.887 406.634 715.943 406.775 716.01 406.91C716.041 406.977 716.078 407.04 716.12 407.1C716.203 407.228 716.3 407.345 716.41 407.45C716.775 407.792 717.251 407.991 717.75 408.01C717.997 408.019 718.243 407.977 718.474 407.888C718.704 407.799 718.914 407.663 719.09 407.49C719.446 407.091 719.645 406.575 719.65 406.04C719.666 405.7 719.615 405.36 719.5 405.04C719.431 404.844 719.34 404.657 719.23 404.48C719.073 404.259 718.876 404.07 718.65 403.92C718.457 403.794 718.24 403.71 718.013 403.672C717.786 403.634 717.554 403.644 717.33 403.7C717.103 403.758 716.89 403.86 716.703 404.001C716.516 404.142 716.359 404.318 716.24 404.52C716.106 404.736 716.034 404.986 716.034 405.24C716.034 405.495 716.106 405.744 716.24 405.96C716.351 406.131 716.517 406.258 716.71 406.32C716.811 406.347 716.915 406.354 717.018 406.34C717.121 406.326 717.22 406.292 717.31 406.24C717.484 406.13 717.609 405.959 717.661 405.76C717.713 405.562 717.688 405.351 717.59 405.17L717.54 405.13Z" fill="url(#paint50_linear_82_2)"/>
<path d="M721.35 422.58V422.53L721.43 422.72V422.6V422.81C721.42 422.761 721.42 422.71 721.43 422.66V422.88C721.426 422.824 721.426 422.767 721.43 422.71L721.35 422.91L721.44 422.76L721.31 422.93C721.357 422.864 721.414 422.807 721.48 422.76L721.31 422.89C721.38 422.835 721.457 422.792 721.54 422.76L721.33 422.84C721.406 422.816 721.483 422.796 721.56 422.78H721.33H721.54H721.31L721.46 422.83L721.24 422.74C721.324 422.77 721.402 422.814 721.47 422.87L721.28 422.72C721.345 422.775 721.406 422.835 721.46 422.9L721.31 422.72C721.399 422.821 721.47 422.936 721.52 423.06L721.42 422.84C721.48 422.977 721.52 423.122 721.54 423.27V423.01C721.56 423.18 721.56 423.351 721.54 423.52V423.27C721.527 423.408 721.494 423.543 721.44 423.67L721.54 423.44C721.513 423.517 721.472 423.588 721.42 423.65L721.57 423.45C721.536 423.501 721.496 423.548 721.45 423.59L721.64 423.43L721.48 423.53L721.71 423.43C721.644 423.462 721.573 423.482 721.5 423.49H721.77C721.674 423.5 721.577 423.5 721.48 423.49H721.75C721.664 423.482 721.579 423.459 721.5 423.42L721.74 423.52C721.659 423.491 721.582 423.45 721.51 423.4L721.72 423.55C721.657 423.509 721.6 423.458 721.55 423.4L721.71 423.6C721.651 423.523 721.601 423.439 721.56 423.35L721.66 423.59C721.619 423.488 721.592 423.38 721.58 423.27V423.54C721.57 423.407 721.57 423.274 721.58 423.14V423.42C721.597 423.273 721.634 423.128 721.69 422.99L721.58 423.24L721.63 423.15C721.762 422.905 721.798 422.62 721.73 422.35C721.656 422.087 721.484 421.862 721.25 421.72C721.007 421.583 720.72 421.547 720.45 421.62C720.32 421.654 720.198 421.715 720.091 421.797C719.985 421.88 719.896 421.983 719.83 422.1C719.724 422.312 719.647 422.538 719.6 422.77C719.565 423.006 719.565 423.245 719.6 423.48C719.609 423.632 719.632 423.783 719.67 423.93C719.712 424.079 719.769 424.223 719.84 424.36C719.87 424.425 719.907 424.485 719.95 424.54C720.032 424.669 720.126 424.79 720.23 424.9C720.601 425.238 721.08 425.432 721.58 425.45C721.826 425.46 722.071 425.418 722.299 425.329C722.528 425.239 722.736 425.104 722.91 424.93C723.269 424.532 723.472 424.017 723.48 423.48C723.495 423.141 723.444 422.801 723.33 422.48C723.257 422.287 723.163 422.103 723.05 421.93C722.896 421.704 722.699 421.511 722.47 421.36C722.278 421.234 722.061 421.149 721.834 421.111C721.606 421.074 721.374 421.083 721.15 421.14C720.698 421.264 720.311 421.558 720.07 421.96C719.936 422.176 719.864 422.426 719.864 422.68C719.864 422.935 719.936 423.184 720.07 423.4C720.174 423.577 720.343 423.707 720.54 423.76C720.689 423.8 720.846 423.795 720.992 423.746C721.138 423.697 721.266 423.606 721.361 423.484C721.455 423.362 721.511 423.215 721.521 423.061C721.532 422.907 721.497 422.754 721.42 422.62L721.35 422.58Z" fill="url(#paint51_linear_82_2)"/>
<path d="M725.151 440L725.231 440.19C725.222 440.151 725.222 440.11 725.231 440.07V440.28V440.14V440.35C725.241 440.295 725.258 440.241 725.281 440.19L725.201 440.38C725.223 440.326 725.254 440.276 725.291 440.23L725.161 440.4C725.209 440.339 725.263 440.282 725.321 440.23L725.151 440.36L725.381 440.23L725.181 440.32C725.255 440.291 725.332 440.271 725.411 440.26H725.181H725.391H725.151H725.311L725.091 440.17C725.169 440.204 725.243 440.248 725.311 440.3L725.131 440.16C725.196 440.215 725.256 440.275 725.311 440.34L725.161 440.15C725.24 440.257 725.31 440.371 725.371 440.49L725.271 440.27C725.331 440.407 725.371 440.552 725.391 440.7V440.45C725.416 440.619 725.416 440.791 725.391 440.96V440.7C725.373 440.837 725.339 440.971 725.291 441.1L725.391 440.87C725.363 440.946 725.322 441.017 725.271 441.08L725.421 440.89C725.383 440.938 725.339 440.982 725.291 441.02L725.491 440.86C725.444 440.903 725.39 440.936 725.331 440.96L725.561 440.86C725.494 440.889 725.423 440.91 725.351 440.92H725.611C725.518 440.93 725.424 440.93 725.331 440.92H725.601C725.515 440.911 725.431 440.891 725.351 440.86L725.591 440.96C725.511 440.923 725.434 440.879 725.361 440.83L725.561 440.99C725.503 440.942 725.449 440.888 725.401 440.83L725.561 441.03C725.502 440.953 725.451 440.869 725.411 440.78L725.511 441.02C725.47 440.917 725.44 440.81 725.421 440.7V440.98C725.401 440.844 725.401 440.706 725.421 440.57V440.85C725.439 440.705 725.48 440.563 725.541 440.43L725.431 440.67C725.435 440.64 725.435 440.61 725.431 440.58C725.505 440.464 725.555 440.334 725.576 440.198C725.598 440.062 725.591 439.923 725.556 439.789C725.521 439.656 725.459 439.531 725.374 439.423C725.289 439.315 725.182 439.225 725.061 439.16C724.942 439.087 724.81 439.04 724.672 439.021C724.535 439.002 724.395 439.012 724.261 439.05C723.996 439.122 723.77 439.294 723.631 439.53C723.528 439.743 723.454 439.968 723.411 440.2C723.376 440.436 723.376 440.675 723.411 440.91C723.428 441.062 723.455 441.212 723.491 441.36C723.533 441.509 723.59 441.653 723.661 441.79C723.688 441.853 723.721 441.914 723.761 441.97C723.844 442.101 723.941 442.221 724.051 442.33C724.422 442.667 724.9 442.862 725.401 442.88C725.645 442.889 725.889 442.848 726.118 442.761C726.346 442.673 726.555 442.54 726.731 442.37C727.09 441.969 727.289 441.449 727.291 440.91C727.317 440.57 727.265 440.228 727.141 439.91C726.997 439.446 726.697 439.047 726.291 438.78C726.097 438.656 725.88 438.573 725.653 438.535C725.427 438.497 725.194 438.506 724.971 438.56C724.516 438.684 724.126 438.977 723.881 439.38C723.749 439.599 723.679 439.85 723.679 440.105C723.679 440.361 723.749 440.612 723.881 440.83C723.986 440.999 724.15 441.124 724.341 441.18C724.441 441.209 724.545 441.218 724.648 441.206C724.751 441.194 724.851 441.161 724.941 441.11C725.116 441.002 725.243 440.831 725.296 440.631C725.348 440.432 725.321 440.22 725.221 440.04L725.151 440Z" fill="url(#paint52_linear_82_2)"/>
<path d="M729 457.46L729.08 457.65C729.076 457.61 729.076 457.57 729.08 457.53V457.74V457.6V457.81C729.074 457.757 729.074 457.704 729.08 457.65L729 457.84C729.023 457.786 729.053 457.736 729.09 457.69L728.96 457.86C729.006 457.8 729.06 457.746 729.12 457.7L728.95 457.83C729.021 457.774 729.098 457.727 729.18 457.69L728.98 457.78C729.054 457.75 729.131 457.73 729.21 457.72H728.98H729.19H728.95H729.1L728.89 457.63L729.11 457.76L728.93 457.62C728.994 457.673 729.051 457.734 729.1 457.8L728.96 457.61C729.042 457.718 729.109 457.835 729.16 457.96L729.07 457.73C729.125 457.869 729.165 458.013 729.19 458.16V457.91C729.21 458.08 729.21 458.251 729.19 458.42V458.16C729.172 458.3 729.139 458.438 729.09 458.57L729.19 458.33L729.07 458.55L729.22 458.35C729.182 458.399 729.138 458.442 729.09 458.48L729.29 458.33C729.237 458.369 729.18 458.403 729.12 458.43L729.36 458.33C729.291 458.355 729.221 458.375 729.15 458.39H729.41C729.317 458.4 729.223 458.4 729.13 458.39H729.39L729.14 458.32L729.38 458.42C729.301 458.387 729.228 458.343 729.16 458.29L729.36 458.45L729.2 458.29L729.36 458.5C729.301 458.42 729.25 458.332 729.21 458.24L729.31 458.48C729.27 458.38 729.239 458.277 729.22 458.17V458.44C729.2 458.308 729.2 458.173 729.22 458.04V458.31C729.243 458.167 729.279 458.026 729.33 457.89L729.23 458.14V458.05C729.36 457.802 729.399 457.515 729.34 457.24C729.262 456.982 729.091 456.761 728.86 456.62C728.615 456.48 728.324 456.441 728.05 456.51C727.92 456.544 727.798 456.605 727.691 456.687C727.585 456.77 727.496 456.873 727.43 456.99C727.328 457.204 727.251 457.429 727.2 457.66C727.17 457.896 727.17 458.135 727.2 458.37C727.213 458.522 727.236 458.672 727.27 458.82C727.316 458.968 727.373 459.111 727.44 459.25C727.471 459.317 727.508 459.381 727.55 459.44C727.636 459.566 727.733 459.683 727.84 459.79C728.211 460.128 728.689 460.322 729.19 460.34C729.435 460.352 729.679 460.312 729.908 460.224C730.137 460.136 730.345 460.002 730.52 459.83C730.878 459.428 731.078 458.909 731.08 458.37C731.106 457.81 730.96 457.255 730.66 456.78C730.503 456.56 730.306 456.37 730.08 456.22C729.887 456.095 729.67 456.01 729.444 455.971C729.217 455.931 728.984 455.938 728.76 455.99C728.304 456.111 727.913 456.405 727.67 456.81C727.538 457.029 727.468 457.28 727.468 457.535C727.468 457.791 727.538 458.042 727.67 458.26C727.78 458.431 727.947 458.558 728.14 458.62C728.343 458.67 728.557 458.642 728.74 458.54C728.917 458.434 729.046 458.263 729.099 458.063C729.151 457.862 729.123 457.65 729.02 457.47L729 457.46Z" fill="url(#paint53_linear_82_2)"/>
<path d="M732.77 474.9L732.85 475.08C732.846 475.04 732.846 475 732.85 474.96V475.17C732.84 475.124 732.84 475.076 732.85 475.03V475.24C732.858 475.184 732.875 475.13 732.9 475.08L732.81 475.28C732.836 475.228 732.866 475.177 732.9 475.13L732.77 475.29C732.822 475.232 732.879 475.178 732.94 475.13L732.77 475.26C732.839 475.204 732.917 475.16 733 475.13L732.8 475.21C732.874 475.18 732.951 475.159 733.03 475.15H732.8H733H732.77H732.92L732.71 475.06L732.93 475.19L732.74 475.05C732.81 475.1 732.871 475.161 732.92 475.23L732.78 475.04C732.862 475.147 732.93 475.265 732.98 475.39L732.89 475.16C732.941 475.3 732.978 475.444 733 475.59V475.34C733.02 475.51 733.02 475.681 733 475.85V475.59C732.982 475.73 732.949 475.868 732.9 476L732.99 475.77C732.958 475.844 732.918 475.915 732.87 475.98L733.03 475.78C732.992 475.828 732.949 475.872 732.9 475.91L733.1 475.76C733.047 475.799 732.99 475.832 732.93 475.86L733.17 475.76C733.103 475.789 733.033 475.809 732.96 475.82H733.22C733.128 475.84 733.033 475.84 732.94 475.82H733.2L732.95 475.75L733.19 475.85C733.11 475.82 733.035 475.776 732.97 475.72L733.17 475.88C733.112 475.832 733.059 475.778 733.01 475.72L733.16 475.93C733.101 475.849 733.051 475.762 733.01 475.67L733.12 475.92C733.077 475.818 733.046 475.71 733.03 475.6V475.87C733.01 475.738 733.01 475.603 733.03 475.47V475.74C733.053 475.597 733.09 475.456 733.14 475.32L733.04 475.57C733.037 475.54 733.037 475.51 733.04 475.48C733.172 475.232 733.208 474.943 733.14 474.67C733.108 474.536 733.049 474.41 732.966 474.3C732.883 474.19 732.778 474.098 732.658 474.03C732.538 473.963 732.405 473.921 732.267 473.907C732.13 473.893 731.992 473.908 731.86 473.95C731.729 473.981 731.605 474.04 731.498 474.122C731.391 474.205 731.303 474.31 731.24 474.43C731.136 474.639 731.058 474.861 731.01 475.09C730.976 475.326 730.976 475.565 731.01 475.8C731.024 475.955 731.047 476.108 731.08 476.26C731.128 476.404 731.185 476.544 731.25 476.68C731.281 476.747 731.318 476.81 731.36 476.87C731.443 476.998 731.54 477.115 731.65 477.22C732.016 477.56 732.491 477.759 732.99 477.78C733.237 477.787 733.483 477.744 733.713 477.655C733.943 477.566 734.153 477.431 734.33 477.26C734.686 476.861 734.885 476.345 734.89 475.81C734.906 475.47 734.855 475.13 734.74 474.81C734.675 474.613 734.584 474.424 734.47 474.25C734.313 474.029 734.116 473.84 733.89 473.69C733.697 473.564 733.48 473.48 733.253 473.442C733.026 473.404 732.794 473.414 732.57 473.47C732.115 473.586 731.723 473.877 731.48 474.28C731.346 474.498 731.275 474.749 731.275 475.005C731.275 475.261 731.346 475.512 731.48 475.73C731.591 475.901 731.757 476.028 731.95 476.09C732.051 476.117 732.155 476.124 732.258 476.11C732.361 476.096 732.46 476.062 732.55 476.01C732.724 475.901 732.849 475.729 732.901 475.53C732.953 475.332 732.928 475.121 732.83 474.94L732.77 474.9Z" fill="url(#paint54_linear_82_2)"/>
<defs>
<linearGradient id="paint0_linear_82_2" x1="676.13" y1="366.937" x2="676.13" y2="483.027" gradientUnits="userSpaceOnUse">
<stop stop-color="#144794"/>
<stop offset="1" stop-color="#06162E"/>
</linearGradient>
<linearGradient id="paint1_linear_82_2" x1="869.433" y1="503.61" x2="869.433" y2="662.252" gradientUnits="userSpaceOnUse">
<stop stop-color="#144794"/>
<stop offset="1" stop-color="#06162E"/>
</linearGradient>
<linearGradient id="paint2_linear_82_2" x1="869.633" y1="502.471" x2="869.633" y2="663.311" gradientUnits="userSpaceOnUse">
<stop stop-color="#144794"/>
<stop offset="1" stop-color="#06162E"/>
</linearGradient>
<linearGradient id="paint3_linear_82_2" x1="672.876" y1="481.89" x2="672.876" y2="802.43" gradientUnits="userSpaceOnUse">
<stop stop-color="#144794"/>
<stop offset="1" stop-color="#06162E"/>
</linearGradient>
<linearGradient id="paint4_linear_82_2" x1="439.994" y1="197.6" x2="439.994" y2="545.57" gradientUnits="userSpaceOnUse">
<stop stop-color="#144794"/>
<stop offset="1" stop-color="#06162E"/>
</linearGradient>
<linearGradient id="paint5_linear_82_2" x1="439.948" y1="195.75" x2="439.948" y2="547.43" gradientUnits="userSpaceOnUse">
<stop stop-color="#144794"/>
<stop offset="1" stop-color="#06162E"/>
</linearGradient>
<linearGradient id="paint6_linear_82_2" x1="439.871" y1="319.958" x2="439.871" y2="423.079" gradientUnits="userSpaceOnUse">
<stop stop-color="#144794"/>
<stop offset="1" stop-color="#06162E"/>
</linearGradient>
<linearGradient id="paint7_linear_82_2" x1="145.175" y1="283.32" x2="145.175" y2="523.68" gradientUnits="userSpaceOnUse">
<stop stop-color="#144794"/>
<stop offset="1" stop-color="#06162E"/>
</linearGradient>
<linearGradient id="paint8_linear_82_2" x1="145.151" y1="281.453" x2="145.151" y2="525.49" gradientUnits="userSpaceOnUse">
<stop stop-color="#144794"/>
<stop offset="1" stop-color="#06162E"/>
</linearGradient>
<linearGradient id="paint9_linear_82_2" x1="299.18" y1="506.68" x2="299.18" y2="668.889" gradientUnits="userSpaceOnUse">
<stop stop-color="#144794"/>
<stop offset="1" stop-color="#06162E"/>
</linearGradient>
<linearGradient id="paint10_linear_82_2" x1="299.2" y1="564.08" x2="299.2" y2="611.52" gradientUnits="userSpaceOnUse">
<stop stop-color="#144794"/>
<stop offset="1" stop-color="#06162E"/>
</linearGradient>
<linearGradient id="paint11_linear_82_2" x1="299.184" y1="562.249" x2="299.184" y2="613.45" gradientUnits="userSpaceOnUse">
<stop stop-color="#144794"/>
<stop offset="1" stop-color="#06162E"/>
</linearGradient>
<linearGradient id="paint12_linear_82_2" x1="691.148" y1="303.64" x2="691.148" y2="351.961" gradientUnits="userSpaceOnUse">
<stop stop-color="#144794"/>
<stop offset="1" stop-color="#06162E"/>
</linearGradient>
<linearGradient id="paint13_linear_82_2" x1="692.495" y1="316.381" x2="692.495" y2="319.153" gradientUnits="userSpaceOnUse">
<stop stop-color="#144794"/>
<stop offset="1" stop-color="#06162E"/>
</linearGradient>
<linearGradient id="paint14_linear_82_2" x1="693.09" y1="309.53" x2="693.09" y2="312.006" gradientUnits="userSpaceOnUse">
<stop stop-color="#144794"/>
<stop offset="1" stop-color="#06162E"/>
</linearGradient>
<linearGradient id="paint15_linear_82_2" x1="691.82" y1="331.48" x2="691.82" y2="333.654" gradientUnits="userSpaceOnUse">
<stop stop-color="#144794"/>
<stop offset="1" stop-color="#06162E"/>
</linearGradient>
<linearGradient id="paint16_linear_82_2" x1="714.981" y1="312.087" x2="714.981" y2="327.721" gradientUnits="userSpaceOnUse">
<stop stop-color="#144794"/>
<stop offset="1" stop-color="#06162E"/>
</linearGradient>
<linearGradient id="paint17_linear_82_2" x1="714.267" y1="318.19" x2="714.267" y2="321.341" gradientUnits="userSpaceOnUse">
<stop stop-color="#144794"/>
<stop offset="1" stop-color="#06162E"/>
</linearGradient>
<linearGradient id="paint18_linear_82_2" x1="704.472" y1="285.774" x2="704.472" y2="332.333" gradientUnits="userSpaceOnUse">
<stop stop-color="#144794"/>
<stop offset="1" stop-color="#06162E"/>
</linearGradient>
<linearGradient id="paint19_linear_82_2" x1="704.512" y1="284.737" x2="704.512" y2="333.395" gradientUnits="userSpaceOnUse">
<stop stop-color="#144794"/>
<stop offset="1" stop-color="#06162E"/>
</linearGradient>
<linearGradient id="paint20_linear_82_2" x1="707.707" y1="350.209" x2="707.707" y2="365.618" gradientUnits="userSpaceOnUse">
<stop stop-color="#144794"/>
<stop offset="1" stop-color="#06162E"/>
</linearGradient>
<linearGradient id="paint21_linear_82_2" x1="728.75" y1="329.368" x2="728.75" y2="343.17" gradientUnits="userSpaceOnUse">
<stop stop-color="#144794"/>
<stop offset="1" stop-color="#06162E"/>
</linearGradient>
<linearGradient id="paint22_linear_82_2" x1="726.223" y1="336.368" x2="726.223" y2="379.487" gradientUnits="userSpaceOnUse">
<stop stop-color="#144794"/>
<stop offset="1" stop-color="#06162E"/>
</linearGradient>
<linearGradient id="paint23_linear_82_2" x1="799.954" y1="349.266" x2="799.954" y2="538.668" gradientUnits="userSpaceOnUse">
<stop stop-color="#144794"/>
<stop offset="1" stop-color="#06162E"/>
</linearGradient>
<linearGradient id="paint24_linear_82_2" x1="778.086" y1="375.72" x2="778.086" y2="523.229" gradientUnits="userSpaceOnUse">
<stop stop-color="#144794"/>
<stop offset="1" stop-color="#06162E"/>
</linearGradient>
<linearGradient id="paint25_linear_82_2" x1="754.966" y1="521.439" x2="754.966" y2="537.33" gradientUnits="userSpaceOnUse">
<stop stop-color="#144794"/>
<stop offset="1" stop-color="#06162E"/>
</linearGradient>
<linearGradient id="paint26_linear_82_2" x1="756.193" y1="540.144" x2="756.193" y2="563.018" gradientUnits="userSpaceOnUse">
<stop stop-color="#144794"/>
<stop offset="1" stop-color="#06162E"/>
</linearGradient>
<linearGradient id="paint27_linear_82_2" x1="765.316" y1="553.27" x2="765.316" y2="563.607" gradientUnits="userSpaceOnUse">
<stop stop-color="#144794"/>
<stop offset="1" stop-color="#06162E"/>
</linearGradient>
<linearGradient id="paint28_linear_82_2" x1="773.898" y1="550.643" x2="773.898" y2="561.205" gradientUnits="userSpaceOnUse">
<stop stop-color="#144794"/>
<stop offset="1" stop-color="#06162E"/>
</linearGradient>
<linearGradient id="paint29_linear_82_2" x1="773.82" y1="518.889" x2="773.82" y2="559.145" gradientUnits="userSpaceOnUse">
<stop stop-color="#144794"/>
<stop offset="1" stop-color="#06162E"/>
</linearGradient>
<linearGradient id="paint30_linear_82_2" x1="674.602" y1="520.78" x2="684.226" y2="526.682" gradientUnits="userSpaceOnUse">
<stop stop-color="#144794"/>
<stop offset="1" stop-color="#06162E"/>
</linearGradient>
<linearGradient id="paint31_linear_82_2" x1="681.017" y1="524.716" x2="698.348" y2="535.344" gradientUnits="userSpaceOnUse">
<stop stop-color="#144794"/>
<stop offset="1" stop-color="#06162E"/>
</linearGradient>
<linearGradient id="paint32_linear_82_2" x1="457.925" y1="373.518" x2="457.925" y2="402.681" gradientUnits="userSpaceOnUse">
<stop stop-color="#144794"/>
<stop offset="1" stop-color="#06162E"/>
</linearGradient>
<linearGradient id="paint33_linear_82_2" x1="749.295" y1="514.665" x2="749.295" y2="618.402" gradientUnits="userSpaceOnUse">
<stop stop-color="#144794"/>
<stop offset="1" stop-color="#06162E"/>
</linearGradient>
<linearGradient id="paint34_linear_82_2" x1="744.02" y1="548.027" x2="744.02" y2="606.135" gradientUnits="userSpaceOnUse">
<stop stop-color="#144794"/>
<stop offset="1" stop-color="#06162E"/>
</linearGradient>
<linearGradient id="paint35_linear_82_2" x1="749.895" y1="537.947" x2="749.895" y2="596.052" gradientUnits="userSpaceOnUse">
<stop stop-color="#144794"/>
<stop offset="1" stop-color="#06162E"/>
</linearGradient>
<linearGradient id="paint36_linear_82_2" x1="787.91" y1="567.087" x2="787.91" y2="585.912" gradientUnits="userSpaceOnUse">
<stop stop-color="#144794"/>
<stop offset="1" stop-color="#06162E"/>
</linearGradient>
<linearGradient id="paint37_linear_82_2" x1="732.582" y1="527.857" x2="732.582" y2="557.287" gradientUnits="userSpaceOnUse">
<stop stop-color="#144794"/>
<stop offset="1" stop-color="#06162E"/>
</linearGradient>
<linearGradient id="paint38_linear_82_2" x1="740.723" y1="384.757" x2="740.723" y2="492.141" gradientUnits="userSpaceOnUse">
<stop stop-color="#144794"/>
<stop offset="1" stop-color="#06162E"/>
</linearGradient>
<linearGradient id="paint39_linear_82_2" x1="802.283" y1="433.822" x2="802.283" y2="446.42" gradientUnits="userSpaceOnUse">
<stop stop-color="#144794"/>
<stop offset="1" stop-color="#06162E"/>
</linearGradient>
<linearGradient id="paint40_linear_82_2" x1="683.396" y1="517.223" x2="683.396" y2="537.199" gradientUnits="userSpaceOnUse">
<stop stop-color="#144794"/>
<stop offset="1" stop-color="#06162E"/>
</linearGradient>
<linearGradient id="paint41_linear_82_2" x1="683.787" y1="477.364" x2="683.787" y2="508.552" gradientUnits="userSpaceOnUse">
<stop stop-color="#144794"/>
<stop offset="1" stop-color="#06162E"/>
</linearGradient>
<linearGradient id="paint42_linear_82_2" x1="630.126" y1="478.675" x2="630.126" y2="514.908" gradientUnits="userSpaceOnUse">
<stop stop-color="#144794"/>
<stop offset="1" stop-color="#06162E"/>
</linearGradient>
<linearGradient id="paint43_linear_82_2" x1="622.634" y1="483.391" x2="622.634" y2="490.639" gradientUnits="userSpaceOnUse">
<stop stop-color="#144794"/>
<stop offset="1" stop-color="#06162E"/>
</linearGradient>
<linearGradient id="paint44_linear_82_2" x1="626.972" y1="488.334" x2="626.972" y2="495.655" gradientUnits="userSpaceOnUse">
<stop stop-color="#144794"/>
<stop offset="1" stop-color="#06162E"/>
</linearGradient>
<linearGradient id="paint45_linear_82_2" x1="631.79" y1="492.502" x2="631.79" y2="500.865" gradientUnits="userSpaceOnUse">
<stop stop-color="#144794"/>
<stop offset="1" stop-color="#06162E"/>
</linearGradient>
<linearGradient id="paint46_linear_82_2" x1="542.435" y1="392.6" x2="542.435" y2="486.2" gradientUnits="userSpaceOnUse">
<stop stop-color="#144794"/>
<stop offset="1" stop-color="#06162E"/>
</linearGradient>
<linearGradient id="paint47_linear_82_2" x1="661.209" y1="499.16" x2="661.209" y2="527.21" gradientUnits="userSpaceOnUse">
<stop stop-color="#144794"/>
<stop offset="1" stop-color="#06162E"/>
</linearGradient>
<linearGradient id="paint48_linear_82_2" x1="637.964" y1="478.739" x2="637.964" y2="490.59" gradientUnits="userSpaceOnUse">
<stop stop-color="#144794"/>
<stop offset="1" stop-color="#06162E"/>
</linearGradient>
<linearGradient id="paint49_linear_82_2" x1="713.859" y1="386.159" x2="713.859" y2="390.522" gradientUnits="userSpaceOnUse">
<stop stop-color="#144794"/>
<stop offset="1" stop-color="#06162E"/>
</linearGradient>
<linearGradient id="paint50_linear_82_2" x1="717.699" y1="403.649" x2="717.699" y2="408.011" gradientUnits="userSpaceOnUse">
<stop stop-color="#144794"/>
<stop offset="1" stop-color="#06162E"/>
</linearGradient>
<linearGradient id="paint51_linear_82_2" x1="721.529" y1="421.089" x2="721.529" y2="425.452" gradientUnits="userSpaceOnUse">
<stop stop-color="#144794"/>
<stop offset="1" stop-color="#06162E"/>
</linearGradient>
<linearGradient id="paint52_linear_82_2" x1="725.341" y1="438.512" x2="725.341" y2="442.881" gradientUnits="userSpaceOnUse">
<stop stop-color="#144794"/>
<stop offset="1" stop-color="#06162E"/>
</linearGradient>
<linearGradient id="paint53_linear_82_2" x1="729.13" y1="455.945" x2="729.13" y2="460.342" gradientUnits="userSpaceOnUse">
<stop stop-color="#144794"/>
<stop offset="1" stop-color="#06162E"/>
</linearGradient>
<linearGradient id="paint54_linear_82_2" x1="732.939" y1="473.419" x2="732.939" y2="477.781" gradientUnits="userSpaceOnUse">
<stop stop-color="#144794"/>
<stop offset="1" stop-color="#06162E"/>
</linearGradient>
</defs>
</svg>
