<svg width="1000" height="1000" viewBox="0 0 1000 1000" fill="none" xmlns="http://www.w3.org/2000/svg">
<path d="M292.1 367C304.29 369.59 308.42 383.58 311.21 394C312.908 400.412 314.134 406.939 314.88 413.53C315.62 419.96 315.72 426.41 316.06 432.86C316.43 439.91 317.24 446.99 320 453.55C320.063 453.787 320.048 454.038 319.956 454.265C319.864 454.492 319.7 454.684 319.49 454.81C318.944 455.196 318.283 455.384 317.616 455.344C316.949 455.304 316.316 455.038 315.82 454.59C314.75 453.59 314.82 451.98 316.45 451.59C318.08 451.2 319.73 452.74 320.96 453.59C322.72 454.817 324.457 456.083 326.17 457.39C332.33 462.08 338.17 467.22 344.17 472.1C347.97 475.17 351.87 478.1 355.91 480.84C357.12 481.66 355.97 483.64 354.76 482.84C348.177 478.246 341.835 473.316 335.76 468.07C332.84 465.61 329.91 463.15 326.91 460.8C325.23 459.467 323.52 458.173 321.78 456.92C320.88 456.27 319.98 455.63 319.06 455C318.66 454.72 318.27 454.42 317.85 454.17C317.43 453.92 316.98 453.9 317.15 453.66V452.53C317.181 452.658 317.246 452.775 317.337 452.869C317.429 452.963 317.545 453.03 317.672 453.064C317.799 453.098 317.933 453.096 318.059 453.061C318.185 453.025 318.3 452.955 318.39 452.86L317.88 454.12C313.13 442.79 314.15 430.25 313.2 418.27C312.699 411.846 311.74 405.467 310.33 399.18C309.116 393.052 307.307 387.057 304.93 381.28C302.36 375.48 298.15 370 291.79 368.2C291.625 368.155 291.486 368.046 291.401 367.898C291.317 367.75 291.295 367.574 291.34 367.41C291.385 367.245 291.494 367.106 291.642 367.021C291.79 366.937 291.966 366.915 292.13 366.96L292.1 367Z" fill="url(#paint0_linear_82_2)"/>
<path d="M236.12 569.49C228.202 590.752 217.907 611.05 205.43 630C195.01 645.83 180.43 662.06 161.49 662.25C148.1 662.39 136.12 654.33 125.65 645.99C96.8883 623.061 71.9947 595.662 51.9201 564.84C46.6601 556.74 40.4701 547.57 30.9201 546.35C29.5665 546.314 28.2324 546.019 26.9901 545.48C22.9901 543.18 25.7801 537.06 28.9901 533.8C33.3447 529.396 37.9848 525.284 42.8801 521.49C45.0501 519.81 47.3901 518.14 50.1101 517.78C56.6001 516.9 61.3801 523.34 65.4201 528.49C86.4901 555.38 123.9 563.05 150.24 584.8C154.24 555.8 168.39 529.37 182.24 503.61L209 530.12C212.26 533.36 220.23 537.9 217.67 541.72C213.47 547.99 216.61 553.06 218.22 558.54C219.83 564.02 222.43 571.01 228.29 570.84" fill="url(#paint1_linear_82_2)"/>
<path d="M236.78 569.68C230.698 586.373 223.107 602.476 214.1 617.79C206.27 631.15 197.61 644.99 185.1 654.49C179.525 658.934 172.898 661.866 165.86 663C158.05 664.08 150.33 662.26 143.28 658.9C135.78 655.32 129.14 650.2 122.71 645C116.28 639.8 109.83 634.16 103.71 628.4C91.3877 616.794 79.9399 604.293 69.4597 591C64.2663 584.44 59.323 577.7 54.6296 570.78C50.4596 564.62 46.7496 557.84 41.2496 552.72C38.7801 550.293 35.7243 548.546 32.3796 547.65C29.2896 546.91 25.2996 547.29 24.1796 543.53C23.3296 540.66 24.8796 537.42 26.5096 535.14C28.8496 531.87 32.1796 529.14 35.1696 526.5C38.2833 523.545 41.6494 520.868 45.2296 518.5C46.6771 517.53 48.337 516.922 50.069 516.729C51.8009 516.536 53.5539 516.762 55.1796 517.39C58.4196 518.72 60.9496 521.31 63.1796 523.94C65.4096 526.57 67.5696 529.54 69.9996 532.16C79.6896 542.65 92.0996 550.01 104.6 556.62C117.42 563.41 130.66 569.52 142.67 577.71C145.55 579.71 148.34 581.71 151.03 583.98L149.19 584.47C152.4 561.74 161.74 540.47 172.19 520.26C175.19 514.48 178.25 508.74 181.33 503.01C181.417 502.866 181.536 502.743 181.677 502.652C181.819 502.56 181.979 502.501 182.147 502.48C182.314 502.459 182.484 502.476 182.644 502.529C182.803 502.583 182.949 502.672 183.07 502.79L198.93 518.48C203.51 523.02 207.93 527.88 212.93 531.94C215.56 534.05 220.93 537.79 218.93 541.83C218.211 543.004 217.605 544.242 217.12 545.53C216.712 547.015 216.637 548.572 216.9 550.09C217.33 552.76 218.46 555.27 219.25 557.85C220.6 562.28 222.52 569.76 228.36 569.7C228.632 569.726 228.885 569.853 229.069 570.055C229.253 570.258 229.355 570.521 229.355 570.795C229.355 571.069 229.253 571.332 229.069 571.535C228.885 571.737 228.632 571.864 228.36 571.89C223.23 571.89 220.36 567.44 218.71 563.18C217.71 560.71 217.05 558.12 216.18 555.61C215.31 553.1 214.38 550.28 214.56 547.49C214.637 546.113 214.952 544.76 215.49 543.49C215.872 542.665 216.303 541.864 216.78 541.09C217.006 540.761 217.124 540.369 217.12 539.97C217.05 538.03 214.71 536.27 213.38 535.13C211.57 533.57 209.63 532.13 207.93 530.49C205.22 527.82 202.53 525.14 199.83 522.49L181.51 504.36L183.25 504.13C172.48 524.13 161.6 544.39 155.35 566.36C153.587 572.49 152.251 578.735 151.35 585.05C151.22 585.96 150.06 586 149.5 585.54C138.66 576.62 126.09 570.15 113.66 563.78C101.23 557.41 88.9496 551.18 78.0996 542.55C72.7809 538.302 67.9812 533.441 63.7996 528.07C61.6596 525.33 59.4196 522.42 56.4996 520.47C55.0826 519.444 53.3927 518.862 51.6443 518.798C49.896 518.734 48.168 519.19 46.6796 520.11C43.0596 522.2 39.8096 525.2 36.6796 527.96C35.0463 529.387 33.4563 530.857 31.9096 532.37C30.5215 533.599 29.2618 534.966 28.1497 536.45C26.8197 538.39 24.6196 542.55 27.2596 544.38C28.7396 545.38 30.8996 545.17 32.6096 545.54C34.1779 545.888 35.6941 546.439 37.1196 547.18C43.1196 550.24 47.3597 556.03 51.0297 561.51C55.4797 568.16 59.8796 574.82 64.6396 581.25C74.402 594.413 85.0961 606.858 96.6396 618.49C102.36 624.257 108.28 629.817 114.4 635.17C120.461 640.596 126.803 645.7 133.4 650.46C139.91 655.04 147.07 659.07 154.97 660.59C162.106 661.898 169.474 660.892 176 657.72C189.25 651.36 198.58 638.88 206.36 626.84C215.747 612.334 223.864 597.043 230.62 581.14C232.28 577.22 233.91 573.29 235.43 569.31C235.74 568.5 237.05 568.84 236.75 569.68H236.78Z" fill="url(#paint2_linear_82_2)"/>
<path d="M257.24 490.25C263.89 490.96 270.72 491.31 277.24 489.85C282.94 500.14 291.81 508.56 300.62 516.5C332.32 545.07 367.06 573.05 383.9 612.26C390.14 626.77 393.64 642.26 397.11 657.68C404.48 690.42 406.33 735.04 413.7 767.78C416.77 781.38 424.55 786.98 434.77 794.78C435.425 795.274 435.919 795.95 436.191 796.724C436.463 797.497 436.502 798.334 436.301 799.129C436.1 799.924 435.67 800.642 435.063 801.194C434.456 801.745 433.701 802.106 432.89 802.23C431.496 802.392 430.093 802.456 428.69 802.42L407.21 802.14C400.46 802.06 388.06 802.24 381.49 802.35C379.987 802.385 378.523 801.873 377.37 800.909C376.216 799.945 375.452 798.595 375.22 797.11C374.08 789.31 376.63 777.45 375.9 771.42C373.9 754.71 364.58 739.92 356.36 725.23C339.533 695.184 326.322 663.252 317 630.1C316.26 627.45 315.51 624.73 313.86 622.54C312.04 620.12 309.32 618.54 306.68 617.12L256.32 589.12C253.52 587.56 250.64 585.94 248.74 583.37C246.84 580.8 246.12 577.59 245.44 574.47C243.23 564.21 241.23 552.6 247.84 544.13C249.114 542.56 250.068 540.756 250.65 538.82C251.39 536.09 251.31 535.51 250.02 532.91C249.15 531.16 239.02 523.83 238.12 522.1C236.83 519.63 243.74 521.55 240.66 514.67C236.66 505.79 227.53 504.32 218.56 485.96C218.013 484.676 217.763 483.285 217.83 481.89C230.649 486.006 243.854 488.807 257.24 490.25Z" fill="url(#paint3_linear_82_2)"/>
<path d="M424.46 371.58C424.457 360.417 425.831 349.297 428.55 338.47L394.37 310.59L424.37 258.59L465.66 274.26C481.737 258.649 501.44 247.275 523 241.16L530 197.6L590 197.6L597.07 241.16C618.609 247.287 638.293 258.66 654.36 274.26L695.64 258.59L725.64 310.59L691.47 338.47C696.924 360.203 696.924 382.947 691.47 404.68L725.64 432.57L695.64 484.57L654.36 468.89C638.314 484.484 618.655 495.86 597.14 502L590.07 545.57H530.07L523 502C501.458 495.878 481.773 484.504 465.71 468.9L424.42 484.58L394.42 432.58L428.6 404.69C425.863 393.866 424.473 382.745 424.46 371.58Z" fill="url(#paint4_linear_82_2)"/>
<path d="M422.59 371.58C422.616 360.26 424.009 348.985 426.74 338L427.22 339.82L397.28 315.39L393.05 311.94C392.758 311.647 392.571 311.266 392.517 310.856C392.463 310.446 392.544 310.029 392.75 309.67L402.89 292.12L419.05 264.12L422.77 257.67C422.982 257.316 423.303 257.04 423.686 256.885C424.068 256.73 424.491 256.704 424.89 256.81L461.06 270.55L466.18 272.49L464.35 272.97C480.683 257.189 500.64 245.659 522.47 239.39L521.16 240.69L527.35 202.52L528.22 197.13C528.33 196.735 528.567 196.386 528.894 196.137C529.22 195.888 529.619 195.752 530.03 195.75L590.03 195.75C590.44 195.754 590.838 195.89 591.164 196.139C591.49 196.388 591.727 196.735 591.84 197.13L598.03 235.3L598.9 240.69L597.59 239.39C619.421 245.654 639.379 257.186 655.71 272.97L653.89 272.49L690.1 258.72L695.21 256.78C695.608 256.67 696.032 256.695 696.416 256.85C696.799 257.006 697.12 257.283 697.33 257.64L707.46 275.2L723.63 303.2L727.35 309.64C727.555 309.999 727.637 310.414 727.585 310.824C727.532 311.233 727.348 311.615 727.06 311.91L697.11 336.34L692.88 339.79L693.36 337.97C698.84 360.038 698.84 383.112 693.36 405.18L692.88 403.36L722.83 427.79L727.06 431.24C727.35 431.535 727.535 431.916 727.587 432.326C727.64 432.736 727.556 433.152 727.35 433.51L717.21 451.07L701.05 479.07L697.33 485.51C697.119 485.865 696.797 486.142 696.415 486.297C696.032 486.453 695.608 486.478 695.21 486.37L659 472.64L653.89 470.7L655.71 470.22C639.376 486.001 619.419 497.531 597.59 503.8L598.9 502.49L592.71 540.66L591.84 546.06C591.727 546.454 591.49 546.8 591.163 547.047C590.837 547.294 590.439 547.428 590.03 547.43H530.03C529.621 547.427 529.224 547.292 528.898 547.045C528.572 546.798 528.334 546.453 528.22 546.06L522 507.88L521.12 502.49L522.43 503.8C500.6 497.531 480.643 486.001 464.31 470.22L466.14 470.7L430 484.43L424.89 486.37C424.491 486.478 424.068 486.453 423.685 486.297C423.302 486.142 422.98 485.865 422.77 485.51L412.64 468L396.47 440L392.75 433.55C392.544 433.191 392.463 432.774 392.517 432.364C392.571 431.954 392.758 431.573 393.05 431.28L423 406.81L427.23 403.36L426.75 405.18C424.017 394.188 422.623 382.906 422.6 371.58C422.6 371.084 422.797 370.608 423.147 370.258C423.498 369.907 423.974 369.71 424.47 369.71C424.966 369.71 425.441 369.907 425.792 370.258C426.143 370.608 426.34 371.084 426.34 371.58C426.359 382.571 427.702 393.52 430.34 404.19C430.43 404.509 430.433 404.845 430.348 405.166C430.264 405.486 430.095 405.777 429.86 406.01L399.86 430.44L395.63 433.89L395.92 431.62L406.06 449.18L422.22 477.18L426 483.62L423.88 482.76L460.07 469L465.18 467.06C465.498 466.969 465.835 466.965 466.156 467.05C466.476 467.134 466.768 467.304 467 467.54C482.867 482.87 502.254 494.071 523.46 500.16C523.775 500.242 524.062 500.407 524.293 500.637C524.523 500.867 524.688 501.155 524.77 501.47L531 539.67L531.87 545.06L530.07 543.69H590.07L588.27 545.06L594.46 506.89L595.33 501.5C595.412 501.185 595.576 500.897 595.807 500.667C596.037 500.437 596.325 500.272 596.64 500.19C617.846 494.101 637.233 482.9 653.1 467.57C653.332 467.334 653.623 467.164 653.944 467.08C654.264 466.995 654.601 466.999 654.92 467.09L691.1 480.82L696.21 482.76L694.1 483.62L704.23 466.07L720.4 438.07L724.12 431.62L724.41 433.89L694.41 409.46L690.18 406.01C689.944 405.777 689.775 405.486 689.691 405.166C689.607 404.845 689.61 404.509 689.7 404.19C695.02 382.775 695.02 360.385 689.7 338.97C689.61 338.651 689.607 338.315 689.691 337.994C689.775 337.674 689.944 337.383 690.18 337.15L720.13 312.72L724.36 309.26L724.07 311.53L714 294L697.84 266L694.12 259.55L696.23 260.41L660 274.13L654.89 276.07C654.571 276.158 654.235 276.16 653.915 276.076C653.595 275.991 653.304 275.824 653.07 275.59C637.21 260.273 617.833 249.082 596.64 243C596.325 242.92 596.038 242.757 595.808 242.528C595.577 242.3 595.412 242.014 595.33 241.7L589.14 203.53L588.27 198.13L590.07 199.51L530.07 199.51L531.87 198.13L525.69 236.3L524.81 241.7C524.727 242.014 524.562 242.3 524.332 242.528C524.101 242.757 523.814 242.92 523.5 243C502.281 249.071 482.879 260.263 467 275.59C466.766 275.825 466.475 275.993 466.155 276.077C465.835 276.162 465.498 276.159 465.18 276.07L429 262.33L423.89 260.39L426.01 259.53L415.87 277.09L399.71 305.09L395.98 311.54L395.69 309.27L425.64 333.7L429.87 337.15C430.105 337.383 430.274 337.674 430.358 337.994C430.443 338.315 430.44 338.651 430.35 338.97C427.711 349.64 426.368 360.589 426.35 371.58C426.32 374 422.58 374 422.59 371.58Z" fill="url(#paint5_linear_82_2)"/>
<path d="M560.05 421.19C532.651 421.19 510.44 398.979 510.44 371.58C510.44 344.181 532.651 321.97 560.05 321.97C587.449 321.97 609.66 344.181 609.66 371.58C609.66 398.979 587.449 421.19 560.05 421.19Z" fill="white"/>
<path d="M512.32 371.58C512.365 383.865 517.163 395.655 525.71 404.48C534.256 413.305 545.886 418.479 558.163 418.917C570.44 419.356 582.41 415.025 591.564 406.832C600.718 398.639 606.345 387.221 607.266 374.971C608.187 362.721 604.33 350.59 596.504 341.121C588.677 331.651 577.489 325.58 565.285 324.178C553.08 322.776 540.807 326.153 531.037 333.601C521.268 341.049 514.761 351.99 512.88 364.13C512.504 366.595 512.317 369.086 512.32 371.58C512.286 372.054 512.073 372.497 511.725 372.82C511.378 373.143 510.92 373.323 510.445 373.323C509.97 373.323 509.513 373.143 509.165 372.82C508.818 372.497 508.605 372.054 508.57 371.58C508.554 358.257 513.696 345.446 522.917 335.83C532.139 326.215 544.724 320.542 558.036 320.001C571.347 319.46 584.352 324.092 594.323 332.927C604.295 341.763 610.459 354.114 611.525 367.394C612.591 380.674 608.475 393.851 600.04 404.163C591.605 414.475 579.505 421.122 566.278 422.711C553.05 424.299 539.721 420.706 529.085 412.684C518.448 404.662 511.329 392.835 509.22 379.68C508.804 377 508.587 374.292 508.57 371.58C508.605 371.106 508.818 370.663 509.165 370.34C509.513 370.017 509.97 369.837 510.445 369.837C510.92 369.837 511.378 370.017 511.725 370.34C512.073 370.663 512.286 371.106 512.32 371.58Z" fill="url(#paint6_linear_82_2)"/>
<path d="M789.33 338C794.734 332.614 800.779 327.912 807.33 324L804.33 294L843.9 283.32L856.27 310.85C871.573 311.074 886.581 315.091 899.95 322.54L924.41 304.9L953.41 333.9L935.77 358.36C943.218 371.729 947.234 386.737 947.46 402.04L975 414.43L964.38 454.06L934.38 451.06C926.511 464.199 915.519 475.191 902.38 483.06L905.38 513.06L865.75 523.68L853.37 496.16C838.067 495.935 823.059 491.919 809.69 484.47L785.23 502.11L756.23 473.11L773.86 448.65C766.413 435.28 762.399 420.272 762.18 404.97L734.65 392.6L745.27 352.97L775.27 355.97C779.2 349.425 783.923 343.389 789.33 338Z" fill="url(#paint7_linear_82_2)"/>
<path d="M788 336.63C793.518 331.138 799.68 326.334 806.35 322.32L805.42 323.93L802.76 297.69L802.38 293.94C802.383 293.531 802.519 293.133 802.768 292.808C803.017 292.483 803.366 292.249 803.76 292.14L838.53 282.82L843.39 281.52C843.788 281.411 844.21 281.436 844.592 281.591C844.973 281.747 845.293 282.024 845.5 282.38L856.36 306.5L857.89 309.9L856.27 308.98C871.897 309.249 887.218 313.349 900.89 320.92H899L920.41 305.49L923.47 303.28C923.828 303.073 924.244 302.99 924.654 303.042C925.064 303.095 925.446 303.28 925.74 303.57L951.2 329L954.75 332.56C955.04 332.855 955.226 333.236 955.278 333.646C955.33 334.056 955.247 334.472 955.04 334.83L939.61 356.23L937.4 359.29V357.4C944.99 371.068 949.111 386.389 949.4 402.02L948.47 400.41L972.54 411.28L975.94 412.81C976.296 413.021 976.572 413.342 976.728 413.725C976.883 414.108 976.908 414.531 976.8 414.93L967.49 449.7L966.19 454.56C966.078 454.953 965.84 455.3 965.514 455.547C965.188 455.794 964.79 455.928 964.38 455.93L938.14 453.27L934.39 452.89L936 452C927.932 465.387 916.718 476.602 903.33 484.67L904.27 483L906.93 509.25L907.31 513C907.309 513.409 907.174 513.807 906.927 514.134C906.68 514.46 906.334 514.697 905.94 514.81L871.16 524.13L866.3 525.43C865.903 525.532 865.483 525.504 865.103 525.349C864.723 525.194 864.403 524.921 864.19 524.57L853.34 500.45L851.81 497.04L853.43 497.97C837.802 497.687 822.482 493.577 808.81 486H810.7L789.29 501.43L786.23 503.63C785.875 503.839 785.46 503.924 785.051 503.872C784.642 503.819 784.262 503.632 783.97 503.34L758.51 477.88L754.95 474.33C754.66 474.035 754.475 473.654 754.423 473.244C754.37 472.834 754.454 472.418 754.66 472.06L770.09 450.65L772.3 447.6V449.49C764.726 435.815 760.626 420.49 760.36 404.86L761.28 406.48L737.16 395.64L733.76 394.1C733.405 393.892 733.127 393.573 732.972 393.191C732.816 392.809 732.791 392.387 732.9 391.99L742.22 357.21L743.52 352.36C743.629 351.965 743.864 351.617 744.189 351.368C744.514 351.119 744.911 350.983 745.32 350.98L771.56 353.65L775.31 354.03L773.69 354.95C777.71 348.292 782.514 342.142 788 336.63C789.7 334.92 792.35 337.57 790.65 339.28C785.377 344.564 780.766 350.471 776.92 356.87C776.755 357.153 776.518 357.387 776.234 357.55C775.95 357.713 775.628 357.8 775.3 357.8L749.06 355.14L745.31 354.76L747.12 353.38L737.8 388.16L736.5 393.02L735.64 390.9L759.76 401.75L763.16 403.28C763.444 403.442 763.68 403.676 763.844 403.959C764.007 404.242 764.092 404.563 764.09 404.89C764.347 419.857 768.271 434.533 775.52 447.63C775.689 447.916 775.778 448.243 775.778 448.575C775.778 448.907 775.689 449.234 775.52 449.52L760.09 470.92L757.88 473.98L757.59 471.71L783.05 497.17L786.6 500.72L784.34 500.43L805.75 485L808.81 482.79C809.097 482.623 809.423 482.535 809.755 482.535C810.087 482.535 810.413 482.623 810.7 482.79C823.794 490.041 838.466 493.969 853.43 494.23C853.758 494.226 854.08 494.309 854.365 494.471C854.649 494.633 854.886 494.867 855.05 495.15L865.89 519.27L867.42 522.68L865.31 521.82L900.09 512.5L904.94 511.2L903.57 513L900.91 486.76L900.53 483.01C900.525 482.684 900.608 482.362 900.77 482.079C900.932 481.796 901.167 481.561 901.45 481.4C914.29 473.665 925.045 462.91 932.78 450.07C932.942 449.786 933.176 449.551 933.459 449.39C933.743 449.228 934.064 449.145 934.39 449.15L960.63 451.81L964.38 452.19L962.58 453.56L971.89 418.78L973.2 413.93L974.06 416L949.94 405.2L946.53 403.67C946.246 403.506 946.011 403.27 945.847 402.985C945.684 402.701 945.599 402.378 945.6 402.05C945.348 387.085 941.423 372.412 934.17 359.32C934.002 359.034 933.912 358.707 933.912 358.375C933.912 358.043 934.002 357.716 934.17 357.43L949.61 336L951.81 333L952.1 335.27L926.64 309.81L923.09 306.25L925.36 306.54L903.95 322L900.89 324.2C900.604 324.37 900.278 324.459 899.945 324.459C899.613 324.459 899.286 324.37 899 324.2C885.906 316.952 871.234 313.028 856.27 312.77C855.943 312.773 855.622 312.688 855.338 312.525C855.055 312.361 854.821 312.125 854.66 311.84L843.81 287.72L842.28 284.32L844.39 285.18L809.62 294.5L804.76 295.8L806.13 293.99L808.8 320.24L809.18 323.98C809.181 324.308 809.095 324.63 808.932 324.914C808.769 325.199 808.534 325.435 808.25 325.6C801.854 329.449 795.948 334.06 790.66 339.33C788.95 341 786.3 338.33 788 336.63Z" fill="url(#paint8_linear_82_2)"/>
<path d="M854.85 437.37C836.128 437.37 820.95 422.192 820.95 403.47C820.95 384.747 836.128 369.57 854.85 369.57C873.572 369.57 888.75 384.747 888.75 403.47C888.75 422.192 873.572 437.37 854.85 437.37Z" fill="white"/>
<path d="M832.21 380.83C826.403 386.681 823.088 394.552 822.958 402.794C822.828 411.035 825.895 419.007 831.515 425.037C837.134 431.067 844.871 434.687 853.101 435.138C861.332 435.588 869.417 432.834 875.661 427.453C881.905 422.073 885.824 414.483 886.594 406.276C887.365 398.07 884.928 389.884 879.794 383.435C874.661 376.985 867.23 372.775 859.059 371.685C850.889 370.595 842.614 372.712 835.97 377.59C834.633 378.569 833.376 379.653 832.21 380.83C830.49 382.52 827.84 379.88 829.56 378.18C836.098 371.647 844.912 367.899 854.153 367.722C863.395 367.546 872.345 370.954 879.128 377.233C885.911 383.512 890 392.173 890.536 401.4C891.073 410.628 888.016 419.704 882.006 426.727C875.996 433.749 867.501 438.172 858.301 439.068C849.102 439.963 839.913 437.262 832.661 431.53C825.41 425.798 820.66 417.482 819.407 408.324C818.154 399.166 820.495 389.879 825.94 382.41C827.045 380.917 828.255 379.503 829.56 378.18C831.26 376.47 833.9 379.11 832.21 380.83Z" fill="white"/>
<path d="M700.8 523C706.14 522.997 711.46 523.652 716.64 524.95L730 508.57L754.86 522.93L747.37 542.67C754.827 550.353 760.266 559.763 763.2 570.06L784 573.44V602.15L763.17 605.53C760.236 615.827 754.797 625.237 747.34 632.92L754.83 652.67L730 667L716.67 650.66C706.273 653.26 695.397 653.26 685 650.66L671.64 667L646.77 652.65L654.27 632.9C646.813 625.217 641.374 615.807 638.44 605.51L617.61 602.13V573.44L638.44 570.06C641.374 559.763 646.813 550.353 654.27 542.67L646.77 522.93L671.64 508.57L685 524.91C690.169 523.629 695.475 522.987 700.8 523Z" fill="white"/>
<path d="M700.8 521.09C706.304 521.104 711.786 521.775 717.13 523.09L715.31 523.57L728.65 507.23C728.941 506.938 729.321 506.75 729.729 506.696C730.138 506.642 730.553 506.724 730.91 506.93L752.71 519.52L755.78 521.29C756.135 521.499 756.411 521.819 756.566 522.2C756.722 522.581 756.748 523.003 756.64 523.4L749.14 543.15L748.66 541.32C756.333 549.26 761.944 558.96 765 569.57L763.69 568.26L784.53 571.64C784.924 571.749 785.271 571.985 785.518 572.31C785.766 572.635 785.9 573.032 785.9 573.44V602.15C785.904 602.57 785.769 602.979 785.515 603.314C785.262 603.648 784.905 603.89 784.5 604L763.66 607.37L765 606C761.947 616.596 756.347 626.285 748.69 634.22L749.17 632.4L756.67 652.14C756.779 652.538 756.754 652.96 756.599 653.341C756.443 653.723 756.166 654.042 755.81 654.25L734 666.86L730.92 668.64C730.563 668.844 730.15 668.926 729.742 668.874C729.334 668.822 728.954 668.638 728.66 668.35L715.31 652L717.13 652.48C706.408 655.132 695.202 655.132 684.48 652.48L686.3 652L673 668.35C672.706 668.638 672.327 668.822 671.919 668.874C671.511 668.926 671.097 668.844 670.74 668.64L648.94 656.06L645.87 654.28C645.516 654.071 645.24 653.751 645.084 653.37C644.929 652.989 644.903 652.568 645.01 652.17L652.51 632.43L652.99 634.25C645.315 626.31 639.701 616.611 636.64 606L637.94 607.3L617.11 604C616.716 603.889 616.369 603.652 616.121 603.325C615.874 602.999 615.74 602.6 615.74 602.19V573.44C615.741 573.032 615.875 572.635 616.122 572.31C616.37 571.985 616.717 571.749 617.11 571.64L637.94 568.26L636.64 569.57C639.691 558.97 645.291 549.278 652.95 541.34L652.47 543.17L644.97 523.42C644.863 523.023 644.889 522.601 645.044 522.22C645.2 521.839 645.476 521.519 645.83 521.31L667.62 508.73L670.7 507C671.058 506.796 671.473 506.714 671.881 506.769C672.289 506.823 672.668 507.009 672.96 507.3L686.3 523.59L684.48 523.11C689.821 521.796 695.3 521.125 700.8 521.11C701.296 521.11 701.772 521.307 702.123 521.658C702.473 522.009 702.67 522.484 702.67 522.98C702.67 523.476 702.473 523.952 702.123 524.302C701.772 524.653 701.296 524.85 700.8 524.85C695.633 524.863 690.486 525.498 685.47 526.74C685.152 526.83 684.815 526.833 684.495 526.749C684.175 526.665 683.883 526.496 683.65 526.26L670.32 509.91L672.58 510.21L650.79 522.79L647.72 524.56L648.58 522.45L656.08 542.19C656.17 542.51 656.172 542.847 656.086 543.168C656 543.488 655.829 543.779 655.59 544.01C648.388 551.485 643.122 560.606 640.25 570.58C640.166 570.894 640.001 571.181 639.771 571.411C639.541 571.641 639.255 571.806 638.94 571.89L618.11 575.26L619.48 573.46V602.17L618.11 600.37L638.94 603.74C639.253 603.827 639.538 603.993 639.768 604.223C639.997 604.452 640.164 604.737 640.25 605.05C643.122 615.025 648.388 624.146 655.59 631.62C655.829 631.851 656 632.142 656.086 632.463C656.172 632.783 656.17 633.121 656.08 633.44L648.58 653.18L647.72 651.07L669.51 663.65L672.58 665.43L670.32 665.72L683.65 649.38C683.883 649.144 684.174 648.974 684.494 648.888C684.814 648.801 685.151 648.802 685.47 648.89C695.542 651.38 706.069 651.38 716.14 648.89C716.46 648.802 716.797 648.801 717.117 648.888C717.437 648.974 717.728 649.144 717.96 649.38L731.29 665.7L729.02 665.41L750.82 652.82L753.89 651.05L753.03 653.16L745.53 633.42C745.441 633.102 745.439 632.765 745.523 632.445C745.607 632.125 745.776 631.833 746.01 631.6C753.223 624.121 758.493 614.988 761.36 605C761.447 604.687 761.613 604.402 761.843 604.173C762.072 603.943 762.357 603.777 762.67 603.69L783.5 600.32L782.13 602.12V573.44L783.5 575.24L762.67 571.87C762.356 571.786 762.07 571.621 761.84 571.391C761.61 571.161 761.444 570.874 761.36 570.56C758.485 560.586 753.211 551.467 746 544C745.766 543.767 745.597 543.475 745.513 543.155C745.429 542.835 745.431 542.499 745.52 542.18L753 522.43L753.86 524.54L732.1 512L729.02 510.23L731.29 509.93L718 526.24C717.768 526.476 717.476 526.645 717.156 526.729C716.836 526.813 716.499 526.81 716.18 526.72C711.161 525.477 706.011 524.842 700.84 524.83C698.4 524.82 698.39 521.08 700.8 521.09Z" fill="url(#paint9_linear_82_2)"/>
<path d="M700.8 611.52C687.699 611.52 677.08 600.9 677.08 587.8C677.08 574.7 687.699 564.08 700.8 564.08C713.9 564.08 724.52 574.7 724.52 587.8C724.52 600.9 713.9 611.52 700.8 611.52Z" fill="url(#paint10_linear_82_2)"/>
<path d="M700.8 566C696.295 566.003 691.901 567.398 688.22 569.995C684.539 572.592 681.751 576.263 680.236 580.506C678.722 584.749 678.557 589.356 679.762 593.697C680.968 598.037 683.485 601.899 686.971 604.754C690.456 607.608 694.738 609.316 699.231 609.642C703.724 609.969 708.208 608.899 712.07 606.578C715.931 604.258 718.981 600.801 720.802 596.68C722.622 592.56 723.125 587.977 722.24 583.56C721.213 578.622 718.525 574.186 714.624 570.991C710.722 567.795 705.843 566.034 700.8 566C698.4 566 698.39 562.24 700.8 562.25C706.076 562.246 711.225 563.873 715.541 566.908C719.857 569.942 723.13 574.237 724.912 579.203C726.695 584.169 726.899 589.564 725.497 594.651C724.095 599.738 721.156 604.267 717.081 607.619C713.007 610.971 707.996 612.983 702.735 613.378C697.473 613.773 692.218 612.533 687.689 609.827C683.159 607.121 679.576 603.082 677.43 598.262C675.284 593.442 674.68 588.076 675.7 582.9C676.9 577.111 680.044 571.906 684.609 568.15C689.175 564.393 694.888 562.312 700.8 562.25C703.21 562.19 703.22 565.93 700.8 566Z" fill="url(#paint11_linear_82_2)"/>
<path d="M315.41 304.59C315.86 308.522 316.657 312.407 317.79 316.2C318.323 318.08 319.026 319.907 319.89 321.66C320.75 323.32 322.08 324.85 321.67 326.85C321.405 327.758 320.933 328.592 320.291 329.286C319.649 329.98 318.854 330.516 317.97 330.85C316.97 331.26 316.13 331.23 316.13 332.45C316.13 333.67 316.23 335.13 316.13 336.45C315.991 338.839 315.578 341.205 314.9 343.5C314.26 345.62 313.47 347.94 311.9 349.5C307.9 353.41 301.9 351.34 296.99 351.91C295.61 352.08 295.62 349.91 296.99 349.75C301.11 349.26 306.77 351.2 310.22 348.08C311.87 346.59 312.54 344.08 313.08 342C313.695 339.716 314.031 337.365 314.08 335C314.08 333.28 313.47 330.85 315.08 329.63C316.69 328.41 318.92 328.63 319.58 326.47C319.88 325.47 319.26 324.61 318.78 323.79C318.354 323.081 317.974 322.346 317.64 321.59C316.924 319.967 316.323 318.296 315.84 316.59C314.631 312.641 313.958 308.548 313.84 304.42C313.84 303.34 315.36 303.42 315.48 304.42L315.41 304.59Z" fill="url(#paint12_linear_82_2)"/>
<path d="M307.95 317.49C307.95 317.49 307.95 317.49 307.9 317.54L308.08 316.85C308.116 316.976 308.117 317.109 308.084 317.236C308.05 317.363 307.983 317.478 307.89 317.57L307.83 317.64L307.95 317.49C307.916 317.537 307.885 317.588 307.86 317.64L307.94 317.45C307.915 317.529 307.895 317.609 307.88 317.69V317.47V317.63V317.41C307.876 317.46 307.876 317.51 307.88 317.56L307.79 317.36C307.812 317.414 307.843 317.465 307.88 317.51L307.74 317.33L307.87 317.46L307.69 317.32C307.732 317.361 307.784 317.392 307.84 317.41L307.62 317.32H307.77H307.53L306.74 317.77C306.774 317.69 306.814 317.614 306.86 317.54C306.948 317.41 307.045 317.287 307.15 317.17L307.33 317.03C307.432 316.965 307.549 316.928 307.67 316.92C307.749 316.9 307.831 316.9 307.91 316.92C308.028 316.926 308.142 316.964 308.24 317.03C308.37 317.111 308.479 317.22 308.56 317.35C308.626 317.448 308.664 317.562 308.67 317.68C308.7 317.798 308.7 317.922 308.67 318.04L308.62 318.16C308.583 318.269 308.539 318.376 308.49 318.48C308.49 318.55 308.39 318.62 308.34 318.69L308.19 318.87C308.114 318.96 308.013 319.026 307.9 319.06C307.83 319.103 307.751 319.127 307.67 319.13C307.552 319.16 307.428 319.16 307.31 319.13C307.203 319.096 307.099 319.052 307 319C306.882 318.928 306.775 318.84 306.68 318.74C306.588 318.636 306.507 318.522 306.44 318.4C306.395 318.307 306.358 318.21 306.33 318.11C306.321 318.007 306.321 317.903 306.33 317.8C306.31 317.661 306.31 317.519 306.33 317.38C306.354 317.248 306.405 317.122 306.48 317.01C306.615 316.78 306.813 316.592 307.05 316.47L307.22 316.4C307.318 316.375 307.421 316.375 307.52 316.4C307.586 316.401 307.652 316.418 307.71 316.45C307.801 316.478 307.882 316.534 307.94 316.61L307.25 316.43H307.5H307.69L307.85 316.5C307.978 316.575 308.077 316.691 308.13 316.83C308.165 316.944 308.165 317.066 308.13 317.18C308.112 317.326 308.049 317.462 307.95 317.57V317.49Z" fill="url(#paint13_linear_82_2)"/>
<path d="M310 311.14C309.997 311.316 309.938 311.486 309.832 311.626C309.726 311.766 309.578 311.869 309.41 311.92C309.039 312.035 308.641 312.035 308.27 311.92L307.7 311.82C307.592 311.79 307.482 311.77 307.37 311.76C307.62 311.76 307.37 311.76 307.27 311.76C306.887 311.73 306.503 311.73 306.12 311.76C306.027 311.755 305.933 311.755 305.84 311.76H305.76C305.49 311.81 305.22 311.87 304.94 311.9C304.664 311.901 304.397 311.8 304.192 311.615C303.986 311.43 303.857 311.175 303.83 310.9C303.796 310.632 303.858 310.361 304.007 310.135C304.156 309.909 304.38 309.744 304.64 309.67C305.11 309.552 305.596 309.508 306.08 309.54C306.544 309.553 307.006 309.607 307.46 309.7C307.902 309.79 308.331 309.931 308.74 310.12L309.03 310.26C309.03 310.32 309.39 310.26 309.09 310.26C308.79 310.26 308.94 310.26 309.19 310.26C309.303 310.261 309.414 310.282 309.52 310.32L308.78 310.62C308.859 310.482 308.985 310.377 309.136 310.326C309.286 310.275 309.45 310.28 309.597 310.342C309.743 310.404 309.862 310.517 309.931 310.66C310 310.804 310.014 310.967 309.97 311.12L310 311.14Z" fill="url(#paint14_linear_82_2)"/>
<path d="M309.09 333.64C308.87 333.56 308.639 333.51 308.409 333.44C308.177 333.371 307.939 333.318 307.7 333.28H307.93C307.816 333.27 307.703 333.27 307.59 333.28C307.406 333.264 307.225 333.227 307.05 333.17C306.872 333.12 306.716 333.014 306.604 332.868C306.493 332.722 306.431 332.544 306.43 332.36C306.439 332.21 306.479 332.063 306.55 331.93C306.603 331.835 306.674 331.752 306.76 331.685C306.846 331.618 306.944 331.569 307.05 331.54C307.205 331.51 307.362 331.49 307.52 331.48C307.679 331.491 307.837 331.521 307.99 331.57C308.175 331.613 308.355 331.674 308.53 331.75C308.761 331.827 308.983 331.931 309.19 332.06C309.38 332.21 309.57 332.36 309.74 332.52C309.842 332.626 309.907 332.762 309.925 332.908C309.943 333.054 309.913 333.202 309.84 333.33C309.777 333.423 309.695 333.502 309.599 333.56C309.524 333.606 309.439 333.636 309.352 333.648C309.264 333.66 309.175 333.654 309.09 333.63V333.64Z" fill="url(#paint15_linear_82_2)"/>
<path d="M290.27 317.33C289.883 316.395 289.231 315.593 288.394 315.025C287.557 314.456 286.571 314.145 285.56 314.13C284.574 314.143 283.616 314.459 282.817 315.035C282.017 315.611 281.414 316.419 281.09 317.35C280.755 318.362 280.681 319.442 280.873 320.49C281.065 321.539 281.518 322.522 282.19 323.35C282.789 324.131 283.577 324.746 284.479 325.14C285.388 325.47 286.369 325.549 287.32 325.37C287.554 325.348 287.788 325.409 287.982 325.543C288.175 325.677 288.315 325.875 288.377 326.101C288.439 326.328 288.419 326.57 288.321 326.784C288.223 326.997 288.052 327.169 287.84 327.27C285.9 328.33 283.379 327.35 281.789 326.1C279.972 324.599 278.816 322.444 278.57 320.1C278.433 318.988 278.551 317.86 278.913 316.8C279.275 315.74 279.872 314.776 280.659 313.98C281.452 313.221 282.415 312.664 283.469 312.358C284.522 312.052 285.634 312.004 286.71 312.22C287.843 312.468 288.887 313.02 289.731 313.816C290.574 314.612 291.186 315.623 291.5 316.74C291.7 317.45 290.59 317.97 290.27 317.26V317.33Z" fill="url(#paint16_linear_82_2)"/>
<path d="M285.09 318.19C285.338 318.251 285.572 318.36 285.78 318.51C285.992 318.65 286.189 318.811 286.37 318.99C286.552 319.17 286.716 319.368 286.86 319.58C287.012 319.797 287.137 320.032 287.23 320.28C287.289 320.499 287.26 320.732 287.15 320.93C287.039 321.117 286.86 321.254 286.65 321.31C286.431 321.37 286.197 321.341 286 321.23L285.83 321.1C285.732 320.995 285.66 320.868 285.62 320.73L285.7 320.93C285.58 320.642 285.425 320.37 285.24 320.12L285.37 320.29C285.196 320.071 284.998 319.873 284.78 319.7L284.94 319.82L284.73 319.67C284.616 319.592 284.509 319.505 284.41 319.41L284.3 319.27C284.248 319.189 284.22 319.096 284.22 319C284.186 318.845 284.215 318.683 284.3 318.55C284.38 318.417 284.502 318.313 284.646 318.254C284.789 318.194 284.949 318.182 285.1 318.22L285.09 318.19Z" fill="url(#paint17_linear_82_2)"/>
<path d="M290.38 316.26C292.81 312.96 292.38 308.07 295.11 305.04C295.88 304.19 296.85 303.55 297.56 302.65C299.1 300.65 299.05 297.96 298.94 295.46C302.081 297.94 305.534 299.997 309.21 301.58C310.325 302.131 311.547 302.432 312.79 302.46C313.41 302.458 314.017 302.276 314.537 301.937C315.057 301.598 315.467 301.117 315.72 300.55C315.824 300.262 315.86 299.955 315.826 299.651C315.793 299.347 315.69 299.055 315.526 298.797C315.361 298.54 315.14 298.323 314.879 298.164C314.618 298.005 314.324 297.908 314.02 297.88C314.377 298.362 314.826 298.769 315.341 299.078C315.856 299.387 316.426 299.592 317.02 299.68C319.38 300.3 322.24 300.68 323.93 298.93C324.498 298.272 324.853 297.457 324.948 296.592C325.043 295.728 324.873 294.855 324.46 294.09C324.036 293.341 323.462 292.688 322.774 292.172C322.085 291.655 321.298 291.287 320.46 291.09C321.23 291.3 322.4 291.27 322.46 290.46C322.451 290.263 322.398 290.071 322.304 289.898C322.211 289.725 322.079 289.575 321.92 289.46C318.79 286.57 314.24 285.84 309.98 285.78C307.085 285.738 304.191 285.942 301.33 286.39C300.542 286.557 299.735 286.621 298.93 286.58C290.36 285.86 281.789 287.968 274.53 292.58C269.88 295.58 266.12 300.58 266.08 306.13C266.153 308.161 266.472 310.176 267.03 312.13C268.45 317.883 269.99 323.6 271.65 329.28C271.98 330.4 272.42 331.65 273.48 332.13C274.267 332.4 275.123 332.4 275.91 332.13C279.07 331.39 281.63 328.61 284.18 326.6C281.18 325.16 279.18 323.73 278.55 320.44C278.244 318.788 278.466 317.082 279.184 315.564C279.902 314.046 281.08 312.792 282.55 311.98C285.55 310.51 288.36 311.29 289.62 314.38" fill="url(#paint18_linear_82_2)"/>
<path d="M289.81 315.93C291.74 312.85 291.61 309.01 293.38 305.87C294.38 304.15 296.18 303.19 297.16 301.52C298.14 299.85 298.07 297.46 297.98 295.46C297.98 294.54 298.98 294.32 299.61 294.79C302.174 296.788 304.935 298.521 307.85 299.96C309.32 300.68 311.09 301.67 312.79 301.55C313.461 301.521 314.095 301.234 314.56 300.75C315.02 300.16 315.01 298.89 314.02 298.81L314.83 297.41C315.56 298.55 317.31 298.77 318.54 299C319.913 299.393 321.381 299.283 322.68 298.69C323.261 298.296 323.689 297.715 323.895 297.044C324.1 296.373 324.07 295.652 323.81 295C323.483 294.257 322.984 293.603 322.355 293.09C321.725 292.577 320.984 292.221 320.19 292.05C319.932 291.98 319.712 291.81 319.578 291.577C319.445 291.344 319.41 291.069 319.48 290.81C319.55 290.551 319.721 290.331 319.953 290.198C320.186 290.065 320.462 290.03 320.72 290.1C320.92 290.1 321.41 290.28 321.59 290.1C321.21 290.4 320.76 289.76 320.52 289.58C319.897 289.118 319.226 288.722 318.52 288.4C317.072 287.742 315.536 287.297 313.96 287.08C310.548 286.63 307.092 286.63 303.68 287.08C301.968 287.394 300.231 287.554 298.49 287.56C293.631 287.174 288.744 287.738 284.1 289.22C278.18 291.06 272.02 294.28 268.89 299.87C267.333 302.658 266.826 305.911 267.46 309.04C268.14 312.7 269.21 316.32 270.17 319.92C270.717 321.98 271.287 324.04 271.88 326.1C272.18 327.16 272.46 328.23 272.8 329.28C273.03 329.98 273.31 330.93 274.12 331.14C275.79 331.59 277.95 330.14 279.21 329.23C280.67 328.23 281.98 326.94 283.39 325.83L283.61 327.5C281.34 326.38 279.14 324.99 278.09 322.59C277.569 321.356 277.319 320.025 277.357 318.686C277.395 317.347 277.72 316.032 278.31 314.83C280.66 309.96 287.94 308.12 290.46 313.83C291 315.08 289.17 316.16 288.62 314.91C286.62 310.28 281.15 312.75 279.83 316.6C279.503 317.52 279.369 318.497 279.436 319.471C279.503 320.444 279.77 321.394 280.22 322.26C281.22 323.96 282.99 324.87 284.68 325.68C284.819 325.762 284.937 325.875 285.026 326.01C285.114 326.145 285.171 326.298 285.191 326.459C285.211 326.619 285.195 326.781 285.143 326.934C285.09 327.087 285.004 327.226 284.89 327.34C282.15 329.56 279.55 332.46 275.96 333.24C274.22 333.62 272.51 333.36 271.47 331.78C270.43 330.2 270.09 328.03 269.58 326.23C268.247 321.643 267.024 317.033 265.91 312.4C264.91 308.51 264.44 304.71 265.99 300.89C268.81 293.89 275.73 289.84 282.55 287.53C286.257 286.281 290.122 285.567 294.03 285.41C295.96 285.33 297.93 285.67 299.85 285.55C302.17 285.39 304.46 284.9 306.85 284.8C311.07 284.6 315.54 284.8 319.42 286.58C320.79 287.22 323.42 288.58 323.42 290.29C323.42 292 321.49 292.29 320.16 292.02L320.69 290.07C321.757 290.32 322.753 290.811 323.602 291.504C324.451 292.197 325.131 293.075 325.59 294.07C325.991 295.034 326.092 296.096 325.88 297.119C325.668 298.141 325.152 299.075 324.4 299.8C322.84 301.19 320.65 301.27 318.69 300.97C316.73 300.67 314.34 300.1 313.19 298.28C313.108 298.139 313.064 297.978 313.063 297.815C313.062 297.651 313.104 297.491 313.185 297.349C313.266 297.207 313.383 297.088 313.525 297.006C313.666 296.924 313.827 296.88 313.99 296.88C314.406 296.92 314.809 297.046 315.173 297.25C315.537 297.455 315.854 297.733 316.104 298.067C316.355 298.401 316.533 298.784 316.627 299.191C316.721 299.598 316.729 300.02 316.65 300.43C316.21 302.43 313.98 303.43 312.07 303.27C309.59 303.06 307.07 301.61 304.92 300.46C302.567 299.193 300.329 297.724 298.23 296.07L299.86 295.39C300.094 297.452 299.879 299.539 299.23 301.51C298.39 303.6 296.46 304.51 295.23 306.27C293 309.4 293.23 313.58 290.82 316.65C290.36 317.24 289.4 316.48 289.82 315.86L289.81 315.93Z" fill="url(#paint19_linear_82_2)"/>
<path d="M296.62 351.64C296.77 351.93 297.09 351.55 296.88 351.96C296.789 352.105 296.685 352.243 296.57 352.37C296.37 352.63 296.17 352.89 295.98 353.16C295.58 353.687 295.19 354.217 294.81 354.75C294.01 355.85 293.25 356.98 292.53 358.13C291.81 359.28 291.15 360.39 290.53 361.54C289.91 362.69 289.32 363.99 288.64 365.16C288.1 366.1 286.4 365.47 286.83 364.39C287.511 362.793 288.317 361.251 289.24 359.78C290.1 358.33 291.01 356.9 291.98 355.52C292.95 354.14 293.98 352.79 295.05 351.52C295.5 350.99 296.05 350.24 296.78 350.21C296.94 350.203 297.099 350.234 297.244 350.302C297.389 350.369 297.516 350.47 297.614 350.596C297.712 350.723 297.778 350.871 297.807 351.028C297.836 351.185 297.827 351.347 297.78 351.5C297.743 351.621 297.672 351.729 297.576 351.811C297.48 351.893 297.362 351.945 297.236 351.962C297.111 351.979 296.983 351.96 296.869 351.906C296.754 351.852 296.657 351.767 296.59 351.66L296.62 351.64Z" fill="url(#paint20_linear_82_2)"/>
<path d="M276.2 330.39C274.86 332.54 273.47 334.65 272.04 336.74L269.88 339.87C269.2 340.928 268.437 341.931 267.6 342.87C267.467 343.036 267.274 343.142 267.063 343.165C266.852 343.189 266.64 343.127 266.475 342.995C266.309 342.862 266.202 342.669 266.179 342.458C266.156 342.247 266.217 342.036 266.35 341.87C266.987 340.772 267.71 339.726 268.51 338.74C269.23 337.74 269.94 336.74 270.66 335.74L275 329.68C275.52 328.96 276.7 329.61 276.21 330.39H276.2Z" fill="url(#paint21_linear_82_2)"/>
<path d="M264.9 339.8C271.3 349.45 278.9 359.02 288.65 365.2C289.22 364.2 289.48 363.27 290.06 362.2C291.06 362.88 291.45 363.78 292.42 364.45C293.58 365.25 294.82 366.17 295.15 367.54C295.305 368.529 295.201 369.542 294.85 370.48L293.47 375.36C293.29 376 293.04 376.72 292.47 376.97C291.36 377.43 290.47 375.97 290.07 374.86L288.07 368.58L284.14 375.81C283.26 377.45 282.09 379.28 280.24 379.47C278.54 379.65 277.08 378.34 275.87 377.13C269.09 370.32 262.26 363.44 256.97 355.42C254.8 352.13 252.86 348.56 252.39 344.65C252.268 344.07 252.338 343.466 252.59 342.93C252.865 342.528 253.236 342.202 253.67 341.98L259.59 338.26C260.823 337.376 262.215 336.738 263.69 336.38C264.629 336.322 265.568 336.481 266.436 336.845C267.303 337.209 268.074 337.769 268.69 338.48C268.69 338.23 268.83 338.69 268.69 338.48C268.69 338.73 268.29 339.03 268.2 339.21C267.88 339.84 266.52 341.66 266.2 342.29" fill="url(#paint22_linear_82_2)"/>
<path d="M250 350.82C233.82 349.82 218.48 357.57 206.4 367.82C193.4 378.82 183.32 392.69 172.15 405.44C166.79 411.57 160.66 417.26 156.5 424.34C152.333 431.736 150.879 440.356 152.39 448.71C153.75 457.15 157.39 465 161.83 472.24C166.402 479.572 171.513 486.555 177.12 493.13C188.53 506.76 201.28 519.23 213.72 531.9L218.51 536.77C219.51 537.77 217.95 539.36 216.94 538.34C204.02 525.34 190.75 512.49 178.67 498.64C172.782 491.97 167.334 484.925 162.36 477.55C157.59 470.39 153.36 462.69 151.11 454.33C148.86 445.97 148.62 437.02 151.62 428.93C154.51 421.13 160.2 414.93 165.75 408.93C177.61 396.08 187.83 381.61 200.75 369.79C212.62 358.94 227.56 350.03 244 349.31C246 349.224 248.004 349.264 250 349.43C250.92 349.51 250.94 350.95 250 350.9V350.82Z" fill="url(#paint23_linear_82_2)"/>
<path d="M251.33 376.42C251.44 387.65 241.56 395.65 234.08 402.62C224.147 411.88 214.183 421.097 204.19 430.27L196.87 436.98C195.72 438.04 194.55 438.98 195.27 440.64C195.99 442.3 196.85 443.64 197.63 445.09C200.73 450.897 203.853 456.69 207 462.47C210.147 468.25 213.403 474.064 216.77 479.91C219.89 485.33 222.98 490.82 226.57 495.91C228.475 498.691 230.645 501.279 233.05 503.64C235.29 505.8 237.84 507.64 239.75 510.11C242.62 513.83 243.64 520.47 238.75 523.11C238.477 523.241 238.164 523.264 237.874 523.176C237.584 523.087 237.338 522.892 237.184 522.631C237.031 522.369 236.981 522.06 237.045 521.763C237.109 521.467 237.282 521.205 237.53 521.03C238.351 520.45 238.986 519.645 239.359 518.711C239.732 517.778 239.826 516.756 239.63 515.77C239.31 513.25 237.63 511.25 235.85 509.56C233.85 507.63 231.65 505.91 229.74 503.88C227.746 501.726 225.911 499.43 224.25 497.01C220.76 492.01 217.75 486.64 214.7 481.35C211.46 475.724 208.287 470.057 205.18 464.35C202.073 458.644 198.99 452.92 195.93 447.18L193.75 443.09C193.05 441.77 192.27 440.34 192.56 438.79C192.823 437.737 193.39 436.784 194.19 436.05C195.41 434.82 196.76 433.69 198.04 432.52C207.82 423.58 217.633 414.68 227.48 405.82C232.48 401.31 237.76 397 242.36 392.07C246.36 387.72 249.9 382.53 249.98 376.39C249.98 376.213 250.051 376.042 250.176 375.916C250.302 375.791 250.472 375.72 250.65 375.72C250.828 375.72 250.998 375.791 251.124 375.916C251.25 376.042 251.32 376.213 251.32 376.39L251.33 376.42Z" fill="url(#paint24_linear_82_2)"/>
<path d="M238.34 521.54C244.17 525.11 250.65 529.37 252.65 536.33C252.65 536.549 252.578 536.762 252.445 536.936C252.312 537.11 252.126 537.236 251.915 537.294C251.704 537.352 251.479 537.339 251.276 537.257C251.073 537.175 250.902 537.028 250.79 536.84C248.6 530.51 242.91 526.39 237.7 522.63C237.05 522.17 237.63 521.11 238.34 521.54Z" fill="url(#paint25_linear_82_2)"/>
<path d="M243.78 540.81C243.393 544.348 243.356 547.915 243.67 551.46C244.1 555.045 244.829 558.587 245.85 562.05C245.843 562.263 245.768 562.469 245.636 562.636C245.505 562.804 245.323 562.925 245.117 562.982C244.912 563.039 244.693 563.029 244.494 562.953C244.295 562.877 244.125 562.739 244.01 562.56C242.808 559.041 242.098 555.373 241.9 551.66C241.621 547.988 241.775 544.296 242.36 540.66C242.49 539.86 243.86 540.04 243.78 540.85V540.81Z" fill="url(#paint26_linear_82_2)"/>
<path d="M235.37 563.29C233.571 560.538 232.647 557.307 232.72 554.02C232.72 553.02 234.4 553.02 234.36 554.02C234.259 557.03 235.019 560.006 236.55 562.6C237 563.36 235.85 564.02 235.37 563.29Z" fill="url(#paint27_linear_82_2)"/>
<path d="M225.78 560.69C225.229 557.646 224.991 554.553 225.07 551.46C225.07 550.37 226.82 550.37 226.77 551.46C226.619 554.418 226.74 557.384 227.13 560.32C227.171 560.499 227.144 560.686 227.053 560.846C226.962 561.005 226.814 561.124 226.64 561.18C226.461 561.229 226.269 561.205 226.108 561.113C225.947 561.021 225.829 560.869 225.78 560.69Z" fill="url(#paint28_linear_82_2)"/>
<path d="M218.89 558.63C217.229 554.509 216.545 550.06 216.89 545.63C217.07 543.35 217.62 541.12 217.76 538.85C217.857 537.595 217.752 536.332 217.45 535.11C217.097 534.138 216.842 533.133 216.69 532.11C216.57 530.11 217.93 528.65 219.17 527.28C220.469 525.866 221.913 524.592 223.479 523.48C226.68 521.13 230.385 519.562 234.3 518.9C235.65 518.72 236.3 520.7 234.88 521.01C231.361 521.696 228.007 523.05 225 525C223.443 526.044 222.011 527.262 220.729 528.63C220.032 529.296 219.426 530.053 218.93 530.88C218.4 531.88 218.849 533.01 219.159 534.04C220.389 538.04 219.16 541.94 218.71 545.95C218.248 550.128 218.751 554.357 220.18 558.31C220.49 559.16 219.179 559.49 218.849 558.68L218.89 558.63Z" fill="url(#paint29_linear_82_2)"/>
<path d="M317.049 507.166L333.747 534.394C334.76 536.046 334.242 538.207 332.59 539.221L328.95 541.453C327.297 542.467 325.136 541.948 324.123 540.296L307.425 513.068C306.411 511.416 306.929 509.255 308.582 508.241L312.222 506.009C313.874 504.996 316.035 505.514 317.049 507.166Z" fill="url(#paint30_linear_82_2)"/>
<path d="M326.065 536.267L311.898 513.165L294.567 523.793L308.735 546.895L326.065 536.267Z" fill="url(#paint31_linear_82_2)"/>
<path d="M555.73 375L559.8 381.63C560.159 382.216 560.312 382.906 560.234 383.589C560.156 384.272 559.852 384.91 559.37 385.4L543.46 401.51C542.901 402.076 542.144 402.402 541.35 402.42L531.78 402.68C531.24 402.695 530.706 402.567 530.232 402.309C529.757 402.05 529.36 401.671 529.08 401.21L524.35 393.51C524.067 393.051 523.911 392.525 523.897 391.986C523.882 391.447 524.011 390.913 524.27 390.44L528.84 382C529.208 381.296 529.841 380.768 530.6 380.53L552.18 373.66C552.836 373.453 553.543 373.473 554.186 373.716C554.83 373.959 555.374 374.411 555.73 375Z" fill="url(#paint32_linear_82_2)"/>
<path d="M192 573.59L219 557C219.816 559.146 221.066 561.1 222.672 562.741C224.277 564.382 226.203 565.676 228.33 566.54C230.808 567.496 233.507 567.727 236.112 567.206C238.716 566.686 241.119 565.435 243.04 563.6C243.505 563.167 243.877 562.643 244.13 562.06C244.376 561.223 244.424 560.339 244.27 559.48C243.743 554.067 243.21 548.657 242.67 543.25L242.83 542.38L283.58 517.38C285.628 516.12 287.904 515.276 290.278 514.895C292.652 514.515 295.078 514.606 297.417 515.163C299.756 515.72 301.963 516.732 303.911 518.142C305.858 519.552 307.51 521.332 308.77 523.38L315.46 534.29C318.005 538.428 318.803 543.407 317.678 548.132C316.552 552.858 313.596 556.943 309.46 559.49L217.81 615.69C213.673 618.232 208.696 619.028 203.973 617.903C199.25 616.778 195.166 613.824 192.62 609.69L185.92 598.77C183.388 594.624 182.606 589.643 183.746 584.921C184.886 580.199 187.855 576.123 192 573.59Z" fill="url(#paint33_linear_82_2)"/>
<path d="M302.28 549.79L293.18 555.37L271.32 568.78L244.86 585L221.86 599.09L214.32 603.71C213.14 604.43 211.98 605.27 210.75 605.9L210.59 605.99C209.59 606.63 208.59 604.99 209.65 604.38L218.75 598.8L240.61 585.39L267.1 569.17L290.1 555.08L297.64 550.46C298.81 549.74 299.98 548.9 301.21 548.27L301.37 548.17C302.37 547.54 303.37 549.17 302.31 549.79H302.28Z" fill="url(#paint34_linear_82_2)"/>
<path d="M296.341 539.679L287.241 545.26L265.391 558.659L238.931 574.89L216.001 589L208.461 593.619C207.291 594.349 206.121 595.19 204.891 595.82L204.731 595.909C203.731 596.539 202.731 594.909 203.791 594.299L212.891 588.719L234.751 575.31L261.211 559.09L284.211 545L291.751 540.38C292.931 539.66 294.091 538.82 295.321 538.19L295.481 538.09C296.481 537.46 297.481 539.09 296.421 539.71L296.341 539.679Z" fill="url(#paint35_linear_82_2)"/>
<path d="M226.35 568.85L202.191 583.66L198.761 585.77C197.761 586.4 196.761 584.77 197.761 584.15L222.001 569.34L225.441 567.23C226.441 566.6 227.441 568.23 226.381 568.85H226.35Z" fill="url(#paint36_linear_82_2)"/>
<path d="M290.411 529.56L275.141 538.93L251.001 553.72L245.381 557.16C245.167 557.284 244.913 557.319 244.674 557.256C244.435 557.193 244.23 557.038 244.106 556.825C243.981 556.611 243.946 556.357 244.009 556.118C244.072 555.879 244.227 555.674 244.441 555.55L259.711 546.18L283.831 531.39L289.461 528C290.461 527.37 291.461 529 290.411 529.61V529.56Z" fill="url(#paint37_linear_82_2)"/>
<path d="M301.63 385.26C303.541 397.012 302.51 409.054 298.63 420.31C294.71 431.53 287.32 442.03 287.2 454.31C287.162 457.148 287.619 459.97 288.55 462.65C289.45 465.23 290.72 467.79 290.75 470.58C290.764 471.733 290.518 472.875 290.03 473.92C289.48 475.11 288.34 476.17 288.2 477.52C288.06 478.87 288.73 480.18 288.74 481.52C288.731 482.608 288.471 483.679 287.98 484.65C285.78 489.05 280.21 490.7 275.76 491.46C269.794 492.326 263.737 492.367 257.76 491.58C243.85 490.144 230.132 487.227 216.84 482.88C215.35 482.39 215.98 480.03 217.49 480.51C228.921 484.178 240.653 486.831 252.55 488.44C258.446 489.361 264.416 489.729 270.38 489.54C275.13 489.28 281.19 488.59 284.69 484.97C285.391 484.287 285.892 483.426 286.14 482.48C286.44 481.18 285.95 479.94 285.78 478.66C285.608 477.538 285.783 476.39 286.28 475.37C286.87 474.15 287.84 473.15 288.16 471.81C288.75 469.22 287.4 466.46 286.55 464.08C285.641 461.576 285.109 458.951 284.97 456.29C284.41 444.75 290.56 434.52 295.03 424.29C300.391 412.153 302.238 398.755 300.36 385.62C300.23 384.76 301.53 384.38 301.68 385.25L301.63 385.26Z" fill="url(#paint38_linear_82_2)"/>
<path d="M199 434.62C198.73 436.47 198.55 438.33 198.42 440.2C198.36 441.13 198.3 442.06 198.27 442.99C198.27 443.929 198.22 444.867 198.12 445.8C198.066 446 197.94 446.172 197.766 446.285C197.593 446.397 197.384 446.442 197.18 446.41C196.975 446.382 196.788 446.282 196.65 446.128C196.513 445.974 196.435 445.776 196.43 445.57C196.376 444.64 196.403 443.706 196.51 442.78C196.58 441.78 196.67 440.84 196.8 439.88C197.046 438 197.38 436.133 197.8 434.28C197.97 433.47 199.14 433.83 199.02 434.62H199Z" fill="url(#paint39_linear_82_2)"/>
<path d="M317.61 626.47L313.45 623.33C313.365 623.278 313.292 623.209 313.236 623.127C313.18 623.045 313.141 622.952 313.123 622.854C313.105 622.756 313.107 622.655 313.131 622.558C313.154 622.462 313.197 622.371 313.258 622.292C313.319 622.213 313.395 622.147 313.483 622.1C313.57 622.053 313.667 622.024 313.766 622.016C313.865 622.009 313.965 622.022 314.059 622.055C314.152 622.088 314.238 622.141 314.31 622.21L318.4 625.45C318.498 625.564 318.552 625.709 318.555 625.859C318.557 626.009 318.508 626.155 318.415 626.273C318.322 626.391 318.191 626.473 318.044 626.505C317.897 626.537 317.744 626.518 317.61 626.45V626.47Z" fill="white"/>
<path d="M411.61 770.66L405.47 770.89C403.677 770.851 401.883 770.968 400.11 771.24C399.354 771.341 398.642 771.656 398.059 772.149C397.476 772.642 397.046 773.291 396.82 774.02C396.516 775.406 396.125 776.772 395.65 778.11C394.34 780.91 391.35 781.23 388.59 781.2C386.75 781.2 384.92 781.2 383.08 781.36C382.08 781.44 381.08 781.56 380.08 781.71C379.095 781.938 378.091 782.078 377.08 782.13C376.32 782.13 375.89 780.97 376.66 780.61C378.43 779.971 380.289 779.613 382.17 779.55C384.033 779.341 385.906 779.238 387.78 779.24C389.35 779.24 391.26 779.49 392.68 778.67C394.1 777.85 394.32 776.15 394.68 774.67C395.43 771.74 397.05 769.91 400.13 769.46C401.824 769.287 403.529 769.233 405.23 769.3H411.62C411.795 769.3 411.963 769.369 412.087 769.493C412.211 769.617 412.28 769.785 412.28 769.96C412.28 770.135 412.211 770.303 412.087 770.426C411.963 770.55 411.795 770.62 411.62 770.62L411.61 770.66Z" fill="white"/>
<path d="M65.32 529.47C58.67 531.55 53.89 536.9 49.66 542.15C49.0627 542.76 48.53 543.43 48.07 544.15C47.6 545.1 48.22 545.77 48.46 546.7C48.6031 547.491 48.5884 548.304 48.4167 549.09C48.2451 549.875 47.92 550.62 47.46 551.28C46.89 552.28 45.83 554.28 44.46 554.08C44.1984 554.041 43.9549 553.923 43.762 553.742C43.5692 553.561 43.4362 553.325 43.3807 553.066C43.3253 552.808 43.3501 552.538 43.4518 552.294C43.5536 552.05 43.7273 551.843 43.95 551.7C44.85 551.02 45.95 552.49 45.14 553.25L45.02 553.36L45.31 552.66L45.1 552.23L44.33 552.13C44.88 552 45.57 550.58 45.85 550.13C46.3196 549.433 46.5862 548.619 46.62 547.78C46.62 546.43 45.62 545.39 46.08 543.99C46.6985 542.784 47.5168 541.692 48.5 540.76C49.42 539.67 50.35 538.6 51.31 537.55C55.09 533.45 59.47 529.76 64.92 528.18C65.0889 528.139 65.2673 528.165 65.4174 528.252C65.5675 528.34 65.6776 528.483 65.7244 528.651C65.7711 528.818 65.7509 528.997 65.668 529.15C65.585 529.303 65.4459 529.418 65.28 529.47H65.32Z" fill="white"/>
<path d="M149 583.19C148.49 588.55 147.52 593.91 146.75 599.19C146.61 600.19 145.07 599.77 145.23 598.77C146.04 593.51 146.67 588.18 147.74 582.97C147.88 582.26 149.07 582.41 149 583.14V583.19Z" fill="white"/>
<path d="M143.411 585.63C142.613 587.688 142.118 589.85 141.941 592.05C141.936 592.247 141.855 592.435 141.715 592.574C141.576 592.714 141.388 592.795 141.191 592.8C140.992 592.8 140.801 592.721 140.66 592.58C140.52 592.439 140.441 592.249 140.441 592.05C140.673 589.721 141.239 587.438 142.121 585.27C142.142 585.183 142.181 585.1 142.234 585.028C142.288 584.956 142.355 584.896 142.433 584.851C142.511 584.805 142.596 584.776 142.685 584.764C142.775 584.753 142.865 584.759 142.951 584.783C143.038 584.808 143.119 584.849 143.189 584.905C143.259 584.961 143.318 585.03 143.36 585.109C143.403 585.188 143.43 585.275 143.438 585.364C143.447 585.454 143.437 585.544 143.411 585.63Z" fill="white"/>
<path d="M321.42 536.89C317.57 530.83 313.99 524.6 310.62 518.27C310.2 517.48 311.41 516.78 311.81 517.57C315.11 523.95 318.72 530.16 322.57 536.22C323.03 536.94 321.88 537.61 321.42 536.89Z" fill="url(#paint40_linear_82_2)"/>
<path d="M345.34 506.69C343.825 507.727 342.068 508.355 340.239 508.513C338.409 508.671 336.571 508.353 334.9 507.59C334.125 507.244 333.398 506.797 332.74 506.26C331.74 505.45 331 504.52 329.62 504.39C327.347 504.275 325.091 503.923 322.89 503.34C318.51 501.98 314.55 499.6 310.66 497.22C306.77 494.84 302.66 492.31 298.8 489.59C294.514 486.63 290.587 483.18 287.1 479.31C286.1 478.23 287.73 476.64 288.68 477.73C294.57 484.42 302.03 489.32 309.55 493.97C313.207 496.407 317.052 498.547 321.05 500.37C323.11 501.242 325.275 501.837 327.49 502.14C329.49 502.39 331.21 502.28 332.83 503.68C334.45 505.08 336.05 506.35 338.37 506.68C340.539 507.027 342.761 506.614 344.66 505.51C345.42 505.06 346.03 506.18 345.34 506.67V506.69Z" fill="url(#paint41_linear_82_2)"/>
<path d="M348.81 508.91C353.38 509.91 357.87 511.07 362.51 511.77C366.77 512.41 371.51 513.23 375.83 512.33C380.15 511.43 382.36 508.24 384.43 504.73C385.623 502.73 386.773 500.68 387.88 498.58C388.88 496.58 389.99 494.58 389.22 492.35C387.64 487.66 383.99 483.92 380.83 480.28C380.653 480.104 380.554 479.865 380.554 479.615C380.554 479.366 380.653 479.127 380.83 478.95C381.006 478.774 381.245 478.675 381.495 478.675C381.744 478.675 381.983 478.774 382.16 478.95C383.95 480.532 385.554 482.314 386.94 484.26C388.388 486.143 389.666 488.151 390.76 490.26C391.305 491.235 391.634 492.315 391.724 493.428C391.814 494.542 391.662 495.661 391.28 496.71C390.308 499.041 389.147 501.288 387.81 503.43C385.7 507.18 383.48 511.53 379.43 513.51C375.22 515.58 370.24 514.9 365.76 514.31C359.844 513.653 354.035 512.252 348.47 510.14C348.305 510.095 348.165 509.987 348.081 509.838C347.997 509.69 347.974 509.515 348.02 509.35C348.065 509.186 348.173 509.046 348.321 508.962C348.469 508.877 348.645 508.855 348.81 508.9V508.91Z" fill="url(#paint42_linear_82_2)"/>
<path d="M375.31 483.49C377.482 484.927 379.213 486.938 380.31 489.3C380.378 489.396 380.425 489.505 380.448 489.62C380.471 489.735 380.47 489.854 380.446 489.968C380.421 490.083 380.373 490.192 380.304 490.287C380.235 490.382 380.147 490.462 380.046 490.521C379.945 490.581 379.833 490.619 379.716 490.633C379.6 490.647 379.481 490.637 379.369 490.603C379.257 490.569 379.152 490.512 379.063 490.436C378.974 490.359 378.901 490.266 378.85 490.16C378.603 489.605 378.319 489.067 378 488.55C377.692 488.063 377.358 487.592 377 487.14C376.242 486.194 375.395 485.323 374.47 484.54C373.9 484.04 374.64 483.08 375.29 483.49H375.31Z" fill="url(#paint43_linear_82_2)"/>
<path d="M374.92 495.15C374.575 493.953 373.968 492.847 373.143 491.913C372.318 490.98 371.296 490.241 370.15 489.75C369.38 489.41 369.93 488.07 370.73 488.38C372.086 488.943 373.291 489.814 374.249 490.926C375.208 492.037 375.893 493.357 376.25 494.78C376.299 494.957 376.276 495.145 376.186 495.305C376.096 495.464 375.947 495.581 375.77 495.63C375.594 495.679 375.405 495.656 375.246 495.566C375.086 495.476 374.969 495.327 374.92 495.15Z" fill="url(#paint44_linear_82_2)"/>
<path d="M369.86 500.35C369.2 497.871 367.724 495.687 365.67 494.15C365.473 494.026 365.332 493.832 365.274 493.607C365.217 493.382 365.247 493.143 365.36 492.94C365.479 492.738 365.672 492.591 365.899 492.532C366.126 492.472 366.367 492.503 366.57 492.62C367.77 493.519 368.789 494.639 369.57 495.92C370.341 497.169 370.876 498.548 371.15 499.99C371.196 500.166 371.172 500.354 371.082 500.513C370.993 500.671 370.845 500.789 370.67 500.84C370.582 500.864 370.49 500.871 370.399 500.859C370.309 500.848 370.222 500.818 370.143 500.773C370.063 500.727 369.994 500.666 369.939 500.594C369.883 500.521 369.843 500.438 369.82 500.35H369.86Z" fill="url(#paint45_linear_82_2)"/>
<path d="M383.31 481.78L528.73 392.6L531.82 397.6L387.33 486.2C386.144 484.594 384.797 483.113 383.31 481.78Z" fill="url(#paint46_linear_82_2)"/>
<path d="M355 499.16C357.61 499.71 359.66 500.71 360 502.44C360.039 502.631 360.059 502.825 360.06 503.02L320.61 527.21L317.52 522.21L355 499.16Z" fill="url(#paint47_linear_82_2)"/>
<path d="M369.13 484.84C369.96 484.73 370.02 483.58 369.66 483.04C369.03 482.318 368.173 481.831 367.23 481.66C365.074 481.011 362.815 480.77 360.57 480.95C359.625 481.002 358.709 481.295 357.909 481.801C357.109 482.307 356.452 483.009 356 483.84C355.615 484.689 355.353 485.588 355.22 486.51C354.966 487.417 354.885 488.363 354.98 489.3C355.031 489.544 354.996 489.798 354.88 490.018C354.764 490.239 354.575 490.412 354.345 490.508C354.115 490.604 353.859 490.617 353.621 490.544C353.383 490.471 353.177 490.318 353.04 490.11C352.19 488.93 352.68 487.2 352.92 485.88C353.127 484.501 353.61 483.178 354.34 481.99C356.04 479.45 359.03 478.59 361.95 478.76C363.598 478.871 365.232 479.139 366.83 479.56C368.144 479.825 369.374 480.409 370.41 481.26C370.859 481.642 371.192 482.143 371.369 482.706C371.545 483.268 371.56 483.87 371.41 484.44C371.286 484.94 370.994 485.382 370.582 485.692C370.171 486.001 369.665 486.16 369.15 486.14C368.978 486.14 368.812 486.071 368.69 485.95C368.568 485.828 368.5 485.662 368.5 485.49C368.5 485.318 368.568 485.152 368.69 485.03C368.812 484.908 368.978 484.84 369.15 484.84H369.13Z" fill="url(#paint48_linear_82_2)"/>
<path d="M286.27 387.69C286.27 387.69 286.27 387.69 286.27 387.64L286.19 387.83C286.194 387.79 286.194 387.75 286.19 387.71V387.92V387.78V387.99C286.195 387.937 286.195 387.883 286.19 387.83L286.27 388.02C286.247 387.968 286.22 387.918 286.19 387.87L286.31 388.04C286.264 387.98 286.21 387.926 286.15 387.88L286.32 388.01C286.249 387.954 286.172 387.907 286.09 387.87L286.289 387.96C286.216 387.93 286.139 387.909 286.06 387.9H286.289H286.08H286.32H286.169L286.38 387.81L286.159 387.94L286.34 387.8C286.276 387.853 286.218 387.913 286.169 387.98L286.31 387.79C286.228 387.897 286.16 388.015 286.11 388.14L286.2 387.91C286.144 388.049 286.104 388.193 286.08 388.34V388.09C286.059 388.26 286.059 388.431 286.08 388.6V388.34C286.097 388.48 286.131 388.618 286.18 388.75L286.08 388.52L286.2 388.73L286.05 388.53C286.088 388.578 286.131 388.622 286.18 388.66L285.979 388.51C286.033 388.549 286.09 388.583 286.15 388.61L285.909 388.51C285.977 388.539 286.047 388.56 286.12 388.57H285.86H286.14H285.88L286.13 388.5L285.89 388.6C285.968 388.566 286.042 388.523 286.11 388.47L285.909 388.63C285.968 388.582 286.021 388.528 286.07 388.47L285.909 388.68C285.969 388.599 286.019 388.512 286.06 388.42L285.96 388.66C286 388.56 286.03 388.456 286.05 388.35V388.62C286.07 388.488 286.07 388.353 286.05 388.22V388.49C286.027 388.347 285.99 388.206 285.94 388.07L286.039 388.32V388.23C285.908 387.982 285.869 387.695 285.93 387.42C286.006 387.154 286.185 386.929 286.426 386.792C286.667 386.656 286.952 386.619 287.219 386.69C287.35 386.724 287.472 386.784 287.578 386.867C287.685 386.949 287.774 387.053 287.84 387.17C287.946 387.382 288.023 387.608 288.07 387.84C288.104 388.076 288.104 388.315 288.07 388.55C288.057 388.702 288.033 388.852 288 389C287.953 389.147 287.896 389.291 287.83 389.43C287.799 389.497 287.762 389.56 287.719 389.62C287.634 389.746 287.537 389.863 287.43 389.97C287.064 390.31 286.588 390.505 286.09 390.52C285.843 390.532 285.597 390.493 285.366 390.405C285.136 390.317 284.926 390.183 284.75 390.01C284.391 389.608 284.192 389.089 284.19 388.55C284.173 388.21 284.224 387.87 284.34 387.55C284.405 387.353 284.496 387.164 284.61 386.99C284.767 386.77 284.963 386.58 285.19 386.43C285.382 386.304 285.599 386.219 285.826 386.181C286.054 386.143 286.286 386.153 286.51 386.21C286.736 386.266 286.949 386.367 287.136 386.506C287.323 386.645 287.481 386.82 287.599 387.02C287.734 387.238 287.805 387.489 287.805 387.745C287.805 388.001 287.734 388.252 287.599 388.47C287.489 388.641 287.323 388.768 287.13 388.83C287.029 388.857 286.924 388.865 286.821 388.851C286.718 388.837 286.619 388.803 286.53 388.75C286.352 388.644 286.223 388.472 286.171 388.272C286.119 388.072 286.147 387.86 286.25 387.68L286.27 387.69Z" fill="url(#paint49_linear_82_2)"/>
<path d="M282.46 405.13L282.39 405.31V405.19V405.4C282.4 405.354 282.4 405.306 282.39 405.26V405.47C282.382 405.414 282.365 405.36 282.34 405.31L282.43 405.51C282.404 405.458 282.374 405.407 282.34 405.36L282.47 405.52C282.418 405.462 282.361 405.408 282.3 405.36L282.47 405.49C282.399 405.437 282.322 405.393 282.24 405.36L282.44 405.44C282.366 405.41 282.289 405.389 282.21 405.38H282.45H282.24H282.47H282.32L282.53 405.29L282.31 405.42L282.5 405.28C282.435 405.335 282.375 405.395 282.32 405.46L282.46 405.27C282.38 405.379 282.313 405.496 282.26 405.62L282.35 405.39C282.299 405.53 282.262 405.674 282.24 405.82V405.57C282.22 405.74 282.22 405.911 282.24 406.08V405.82C282.258 405.96 282.291 406.098 282.34 406.23L282.25 406C282.282 406.074 282.322 406.145 282.37 406.21L282.21 406.01C282.248 406.058 282.292 406.102 282.34 406.14L282.14 405.99C282.193 406.029 282.25 406.062 282.31 406.09L282.07 405.99C282.14 406.021 282.214 406.041 282.29 406.05H282.02C282.112 406.07 282.207 406.07 282.3 406.05H282.04C282.126 406.038 282.21 406.014 282.29 405.98L282.05 406.08C282.128 406.05 282.202 406.01 282.27 405.96L282.07 406.11C282.133 406.067 282.187 406.013 282.23 405.95L282.08 406.16C282.139 406.079 282.19 405.992 282.23 405.9L282.12 406.15C282.163 406.048 282.194 405.94 282.21 405.83V406.1C282.22 405.967 282.22 405.833 282.21 405.7V405.97C282.187 405.827 282.15 405.686 282.1 405.55L282.2 405.8C282.203 405.77 282.203 405.74 282.2 405.71C282.068 405.465 282.033 405.18 282.1 404.91C282.13 404.775 282.189 404.648 282.272 404.537C282.354 404.425 282.459 404.332 282.579 404.264C282.7 404.195 282.833 404.152 282.971 404.138C283.109 404.123 283.248 404.138 283.38 404.18C283.512 404.211 283.635 404.27 283.742 404.352C283.849 404.435 283.937 404.54 284 404.66C284.104 404.869 284.182 405.091 284.23 405.32C284.265 405.559 284.265 405.801 284.23 406.04C284.216 406.192 284.193 406.342 284.16 406.49C284.113 406.634 284.057 406.775 283.99 406.91C283.959 406.977 283.922 407.04 283.88 407.1C283.797 407.228 283.7 407.345 283.59 407.45C283.225 407.792 282.749 407.991 282.25 408.01C282.003 408.019 281.757 407.977 281.526 407.888C281.296 407.799 281.086 407.663 280.91 407.49C280.554 407.091 280.355 406.575 280.35 406.04C280.334 405.7 280.385 405.36 280.5 405.04C280.569 404.844 280.66 404.657 280.77 404.48C280.927 404.259 281.124 404.07 281.35 403.92C281.543 403.794 281.76 403.71 281.987 403.672C282.214 403.634 282.446 403.644 282.67 403.7C282.897 403.758 283.11 403.86 283.297 404.001C283.484 404.142 283.641 404.318 283.76 404.52C283.894 404.736 283.966 404.986 283.966 405.24C283.966 405.495 283.894 405.744 283.76 405.96C283.649 406.131 283.483 406.258 283.29 406.32C283.189 406.347 283.085 406.354 282.982 406.34C282.879 406.326 282.78 406.292 282.69 406.24C282.516 406.13 282.391 405.959 282.339 405.76C282.287 405.562 282.312 405.351 282.41 405.17L282.46 405.13Z" fill="url(#paint50_linear_82_2)"/>
<path d="M278.65 422.58V422.53L278.57 422.72V422.6V422.81C278.58 422.761 278.58 422.71 278.57 422.66V422.88C278.574 422.824 278.574 422.767 278.57 422.71L278.65 422.91L278.56 422.76L278.69 422.93C278.643 422.864 278.586 422.807 278.52 422.76L278.69 422.89C278.62 422.835 278.543 422.792 278.46 422.76L278.67 422.84C278.594 422.816 278.517 422.796 278.44 422.78H278.67H278.46H278.69L278.54 422.83L278.76 422.74C278.676 422.77 278.598 422.814 278.53 422.87L278.72 422.72C278.655 422.775 278.594 422.835 278.54 422.9L278.69 422.72C278.601 422.821 278.53 422.936 278.48 423.06L278.58 422.84C278.52 422.977 278.48 423.122 278.46 423.27V423.01C278.44 423.18 278.44 423.351 278.46 423.52V423.27C278.473 423.408 278.506 423.543 278.56 423.67L278.46 423.44C278.487 423.517 278.528 423.588 278.58 423.65L278.43 423.45C278.464 423.501 278.504 423.548 278.55 423.59L278.36 423.43L278.52 423.53L278.29 423.43C278.356 423.462 278.427 423.482 278.5 423.49H278.23C278.326 423.5 278.423 423.5 278.52 423.49H278.25C278.336 423.482 278.421 423.459 278.5 423.42L278.26 423.52C278.341 423.491 278.418 423.45 278.49 423.4L278.28 423.55C278.343 423.509 278.4 423.458 278.45 423.4L278.29 423.6C278.349 423.523 278.399 423.439 278.44 423.35L278.34 423.59C278.381 423.488 278.408 423.38 278.42 423.27V423.54C278.43 423.407 278.43 423.274 278.42 423.14V423.42C278.403 423.273 278.366 423.128 278.31 422.99L278.42 423.24L278.37 423.15C278.238 422.905 278.202 422.62 278.27 422.35C278.344 422.087 278.516 421.862 278.75 421.72C278.993 421.583 279.28 421.547 279.55 421.62C279.68 421.654 279.802 421.715 279.909 421.797C280.015 421.88 280.104 421.983 280.17 422.1C280.276 422.312 280.353 422.538 280.4 422.77C280.435 423.006 280.435 423.245 280.4 423.48C280.391 423.632 280.368 423.783 280.33 423.93C280.288 424.079 280.231 424.223 280.16 424.36C280.13 424.425 280.093 424.485 280.05 424.54C279.968 424.669 279.874 424.79 279.77 424.9C279.399 425.238 278.92 425.432 278.42 425.45C278.174 425.46 277.929 425.418 277.701 425.329C277.472 425.239 277.264 425.104 277.09 424.93C276.731 424.532 276.528 424.017 276.52 423.48C276.505 423.141 276.556 422.801 276.67 422.48C276.743 422.287 276.837 422.103 276.95 421.93C277.104 421.704 277.301 421.511 277.53 421.36C277.722 421.234 277.939 421.149 278.166 421.111C278.394 421.074 278.626 421.083 278.85 421.14C279.302 421.264 279.689 421.558 279.93 421.96C280.064 422.176 280.136 422.426 280.136 422.68C280.136 422.935 280.064 423.184 279.93 423.4C279.826 423.577 279.657 423.707 279.46 423.76C279.311 423.8 279.154 423.795 279.008 423.746C278.862 423.697 278.734 423.606 278.639 423.484C278.545 423.362 278.489 423.215 278.479 423.061C278.468 422.907 278.503 422.754 278.58 422.62L278.65 422.58Z" fill="url(#paint51_linear_82_2)"/>
<path d="M274.849 440L274.769 440.19C274.778 440.151 274.778 440.11 274.769 440.07V440.28V440.14V440.35C274.759 440.295 274.742 440.241 274.719 440.19L274.799 440.38C274.777 440.326 274.746 440.276 274.709 440.23L274.839 440.4C274.791 440.339 274.737 440.282 274.679 440.23L274.849 440.36L274.619 440.23L274.819 440.32C274.745 440.291 274.668 440.271 274.589 440.26H274.819H274.609H274.849H274.689L274.909 440.17C274.831 440.204 274.757 440.248 274.689 440.3L274.869 440.16C274.804 440.215 274.744 440.275 274.689 440.34L274.839 440.15C274.76 440.257 274.69 440.371 274.629 440.49L274.729 440.27C274.669 440.407 274.629 440.552 274.609 440.7V440.45C274.584 440.619 274.584 440.791 274.609 440.96V440.7C274.627 440.837 274.661 440.971 274.709 441.1L274.609 440.87C274.637 440.946 274.678 441.017 274.729 441.08L274.579 440.89C274.617 440.938 274.661 440.982 274.709 441.02L274.509 440.86C274.556 440.903 274.61 440.936 274.669 440.96L274.439 440.86C274.506 440.889 274.577 440.91 274.649 440.92H274.389C274.482 440.93 274.576 440.93 274.669 440.92H274.399C274.485 440.911 274.569 440.891 274.649 440.86L274.409 440.96C274.489 440.923 274.566 440.879 274.639 440.83L274.439 440.99C274.497 440.942 274.551 440.888 274.599 440.83L274.439 441.03C274.498 440.953 274.549 440.869 274.589 440.78L274.489 441.02C274.53 440.917 274.56 440.81 274.579 440.7V440.98C274.599 440.844 274.599 440.706 274.579 440.57V440.85C274.561 440.705 274.52 440.563 274.459 440.43L274.569 440.67C274.565 440.64 274.565 440.61 274.569 440.58C274.495 440.464 274.445 440.334 274.424 440.198C274.402 440.062 274.409 439.923 274.444 439.789C274.479 439.656 274.541 439.531 274.626 439.423C274.711 439.315 274.818 439.225 274.939 439.16C275.058 439.087 275.19 439.04 275.328 439.021C275.465 439.002 275.605 439.012 275.739 439.05C276.004 439.122 276.23 439.294 276.369 439.53C276.472 439.743 276.546 439.968 276.589 440.2C276.624 440.436 276.624 440.675 276.589 440.91C276.572 441.062 276.545 441.212 276.509 441.36C276.467 441.509 276.41 441.653 276.339 441.79C276.312 441.853 276.279 441.914 276.239 441.97C276.156 442.101 276.059 442.221 275.949 442.33C275.578 442.667 275.1 442.862 274.599 442.88C274.355 442.889 274.111 442.848 273.882 442.761C273.654 442.673 273.445 442.54 273.269 442.37C272.91 441.969 272.711 441.449 272.709 440.91C272.683 440.57 272.735 440.228 272.859 439.91C273.003 439.446 273.303 439.047 273.709 438.78C273.903 438.656 274.12 438.573 274.347 438.535C274.573 438.497 274.806 438.506 275.029 438.56C275.484 438.684 275.874 438.977 276.119 439.38C276.251 439.599 276.321 439.85 276.321 440.105C276.321 440.361 276.251 440.612 276.119 440.83C276.014 440.999 275.85 441.124 275.659 441.18C275.559 441.209 275.455 441.218 275.352 441.206C275.249 441.194 275.149 441.161 275.059 441.11C274.884 441.002 274.757 440.831 274.704 440.631C274.652 440.432 274.679 440.22 274.779 440.04L274.849 440Z" fill="url(#paint52_linear_82_2)"/>
<path d="M271 457.46L270.92 457.65C270.924 457.61 270.924 457.57 270.92 457.53V457.74V457.6V457.81C270.926 457.757 270.926 457.704 270.92 457.65L271 457.84C270.977 457.786 270.947 457.736 270.91 457.69L271.04 457.86C270.994 457.8 270.94 457.746 270.88 457.7L271.05 457.83C270.979 457.774 270.902 457.727 270.82 457.69L271.02 457.78C270.946 457.75 270.869 457.73 270.79 457.72H271.02H270.81H271.05H270.9L271.11 457.63L270.89 457.76L271.07 457.62C271.006 457.673 270.949 457.734 270.9 457.8L271.04 457.61C270.958 457.718 270.891 457.835 270.84 457.96L270.93 457.73C270.875 457.869 270.835 458.013 270.81 458.16V457.91C270.79 458.08 270.79 458.251 270.81 458.42V458.16C270.828 458.3 270.861 458.438 270.91 458.57L270.81 458.33L270.93 458.55L270.78 458.35C270.818 458.399 270.862 458.442 270.91 458.48L270.71 458.33C270.763 458.369 270.82 458.403 270.88 458.43L270.64 458.33C270.709 458.355 270.779 458.375 270.85 458.39H270.59C270.683 458.4 270.777 458.4 270.87 458.39H270.61L270.86 458.32L270.62 458.42C270.699 458.387 270.772 458.343 270.84 458.29L270.64 458.45L270.8 458.29L270.64 458.5C270.699 458.42 270.75 458.332 270.79 458.24L270.69 458.48C270.73 458.38 270.761 458.277 270.78 458.17V458.44C270.8 458.308 270.8 458.173 270.78 458.04V458.31C270.757 458.167 270.721 458.026 270.67 457.89L270.77 458.14V458.05C270.64 457.802 270.601 457.515 270.66 457.24C270.738 456.982 270.909 456.761 271.14 456.62C271.385 456.48 271.676 456.441 271.95 456.51C272.08 456.544 272.202 456.605 272.309 456.687C272.415 456.77 272.504 456.873 272.57 456.99C272.672 457.204 272.749 457.429 272.8 457.66C272.83 457.896 272.83 458.135 272.8 458.37C272.787 458.522 272.764 458.672 272.73 458.82C272.684 458.968 272.627 459.111 272.56 459.25C272.529 459.317 272.492 459.381 272.45 459.44C272.364 459.566 272.267 459.683 272.16 459.79C271.789 460.128 271.311 460.322 270.81 460.34C270.565 460.352 270.321 460.312 270.092 460.224C269.863 460.136 269.655 460.002 269.48 459.83C269.122 459.428 268.922 458.909 268.92 458.37C268.894 457.81 269.04 457.255 269.34 456.78C269.497 456.56 269.694 456.37 269.92 456.22C270.113 456.095 270.33 456.01 270.556 455.971C270.783 455.931 271.016 455.938 271.24 455.99C271.696 456.111 272.087 456.405 272.33 456.81C272.462 457.029 272.532 457.28 272.532 457.535C272.532 457.791 272.462 458.042 272.33 458.26C272.22 458.431 272.053 458.558 271.86 458.62C271.657 458.67 271.443 458.642 271.26 458.54C271.083 458.434 270.954 458.263 270.901 458.063C270.849 457.862 270.877 457.65 270.98 457.47L271 457.46Z" fill="url(#paint53_linear_82_2)"/>
<path d="M267.23 474.9L267.15 475.08C267.154 475.04 267.154 475 267.15 474.96V475.17C267.16 475.124 267.16 475.076 267.15 475.03V475.24C267.142 475.184 267.125 475.13 267.1 475.08L267.19 475.28C267.164 475.228 267.134 475.177 267.1 475.13L267.23 475.29C267.178 475.232 267.121 475.178 267.06 475.13L267.23 475.26C267.161 475.204 267.083 475.16 267 475.13L267.2 475.21C267.126 475.18 267.049 475.159 266.97 475.15H267.2H267H267.23H267.08L267.29 475.06L267.07 475.19L267.26 475.05C267.19 475.1 267.129 475.161 267.08 475.23L267.22 475.04C267.138 475.147 267.07 475.265 267.02 475.39L267.11 475.16C267.059 475.3 267.022 475.444 267 475.59V475.34C266.98 475.51 266.98 475.681 267 475.85V475.59C267.018 475.73 267.051 475.868 267.1 476L267.01 475.77C267.042 475.844 267.082 475.915 267.13 475.98L266.97 475.78C267.008 475.828 267.051 475.872 267.1 475.91L266.9 475.76C266.953 475.799 267.01 475.832 267.07 475.86L266.83 475.76C266.897 475.789 266.967 475.809 267.04 475.82H266.78C266.872 475.84 266.967 475.84 267.06 475.82H266.8L267.05 475.75L266.81 475.85C266.89 475.82 266.965 475.776 267.03 475.72L266.83 475.88C266.888 475.832 266.941 475.778 266.99 475.72L266.84 475.93C266.899 475.849 266.949 475.762 266.99 475.67L266.88 475.92C266.923 475.818 266.954 475.71 266.97 475.6V475.87C266.99 475.738 266.99 475.603 266.97 475.47V475.74C266.947 475.597 266.91 475.456 266.86 475.32L266.96 475.57C266.963 475.54 266.963 475.51 266.96 475.48C266.828 475.232 266.792 474.943 266.86 474.67C266.892 474.536 266.951 474.41 267.034 474.3C267.117 474.19 267.222 474.098 267.342 474.03C267.462 473.963 267.595 473.921 267.733 473.907C267.87 473.893 268.008 473.908 268.14 473.95C268.271 473.981 268.395 474.04 268.502 474.122C268.609 474.205 268.697 474.31 268.76 474.43C268.864 474.639 268.942 474.861 268.99 475.09C269.024 475.326 269.024 475.565 268.99 475.8C268.976 475.955 268.953 476.108 268.92 476.26C268.872 476.404 268.815 476.544 268.75 476.68C268.719 476.747 268.682 476.81 268.64 476.87C268.557 476.998 268.46 477.115 268.35 477.22C267.984 477.56 267.509 477.759 267.01 477.78C266.763 477.787 266.517 477.744 266.287 477.655C266.057 477.566 265.847 477.431 265.67 477.26C265.314 476.861 265.115 476.345 265.11 475.81C265.094 475.47 265.145 475.13 265.26 474.81C265.325 474.613 265.416 474.424 265.53 474.25C265.687 474.029 265.884 473.84 266.11 473.69C266.303 473.564 266.52 473.48 266.747 473.442C266.974 473.404 267.206 473.414 267.43 473.47C267.885 473.586 268.277 473.877 268.52 474.28C268.654 474.498 268.725 474.749 268.725 475.005C268.725 475.261 268.654 475.512 268.52 475.73C268.409 475.901 268.243 476.028 268.05 476.09C267.949 476.117 267.845 476.124 267.742 476.11C267.639 476.096 267.54 476.062 267.45 476.01C267.276 475.901 267.151 475.729 267.099 475.53C267.047 475.332 267.072 475.121 267.17 474.94L267.23 474.9Z" fill="url(#paint54_linear_82_2)"/>
<defs>
<linearGradient id="paint0_linear_82_2" x1="323.87" y1="366.937" x2="323.87" y2="483.027" gradientUnits="userSpaceOnUse">
<stop stop-color="#144794"/>
<stop offset="1" stop-color="#06162E"/>
</linearGradient>
<linearGradient id="paint1_linear_82_2" x1="130.566" y1="503.61" x2="130.566" y2="662.252" gradientUnits="userSpaceOnUse">
<stop stop-color="#144794"/>
<stop offset="1" stop-color="#06162E"/>
</linearGradient>
<linearGradient id="paint2_linear_82_2" x1="130.366" y1="502.471" x2="130.366" y2="663.311" gradientUnits="userSpaceOnUse">
<stop stop-color="#144794"/>
<stop offset="1" stop-color="#06162E"/>
</linearGradient>
<linearGradient id="paint3_linear_82_2" x1="327.124" y1="481.89" x2="327.124" y2="802.43" gradientUnits="userSpaceOnUse">
<stop stop-color="#144794"/>
<stop offset="1" stop-color="#06162E"/>
</linearGradient>
<linearGradient id="paint4_linear_82_2" x1="560.005" y1="197.6" x2="560.005" y2="545.57" gradientUnits="userSpaceOnUse">
<stop stop-color="#144794"/>
<stop offset="1" stop-color="#06162E"/>
</linearGradient>
<linearGradient id="paint5_linear_82_2" x1="560.052" y1="195.75" x2="560.052" y2="547.43" gradientUnits="userSpaceOnUse">
<stop stop-color="#144794"/>
<stop offset="1" stop-color="#06162E"/>
</linearGradient>
<linearGradient id="paint6_linear_82_2" x1="560.13" y1="319.958" x2="560.13" y2="423.079" gradientUnits="userSpaceOnUse">
<stop stop-color="#144794"/>
<stop offset="1" stop-color="#06162E"/>
</linearGradient>
<linearGradient id="paint7_linear_82_2" x1="854.825" y1="283.32" x2="854.825" y2="523.68" gradientUnits="userSpaceOnUse">
<stop stop-color="#144794"/>
<stop offset="1" stop-color="#06162E"/>
</linearGradient>
<linearGradient id="paint8_linear_82_2" x1="854.85" y1="281.453" x2="854.85" y2="525.49" gradientUnits="userSpaceOnUse">
<stop stop-color="#144794"/>
<stop offset="1" stop-color="#06162E"/>
</linearGradient>
<linearGradient id="paint9_linear_82_2" x1="700.82" y1="506.68" x2="700.82" y2="668.889" gradientUnits="userSpaceOnUse">
<stop stop-color="#144794"/>
<stop offset="1" stop-color="#06162E"/>
</linearGradient>
<linearGradient id="paint10_linear_82_2" x1="700.8" y1="564.08" x2="700.8" y2="611.52" gradientUnits="userSpaceOnUse">
<stop stop-color="#144794"/>
<stop offset="1" stop-color="#06162E"/>
</linearGradient>
<linearGradient id="paint11_linear_82_2" x1="700.817" y1="562.249" x2="700.817" y2="613.45" gradientUnits="userSpaceOnUse">
<stop stop-color="#144794"/>
<stop offset="1" stop-color="#06162E"/>
</linearGradient>
<linearGradient id="paint12_linear_82_2" x1="308.852" y1="303.64" x2="308.852" y2="351.961" gradientUnits="userSpaceOnUse">
<stop stop-color="#144794"/>
<stop offset="1" stop-color="#06162E"/>
</linearGradient>
<linearGradient id="paint13_linear_82_2" x1="307.504" y1="316.381" x2="307.504" y2="319.153" gradientUnits="userSpaceOnUse">
<stop stop-color="#144794"/>
<stop offset="1" stop-color="#06162E"/>
</linearGradient>
<linearGradient id="paint14_linear_82_2" x1="306.91" y1="309.53" x2="306.91" y2="312.006" gradientUnits="userSpaceOnUse">
<stop stop-color="#144794"/>
<stop offset="1" stop-color="#06162E"/>
</linearGradient>
<linearGradient id="paint15_linear_82_2" x1="308.18" y1="331.48" x2="308.18" y2="333.654" gradientUnits="userSpaceOnUse">
<stop stop-color="#144794"/>
<stop offset="1" stop-color="#06162E"/>
</linearGradient>
<linearGradient id="paint16_linear_82_2" x1="285.019" y1="312.087" x2="285.019" y2="327.721" gradientUnits="userSpaceOnUse">
<stop stop-color="#144794"/>
<stop offset="1" stop-color="#06162E"/>
</linearGradient>
<linearGradient id="paint17_linear_82_2" x1="285.733" y1="318.19" x2="285.733" y2="321.341" gradientUnits="userSpaceOnUse">
<stop stop-color="#144794"/>
<stop offset="1" stop-color="#06162E"/>
</linearGradient>
<linearGradient id="paint18_linear_82_2" x1="295.527" y1="285.774" x2="295.527" y2="332.333" gradientUnits="userSpaceOnUse">
<stop stop-color="#144794"/>
<stop offset="1" stop-color="#06162E"/>
</linearGradient>
<linearGradient id="paint19_linear_82_2" x1="295.488" y1="284.737" x2="295.488" y2="333.395" gradientUnits="userSpaceOnUse">
<stop stop-color="#144794"/>
<stop offset="1" stop-color="#06162E"/>
</linearGradient>
<linearGradient id="paint20_linear_82_2" x1="292.292" y1="350.209" x2="292.292" y2="365.618" gradientUnits="userSpaceOnUse">
<stop stop-color="#144794"/>
<stop offset="1" stop-color="#06162E"/>
</linearGradient>
<linearGradient id="paint21_linear_82_2" x1="271.25" y1="329.368" x2="271.25" y2="343.17" gradientUnits="userSpaceOnUse">
<stop stop-color="#144794"/>
<stop offset="1" stop-color="#06162E"/>
</linearGradient>
<linearGradient id="paint22_linear_82_2" x1="273.776" y1="336.368" x2="273.776" y2="379.487" gradientUnits="userSpaceOnUse">
<stop stop-color="#144794"/>
<stop offset="1" stop-color="#06162E"/>
</linearGradient>
<linearGradient id="paint23_linear_82_2" x1="200.046" y1="349.266" x2="200.046" y2="538.668" gradientUnits="userSpaceOnUse">
<stop stop-color="#144794"/>
<stop offset="1" stop-color="#06162E"/>
</linearGradient>
<linearGradient id="paint24_linear_82_2" x1="221.915" y1="375.72" x2="221.915" y2="523.229" gradientUnits="userSpaceOnUse">
<stop stop-color="#144794"/>
<stop offset="1" stop-color="#06162E"/>
</linearGradient>
<linearGradient id="paint25_linear_82_2" x1="245.034" y1="521.439" x2="245.034" y2="537.33" gradientUnits="userSpaceOnUse">
<stop stop-color="#144794"/>
<stop offset="1" stop-color="#06162E"/>
</linearGradient>
<linearGradient id="paint26_linear_82_2" x1="243.807" y1="540.144" x2="243.807" y2="563.018" gradientUnits="userSpaceOnUse">
<stop stop-color="#144794"/>
<stop offset="1" stop-color="#06162E"/>
</linearGradient>
<linearGradient id="paint27_linear_82_2" x1="234.684" y1="553.27" x2="234.684" y2="563.607" gradientUnits="userSpaceOnUse">
<stop stop-color="#144794"/>
<stop offset="1" stop-color="#06162E"/>
</linearGradient>
<linearGradient id="paint28_linear_82_2" x1="226.102" y1="550.643" x2="226.102" y2="561.205" gradientUnits="userSpaceOnUse">
<stop stop-color="#144794"/>
<stop offset="1" stop-color="#06162E"/>
</linearGradient>
<linearGradient id="paint29_linear_82_2" x1="226.18" y1="518.889" x2="226.18" y2="559.145" gradientUnits="userSpaceOnUse">
<stop stop-color="#144794"/>
<stop offset="1" stop-color="#06162E"/>
</linearGradient>
<linearGradient id="paint30_linear_82_2" x1="325.398" y1="520.78" x2="315.774" y2="526.682" gradientUnits="userSpaceOnUse">
<stop stop-color="#144794"/>
<stop offset="1" stop-color="#06162E"/>
</linearGradient>
<linearGradient id="paint31_linear_82_2" x1="318.982" y1="524.716" x2="301.651" y2="535.344" gradientUnits="userSpaceOnUse">
<stop stop-color="#144794"/>
<stop offset="1" stop-color="#06162E"/>
</linearGradient>
<linearGradient id="paint32_linear_82_2" x1="542.075" y1="373.518" x2="542.075" y2="402.681" gradientUnits="userSpaceOnUse">
<stop stop-color="#144794"/>
<stop offset="1" stop-color="#06162E"/>
</linearGradient>
<linearGradient id="paint33_linear_82_2" x1="250.705" y1="514.665" x2="250.705" y2="618.402" gradientUnits="userSpaceOnUse">
<stop stop-color="#144794"/>
<stop offset="1" stop-color="#06162E"/>
</linearGradient>
<linearGradient id="paint34_linear_82_2" x1="255.98" y1="548.027" x2="255.98" y2="606.135" gradientUnits="userSpaceOnUse">
<stop stop-color="#144794"/>
<stop offset="1" stop-color="#06162E"/>
</linearGradient>
<linearGradient id="paint35_linear_82_2" x1="250.106" y1="537.947" x2="250.106" y2="596.052" gradientUnits="userSpaceOnUse">
<stop stop-color="#144794"/>
<stop offset="1" stop-color="#06162E"/>
</linearGradient>
<linearGradient id="paint36_linear_82_2" x1="212.09" y1="567.087" x2="212.09" y2="585.912" gradientUnits="userSpaceOnUse">
<stop stop-color="#144794"/>
<stop offset="1" stop-color="#06162E"/>
</linearGradient>
<linearGradient id="paint37_linear_82_2" x1="267.418" y1="527.857" x2="267.418" y2="557.287" gradientUnits="userSpaceOnUse">
<stop stop-color="#144794"/>
<stop offset="1" stop-color="#06162E"/>
</linearGradient>
<linearGradient id="paint38_linear_82_2" x1="259.277" y1="384.757" x2="259.277" y2="492.141" gradientUnits="userSpaceOnUse">
<stop stop-color="#144794"/>
<stop offset="1" stop-color="#06162E"/>
</linearGradient>
<linearGradient id="paint39_linear_82_2" x1="197.716" y1="433.822" x2="197.716" y2="446.42" gradientUnits="userSpaceOnUse">
<stop stop-color="#144794"/>
<stop offset="1" stop-color="#06162E"/>
</linearGradient>
<linearGradient id="paint40_linear_82_2" x1="316.605" y1="517.223" x2="316.605" y2="537.199" gradientUnits="userSpaceOnUse">
<stop stop-color="#144794"/>
<stop offset="1" stop-color="#06162E"/>
</linearGradient>
<linearGradient id="paint41_linear_82_2" x1="316.214" y1="477.364" x2="316.214" y2="508.552" gradientUnits="userSpaceOnUse">
<stop stop-color="#144794"/>
<stop offset="1" stop-color="#06162E"/>
</linearGradient>
<linearGradient id="paint42_linear_82_2" x1="369.873" y1="478.675" x2="369.873" y2="514.908" gradientUnits="userSpaceOnUse">
<stop stop-color="#144794"/>
<stop offset="1" stop-color="#06162E"/>
</linearGradient>
<linearGradient id="paint43_linear_82_2" x1="377.366" y1="483.391" x2="377.366" y2="490.639" gradientUnits="userSpaceOnUse">
<stop stop-color="#144794"/>
<stop offset="1" stop-color="#06162E"/>
</linearGradient>
<linearGradient id="paint44_linear_82_2" x1="373.028" y1="488.334" x2="373.028" y2="495.655" gradientUnits="userSpaceOnUse">
<stop stop-color="#144794"/>
<stop offset="1" stop-color="#06162E"/>
</linearGradient>
<linearGradient id="paint45_linear_82_2" x1="368.209" y1="492.502" x2="368.209" y2="500.865" gradientUnits="userSpaceOnUse">
<stop stop-color="#144794"/>
<stop offset="1" stop-color="#06162E"/>
</linearGradient>
<linearGradient id="paint46_linear_82_2" x1="457.565" y1="392.6" x2="457.565" y2="486.2" gradientUnits="userSpaceOnUse">
<stop stop-color="#144794"/>
<stop offset="1" stop-color="#06162E"/>
</linearGradient>
<linearGradient id="paint47_linear_82_2" x1="338.79" y1="499.16" x2="338.79" y2="527.21" gradientUnits="userSpaceOnUse">
<stop stop-color="#144794"/>
<stop offset="1" stop-color="#06162E"/>
</linearGradient>
<linearGradient id="paint48_linear_82_2" x1="362.036" y1="478.739" x2="362.036" y2="490.59" gradientUnits="userSpaceOnUse">
<stop stop-color="#144794"/>
<stop offset="1" stop-color="#06162E"/>
</linearGradient>
<linearGradient id="paint49_linear_82_2" x1="286.141" y1="386.159" x2="286.141" y2="390.522" gradientUnits="userSpaceOnUse">
<stop stop-color="#144794"/>
<stop offset="1" stop-color="#06162E"/>
</linearGradient>
<linearGradient id="paint50_linear_82_2" x1="282.301" y1="403.649" x2="282.301" y2="408.011" gradientUnits="userSpaceOnUse">
<stop stop-color="#144794"/>
<stop offset="1" stop-color="#06162E"/>
</linearGradient>
<linearGradient id="paint51_linear_82_2" x1="278.471" y1="421.089" x2="278.471" y2="425.452" gradientUnits="userSpaceOnUse">
<stop stop-color="#144794"/>
<stop offset="1" stop-color="#06162E"/>
</linearGradient>
<linearGradient id="paint52_linear_82_2" x1="274.659" y1="438.512" x2="274.659" y2="442.881" gradientUnits="userSpaceOnUse">
<stop stop-color="#144794"/>
<stop offset="1" stop-color="#06162E"/>
</linearGradient>
<linearGradient id="paint53_linear_82_2" x1="270.87" y1="455.945" x2="270.87" y2="460.342" gradientUnits="userSpaceOnUse">
<stop stop-color="#144794"/>
<stop offset="1" stop-color="#06162E"/>
</linearGradient>
<linearGradient id="paint54_linear_82_2" x1="267.061" y1="473.419" x2="267.061" y2="477.781" gradientUnits="userSpaceOnUse">
<stop stop-color="#144794"/>
<stop offset="1" stop-color="#06162E"/>
</linearGradient>
</defs>
</svg>
