<svg xmlns="http://www.w3.org/2000/svg" version="1.1" xmlns:xlink="http://www.w3.org/1999/xlink" xmlns:svgjs="http://svgjs.dev/svgjs" width="2000" height="2000" preserveAspectRatio="none" viewBox="0 0 2000 2000"><g mask="url(&quot;#SvgjsMask1118&quot;)" fill="none"><rect width="2000" height="2000" x="0" y="0" fill="url(&quot;#SvgjsLinearGradient1119&quot;)"></rect><path d="M2000 0L1725.2 0L2000 372.98z" fill="rgba(255, 255, 255, .1)"></path><path d="M1725.2 0L2000 372.98L2000 882.31L927.5500000000001 0z" fill="rgba(255, 255, 255, .075)"></path><path d="M927.55 0L2000 882.31L2000 1283.8999999999999L818.3199999999999 0z" fill="rgba(255, 255, 255, .05)"></path><path d="M818.3199999999999 0L2000 1283.8999999999999L2000 1297.09L682.8499999999999 0z" fill="rgba(255, 255, 255, .025)"></path><path d="M0 2000L301.28 2000L0 1670.88z" fill="rgba(0, 0, 0, .1)"></path><path d="M0 1670.88L301.28 2000L460.29999999999995 2000L0 1600.7800000000002z" fill="rgba(0, 0, 0, .075)"></path><path d="M0 1600.78L460.29999999999995 2000L828.6399999999999 2000L0 921.49z" fill="rgba(0, 0, 0, .05)"></path><path d="M0 921.49L828.6399999999999 2000L1347.25 2000L0 293.65999999999997z" fill="rgba(0, 0, 0, .025)"></path></g><defs><mask id="SvgjsMask1118"><rect width="2000" height="2000" fill="#ffffff"></rect></mask><linearGradient x1="0%" y1="100%" x2="100%" y2="0%" gradientUnits="userSpaceOnUse" id="SvgjsLinearGradient1119"><stop stop-color="#0e2a47" offset="0"></stop><stop stop-color="rgba(0, 0, 0, 1)" offset="1"></stop></linearGradient></defs></svg>